SplineFontDB: 3.2
FontName: NewCMSans10-Regular
FullName: NewComputerModernSans10-Regular
FamilyName: NewComputerModernSans10
Weight: Regular
Copyright: (C) 2019-2020 Antonis Tsolomitis. This work is released under the GUST Font License --  see http://tug.org/fonts/licenses/GUST-FONT-LICENSE.txt for details.
Version: 3.93
ItalicAngle: 0
UnderlinePosition: -146
UnderlineWidth: 40
Ascent: 806
Descent: 194
InvalidEm: 0
sfntRevision: 0x00021999
LayerCount: 2
Layer: 0 0 "Back" 1
Layer: 1 0 "Fore" 0
XUID: [1021 12 -395342500 13699419]
StyleMap: 0x0040
FSType: 8
OS2Version: 3
OS2_WeightWidthSlopeOnly: 0
OS2_UseTypoMetrics: 0
CreationTime: 1254996025
ModificationTime: 1633793990
PfmFamily: 81
TTFWeight: 400
TTFWidth: 5
LineGap: 0
VLineGap: 0
Panose: 0 0 5 0 0 0 0 0 0 0
OS2TypoAscent: 806
OS2TypoAOffset: 0
OS2TypoDescent: -194
OS2TypoDOffset: 0
OS2TypoLinegap: 200
OS2WinAscent: 1154
OS2WinAOffset: 0
OS2WinDescent: 309
OS2WinDOffset: 0
HheadAscent: 1154
HheadAOffset: 0
HheadDescent: -309
HheadDOffset: 0
OS2SubXSize: 650
OS2SubYSize: 600
OS2SubXOff: 0
OS2SubYOff: 75
OS2SupXSize: 650
OS2SupYSize: 600
OS2SupXOff: 0
OS2SupYOff: 350
OS2StrikeYSize: 40
OS2StrikeYPos: 266
OS2CapHeight: 694
OS2XHeight: 444
OS2Vendor: 'UKWN'
OS2CodePages: 20000193.00000000
OS2UnicodeRanges: 20000007.00000000.00000000.00000000
Lookup: 1 0 0 "'aalt' Access All Alternates lookup 0" { "'aalt' Access All Alternates lookup 0 subtable"  } ['aalt' ('DFLT' <'dflt' > 'cyrl' <'dflt' > 'latn' <'AZE ' 'CRT ' 'MOL ' 'NLD ' 'PLK ' 'ROM ' 'TRK ' 'dflt' > ) ]
Lookup: 3 0 0 "'aalt' Access All Alternates lookup 1" { "'aalt' Access All Alternates lookup 1 subtable"  } ['aalt' ('DFLT' <'dflt' > 'cyrl' <'dflt' > 'latn' <'AZE ' 'CRT ' 'MOL ' 'NLD ' 'PLK ' 'ROM ' 'TRK ' 'dflt' > ) ]
Lookup: 1 0 0 "'locl' Localized Forms in Latin lookup 2" { "'locl' Localized Forms in Latin lookup 2 subtable"  } ['locl' ('latn' <'MOL ' 'ROM ' > ) ]

StartChar: exclam
Encoding: 33 33 2
Width: 319
GlyphClass: 2
Flags: MW
HStem: 0 83<118 201 118 201> 175 21G<126 193 126 126> 674 20G<118 201 201 201>
VStem: 118 83<0 83>
LayerCount: 2
Fore
SplineSet
201 694 m 1
 193 218 l 1
 193 175 l 1
 126 175 l 1
 126 218 l 1
 118 694 l 1
 201 694 l 1
201 0 m 1
 118 0 l 1
 118 83 l 1
 201 83 l 1
 201 0 l 1
EndSplineSet
Validated: 1
EndChar

StartChar: quotedbl
Encoding: 34 34 3
Width: 434
GlyphClass: 2
Flags: MW
HStem: 430 21G<100 178 100 100 256 256 256 334> 696 20G<100 178 178 178 256 334 334 334>
LayerCount: 2
Fore
SplineSet
178 430 m 1
 100 430 l 1
 100 716 l 1
 178 716 l 1
 178 430 l 1
334 430 m 1
 256 430 l 1
 256 716 l 1
 334 716 l 1
 334 430 l 1
EndSplineSet
Validated: 1
EndChar

StartChar: numbersign
Encoding: 35 35 4
Width: 833
GlyphClass: 2
Flags: MW
HStem: -194 21G<181.5 195 410.5 424> 130 40<82 260 90 248 301 477 90 289 530 742 742 743> 330 40<89 90 90 302 89 343 355 531 584 742> 674 20G<408 421.5 637 650.5>
VStem: 56 720<140 160 340 360>
LayerCount: 2
Fore
SplineSet
776 150 m 0
 776 130 757 130 743 130 c 2
 518 130 l 1
 438 -170 l 2
 435 -181 432 -194 416 -194 c 0
 405 -194 396 -185 396 -174 c 0
 396 -170 399 -158 400 -156 c 2
 477 130 l 1
 289 130 l 1
 209 -170 l 2
 206 -181 203 -194 187 -194 c 0
 176 -194 167 -185 167 -174 c 0
 167 -170 170 -158 171 -156 c 2
 248 130 l 1
 89 130 l 2
 75 130 56 130 56 150 c 0
 56 170 75 170 90 170 c 2
 260 170 l 1
 302 330 l 1
 90 330 l 2
 75 330 56 330 56 350 c 0
 56 370 75 370 89 370 c 2
 314 370 l 1
 394 670 l 2
 397 681 400 694 416 694 c 0
 427 694 436 685 436 674 c 0
 436 670 433 658 432 656 c 2
 355 370 l 1
 543 370 l 1
 623 670 l 2
 626 681 629 694 645 694 c 0
 656 694 665 685 665 674 c 0
 665 670 662 658 661 656 c 2
 584 370 l 1
 743 370 l 2
 757 370 776 370 776 350 c 0
 776 330 757 330 742 330 c 2
 572 330 l 1
 530 170 l 1
 742 170 l 2
 757 170 776 170 776 150 c 0
531 330 m 1
 343 330 l 1
 301 170 l 1
 489 170 l 1
 531 330 l 1
EndSplineSet
Validated: 1
EndChar

StartChar: dollar
Encoding: 36 36 5
Width: 500
GlyphClass: 2
Flags: MW
HStem: -56 21G<221 279 221 221> -11 68 638 68 730 20G<221 279 279 279>
VStem: 56 73<505.5 551 505.5 553> 221 58<-56 -10 -10 -10 57 308 414 638 638 638 704 750> 370 73<156.5 211.5>
LayerCount: 2
Fore
SplineSet
443 195 m 0
 443 99 379 9 279 -8 c 1
 279 -56 l 1
 221 -56 l 1
 221 -10 l 1
 128 -1 69 40 44 58 c 1
 56 126 l 1
 108 80 172 59 221 54 c 1
 221 322 l 1
 75 356 56 469 56 513 c 0
 56 593 109 683 221 703 c 1
 221 750 l 1
 279 750 l 1
 279 704 l 1
 322 701 366 691 427 649 c 1
 415 583 l 1
 381 610 341 634 279 640 c 1
 279 399 l 1
 393 376 443 278 443 195 c 0
221 414 m 1
 221 638 l 1
 163 624 129 576 129 526 c 0
 129 485 153 431 221 414 c 1
370 182 m 0
 370 241 333 293 279 308 c 1
 279 57 l 1
 341 75 370 131 370 182 c 0
EndSplineSet
Validated: 1
Substitution2: "'onum' Oldstyle Figures lookup 4 subtable" dollar.oldstyle
Substitution2: "'aalt' Access All Alternates lookup 0 subtable" dollar.oldstyle
EndChar

StartChar: percent
Encoding: 37 37 6
Width: 833
GlyphClass: 2
Flags: MW
HStem: -56 61<633.5 658.5 633.5 674.5> 286 122 689 61<189 216>
VStem: 56 75<489 607.5> 264 69<510.5 585.5> 499 75<86 204.5> 707 69<107.5 182.5>
CounterMasks: 1 e0
LayerCount: 2
Fore
SplineSet
333 548 m 0
 333 432 267 347 196 347 c 0
 125 347 56 429 56 549 c 0
 56 666 123 750 196 750 c 0
 266 750 333 668 333 548 c 0
659 730 m 0
 659 726 659 724 651 712 c 2
 217 -40 l 2
 212 -49 207 -56 196 -56 c 0
 186 -56 176 -47 176 -36 c 0
 176 -29 183 -18 183 -18 c 1
 618 734 l 2
 622 740 627 750 639 750 c 0
 650 750 659 741 659 730 c 0
776 145 m 0
 776 29 710 -56 639 -56 c 0
 568 -56 499 26 499 146 c 0
 499 263 566 347 639 347 c 0
 709 347 776 265 776 145 c 0
264 549 m 0
 264 622 236 689 196 689 c 0
 182 689 131 681 131 548 c 0
 131 411 185 408 196 408 c 0
 235 408 264 472 264 549 c 0
707 146 m 0
 707 219 679 286 639 286 c 0
 625 286 574 278 574 145 c 0
 574 8 628 5 639 5 c 0
 678 5 707 69 707 146 c 0
EndSplineSet
Validated: 1
EndChar

StartChar: ampersand
Encoding: 38 38 7
Width: 758
GlyphClass: 2
Flags: MW
HStem: -22 64<190.5 239.5 190.5 274 563.5 591> 292 61 343 61 655 61<283.5 325.5>
VStem: 42 78<127.5 165.5> 154 65 161 65 162 65<548 571.5> 189 65 360 69<534.5 572.5>
LayerCount: 2
Fore
SplineSet
701 -7 m 1xb140
 641 -22 597 -22 585 -22 c 0
 537 -22 484 -10 424 36 c 1
 394 19 323 -22 225 -22 c 0
 119 -22 42 56 42 146 c 0
 42 185 55 222 87 257 c 0
 94 265 141 305 161 322 c 0x8a
 172 332 177 336 183 342 c 0
 191 350 192 353 192 353 c 1
 192 353 192 356 189 363 c 0x4080
 179 393 162 453 162 518 c 0
 162 625 215 716 300 716 c 0
 380 716 429 635 429 559 c 0
 429 493 375 429 278 343 c 1
 323 248 404 154 434 122 c 1
 458 141 497 178 536 245 c 0
 543 256 578 315 603 405 c 1
 665 387 l 1
 632 270 574 159 482 79 c 1
 512 58 541 42 586 42 c 0
 600 42 647 43 701 60 c 1
 701 -7 l 1xb140
360 560 m 0
 360 585 352 655 299 655 c 0
 268 655 227 627 227 552 c 0x1140
 227 544 227 474 254 404 c 1x2080
 315 460 360 509 360 560 c 0
373 80 m 1
 362 91 267 196 219 292 c 1
 212 286 155 237 154 235 c 0x44
 137 219 120 191 120 153 c 0
 120 102 155 42 226 42 c 0x8a
 253 42 310 47 373 80 c 1
EndSplineSet
Validated: 1
Substitution2: "'lnum' Lining Figures lookup 5 subtable" ampersand
Substitution2: "'onum' Oldstyle Figures lookup 4 subtable" ampersand
Substitution2: "'aalt' Access All Alternates lookup 0 subtable" ampersand
EndChar

StartChar: quotesingle
Encoding: 39 39 8
Width: 278
GlyphClass: 2
Flags: MW
HStem: 430 21G<100 178 100 100> 696 20G<100 178 178 178>
VStem: 100 78<430 716>
LayerCount: 2
Fore
SplineSet
178 430 m 1
 100 430 l 1
 100 716 l 1
 178 716 l 1
 178 430 l 1
EndSplineSet
Validated: 1
EndChar

StartChar: parenleft
Encoding: 40 40 9
Width: 389
GlyphClass: 2
Flags: MW
HStem: -250 21G<271 332 271 271> 730 20G<271 332 332 332>
VStem: 79 78<88.5 278 88.5 286.5>
LayerCount: 2
Fore
SplineSet
332 -250 m 1
 271 -250 l 1
 223 -206 79 -73 79 250 c 0
 79 323 86 429 126 536 c 0
 172 659 239 720 271 750 c 1
 332 750 l 1
 299 717 242 657 201 541 c 0
 160 423 157 306 157 250 c 0
 157 -73 284 -202 332 -250 c 1
EndSplineSet
Validated: 1
EndChar

StartChar: parenright
Encoding: 41 41 10
Width: 389
GlyphClass: 2
Flags: MW
HStem: -250 21G<56 117 56 56> 730 20G<56 117 117 117>
VStem: 231 78<222 411.5>
LayerCount: 2
Fore
SplineSet
309 250 m 0
 309 177 302 71 262 -36 c 0
 216 -159 149 -220 117 -250 c 1
 56 -250 l 1
 89 -217 146 -157 187 -41 c 0
 228 77 231 194 231 250 c 0
 231 573 104 702 56 750 c 1
 117 750 l 1
 165 706 309 573 309 250 c 0
EndSplineSet
Validated: 1
EndChar

StartChar: asterisk
Encoding: 42 42 11
Width: 500
GlyphClass: 2
Flags: MW
HStem: 306 21G<243 257> 730 20G<242 256>
VStem: 215 69<328.5 353.5 328.5 353.5 702.5 727.5> 300 69
LayerCount: 2
Fore
SplineSet
435 436 m 0
 435 412 415 400 401 400 c 0
 390 400 386 403 369 416 c 2
 276 480 l 1
 278 450 284 366 284 341 c 0
 284 316 265 306 249 306 c 0
 237 306 215 314 215 341 c 0
 215 366 221 450 223 480 c 1
 127 413 l 2
 113 403 109 400 98 400 c 0
 84 400 64 412 64 436 c 0
 64 455 74 460 90 469 c 2
 199 528 l 1
 118 572 85 588 78 593 c 0
 69 599 64 608 64 620 c 0
 64 644 84 656 98 656 c 0
 103 656 110 656 125 645 c 2
 223 576 l 1
 221 606 215 690 215 715 c 0
 215 740 234 750 250 750 c 0
 262 750 284 742 284 715 c 0
 284 690 278 606 276 576 c 1
 372 643 l 2
 386 653 390 656 401 656 c 0
 415 656 435 644 435 620 c 0
 435 601 425 596 409 587 c 2
 300 528 l 1
 381 484 414 468 421 463 c 0
 430 457 435 448 435 436 c 0
EndSplineSet
Validated: 1
EndChar

StartChar: plus
Encoding: 43 43 12
Width: 778
GlyphClass: 2
Flags: MW
HStem: -83 21G<379 399> 230 40<82 369 89 369 409 688> 563 20G<379 399>
VStem: 369 40<-50 230 270 550>
LayerCount: 2
Fore
SplineSet
721 250 m 0
 721 230 702 230 688 230 c 2
 409 230 l 1
 409 -50 l 2
 409 -64 409 -83 389 -83 c 0
 369 -83 369 -64 369 -50 c 2
 369 230 l 1
 89 230 l 2
 75 230 56 230 56 250 c 0
 56 270 75 270 89 270 c 2
 369 270 l 1
 369 550 l 2
 369 564 369 583 389 583 c 0
 409 583 409 564 409 550 c 2
 409 270 l 1
 688 270 l 2
 702 270 721 270 721 250 c 0
EndSplineSet
Validated: 1
EndChar

StartChar: comma
Encoding: 44 44 13
Width: 278
GlyphClass: 2
Flags: MW
HStem: -125 21G<97 138 97 97> 0 83<97 122 97 180>
VStem: 97 83<1 1 1 83 1 83>
LayerCount: 2
Fore
SplineSet
180 1 m 1
 138 -125 l 1
 97 -125 l 1
 122 0 l 1
 97 0 l 1
 97 83 l 1
 180 83 l 1
 180 1 l 1
EndSplineSet
Validated: 1
EndChar

StartChar: hyphen
Encoding: 45 45 14
Width: 333
GlyphClass: 2
Flags: MW
HStem: 193 58<11 276 11 276>
VStem: 11 265<193 251 193 251>
LayerCount: 2
Fore
SplineSet
276 193 m 1
 11 193 l 1
 11 251 l 1
 276 251 l 1
 276 193 l 1
EndSplineSet
Validated: 1
EndChar

StartChar: period
Encoding: 46 46 15
Width: 278
GlyphClass: 2
Flags: MW
HStem: 0 83<97 180 97 180>
VStem: 97 83<0 83>
LayerCount: 2
Fore
SplineSet
180 0 m 1
 97 0 l 1
 97 83 l 1
 180 83 l 1
 180 0 l 1
EndSplineSet
Validated: 1
EndChar

StartChar: slash
Encoding: 47 47 16
Width: 500
GlyphClass: 2
Flags: MW
HStem: -250 21G<70.5 83> 730 20G<402 428.5 416 443>
VStem: 56 387
LayerCount: 2
Fore
SplineSet
443 730 m 2
 443 730 443 725 438 712 c 2
 97 -230 l 2
 94 -240 90 -250 76 -250 c 0
 65 -250 56 -241 56 -230 c 2
 56 -230 56 -225 61 -212 c 2
 402 730 l 2
 405 740 409 750 423 750 c 0
 434 750 443 741 443 730 c 2
EndSplineSet
Validated: 1
EndChar

StartChar: zero
Encoding: 48 48 17
Width: 500
GlyphClass: 2
Flags: MW
HStem: -22 61<224 266 224 285.5> 88 61 617 61<220.5 275.5 220.5 288>
VStem: 42 78<299 366> 42 95 379 78<305 365.5 272.5 369>
LayerCount: 2
Fore
SplineSet
457 326 m 0xec
 457 219 447 153 417 88 c 0
 385 19 322 -22 249 -22 c 0
 192 -22 116 5 76 101 c 0
 46 174 42 247 42 326 c 0
 42 406 47 489 80 562 c 0
 121 651 191 678 250 678 c 0
 301 678 370 654 411 579 c 0
 453 498 457 405 457 326 c 0xec
379 338 m 0
 379 400 379 467 360 523 c 0
 353 541 327 617 249 617 c 0
 168 617 143 535 137 516 c 0x2c
 120 461 120 401 120 338 c 0x10
 120 260 121 206 137 149 c 0
 157 77 198 39 250 39 c 0
 282 39 335 55 361 146 c 0
 379 209 379 272 379 338 c 0
EndSplineSet
Validated: 1
Substitution2: "'zero' Slashed Zero lookup 14 subtable" zero.slash
Substitution2: "'pnum' Proportional Numbers lookup 6 subtable" zero.prop
Substitution2: "'onum' Oldstyle Figures lookup 4 subtable" zero.oldstyle
AlternateSubs2: "'aalt' Access All Alternates lookup 1 subtable" zero.oldstyle zero.prop zero.slash
EndChar

StartChar: one
Encoding: 49 49 18
Width: 500
GlyphClass: 2
Flags: MW
HStem: 0 58<95 220 299 424 95 220> 554 58<89 89> 658 20G<279 299 299 299>
VStem: 220 79<58 578 578 578>
LayerCount: 2
Fore
SplineSet
424 0 m 1
 95 0 l 1
 95 58 l 1
 220 58 l 1
 220 578 l 1
 170 557 122 555 89 554 c 1
 89 612 l 1
 137 614 220 617 279 678 c 1
 299 678 l 1
 299 58 l 1
 424 58 l 1
 424 0 l 1
EndSplineSet
Validated: 1
Substitution2: "'pnum' Proportional Numbers lookup 6 subtable" one.prop
Substitution2: "'onum' Oldstyle Figures lookup 4 subtable" one.oldstyle
AlternateSubs2: "'aalt' Access All Alternates lookup 1 subtable" one.oldstyle one.prop
EndChar

StartChar: two
Encoding: 50 50 19
Width: 500
GlyphClass: 2
Flags: MW
HStem: 0 64<50 449 50 50> 0 71<267 449 267 449> 188 71 614 64<179 269>
VStem: 367 82<420.5 500>
LayerCount: 2
Fore
SplineSet
449 0 m 1x78
 50 0 l 1
 50 64 l 1x88
 174 188 l 1
 251 259 l 1
 310 319 367 376 367 461 c 0
 367 539 316 614 222 614 c 0
 131 614 103 536 83 459 c 1
 73 473 63 486 61 488 c 0
 59 491 54 497 42 514 c 1
 66 600 122 678 236 678 c 0
 368 678 449 578 449 463 c 0
 449 378 395 325 350 280 c 0
 331 262 280 220 261 202 c 0
 230 173 154 98 122 70 c 1
 231 70 l 2
 243 70 255 71 267 71 c 2
 449 71 l 1
 449 0 l 1x78
EndSplineSet
Validated: 1
Substitution2: "'pnum' Proportional Numbers lookup 6 subtable" two.prop
Substitution2: "'onum' Oldstyle Figures lookup 4 subtable" two.oldstyle
AlternateSubs2: "'aalt' Access All Alternates lookup 1 subtable" two.oldstyle two.prop
EndChar

StartChar: three
Encoding: 51 51 20
Width: 500
GlyphClass: 2
Flags: MW
HStem: -22 61<227 283.5 210.5 308> 324 61<167 238 167 167> 620 58<216.5 273>
VStem: 368 89<142 206>
LayerCount: 2
Fore
SplineSet
457 180 m 0
 457 75 369 -22 247 -22 c 0
 207 -22 115 -12 42 82 c 1
 53 142 l 1
 97 74 176 39 245 39 c 0
 322 39 368 103 368 181 c 0
 368 231 346 324 238 324 c 2
 167 324 l 1
 167 385 l 1
 238 391 240 391 246 392 c 0
 307 406 348 465 348 526 c 0
 348 590 299 620 247 620 c 0
 186 620 121 584 92 514 c 1
 56 568 l 1
 98 638 171 678 248 678 c 0
 347 678 430 612 430 526 c 0
 430 463 395 395 319 354 c 1
 387 333 457 271 457 180 c 0
EndSplineSet
Validated: 1
Substitution2: "'pnum' Proportional Numbers lookup 6 subtable" three.prop
Substitution2: "'onum' Oldstyle Figures lookup 4 subtable" three.oldstyle
AlternateSubs2: "'aalt' Access All Alternates lookup 1 subtable" three.oldstyle three.prop
EndChar

StartChar: four
Encoding: 52 52 21
Width: 500
GlyphClass: 2
Flags: MW
HStem: 0 21G<293 372 293 293> 171 61<106 293 28 28 372 471> 636 20G<281 372 372 372>
VStem: 299 73<232 612 612 612>
LayerCount: 2
Fore
SplineSet
471 171 m 1
 372 171 l 1
 372 0 l 1
 293 0 l 1
 293 171 l 1
 28 171 l 1
 28 232 l 1
 281 656 l 1
 372 656 l 1
 372 232 l 1
 471 232 l 1
 471 171 l 1
299 232 m 1
 299 612 l 1
 298 555 158 318 106 232 c 1
 299 232 l 1
EndSplineSet
Validated: 1
Substitution2: "'pnum' Proportional Numbers lookup 6 subtable" four.prop
Substitution2: "'onum' Oldstyle Figures lookup 4 subtable" four.oldstyle
AlternateSubs2: "'aalt' Access All Alternates lookup 1 subtable" four.oldstyle four.prop
EndChar

StartChar: five
Encoding: 53 53 22
Width: 500
GlyphClass: 2
Flags: MW
HStem: -22 61<195.5 233.5 195.5 289.5> 366 61<240 282.5> 592 64<153 416 153 153>
VStem: 81 72<386 592 386 656 386 656> 360 89<140 265>
LayerCount: 2
Fore
SplineSet
449 203 m 0
 449 77 349 -22 230 -22 c 0
 149 -22 80 19 39 76 c 1
 72 132 l 1
 101 78 162 39 229 39 c 0
 238 39 360 39 360 205 c 0
 360 325 306 366 259 366 c 0
 201 366 164 327 147 287 c 1
 81 287 l 1
 81 656 l 1
 416 656 l 1
 416 592 l 1
 153 592 l 1
 153 386 l 1
 182 412 220 427 260 427 c 0
 363 427 449 328 449 203 c 0
EndSplineSet
Validated: 1
Substitution2: "'pnum' Proportional Numbers lookup 6 subtable" five.prop
Substitution2: "'onum' Oldstyle Figures lookup 4 subtable" five.oldstyle
AlternateSubs2: "'aalt' Access All Alternates lookup 1 subtable" five.oldstyle five.prop
EndChar

StartChar: six
Encoding: 54 54 23
Width: 500
GlyphClass: 2
Flags: MW
HStem: -22 61<208.5 279.5 198 281> 401 61<279 280> 620 58<264 316 238.5 329>
VStem: 42 86<247 284 247 429.5> 375 82<205 244.5>
LayerCount: 2
Fore
SplineSet
457 222 m 0
 457 143 438 97 393 46 c 0
 354 1 311 -22 251 -22 c 0
 166 -22 42 39 42 322 c 0
 42 537 168 678 309 678 c 0
 323 678 364 678 415 658 c 1
 415 599 l 1
 380 613 348 620 310 620 c 0
 218 620 139 540 126 379 c 1
 187 454 263 462 295 462 c 0
 391 462 457 350 457 222 c 0
375 222 m 0
 375 267 373 302 352 339 c 0
 332 376 304 401 256 401 c 0
 173 401 128 321 128 247 c 0
 127 235 127 233 127 219 c 0
 130 186 145 39 251 39 c 0
 308 39 334 73 351 101 c 0
 375 142 375 188 375 222 c 0
EndSplineSet
Validated: 1
Substitution2: "'pnum' Proportional Numbers lookup 6 subtable" six.prop
Substitution2: "'onum' Oldstyle Figures lookup 4 subtable" six.oldstyle
AlternateSubs2: "'aalt' Access All Alternates lookup 1 subtable" six.oldstyle six.prop
EndChar

StartChar: seven
Encoding: 55 55 24
Width: 500
GlyphClass: 2
Flags: MW
HStem: -11 21G<152 236 152 152> 585 71<42 232 42 457>
VStem: 152 84<-11 106>
LayerCount: 2
Fore
SplineSet
457 591 m 1
 379 503 236 289 236 -11 c 1
 152 -11 l 1
 152 223 241 423 389 586 c 1
 268 586 l 2
 256 586 244 585 232 585 c 2
 42 585 l 1
 42 656 l 1
 457 656 l 1
 457 591 l 1
EndSplineSet
Validated: 1
Substitution2: "'pnum' Proportional Numbers lookup 6 subtable" seven.prop
Substitution2: "'onum' Oldstyle Figures lookup 4 subtable" seven.oldstyle
AlternateSubs2: "'aalt' Access All Alternates lookup 1 subtable" seven.oldstyle seven.prop
EndChar

StartChar: eight
Encoding: 56 56 25
Width: 500
GlyphClass: 2
Flags: MW
HStem: -22 61<215.5 282 215.5 308.5> 324 61<222 278> 620 58<212 288.5>
VStem: 42 81<134 223.5> 376 81<132.5 225.5 127 232.5>
LayerCount: 2
Fore
SplineSet
457 180 m 0
 457 74 368 -22 249 -22 c 0
 134 -22 42 71 42 180 c 0
 42 267 107 330 179 355 c 1
 90 384 56 450 56 503 c 0
 56 595 138 678 250 678 c 0
 358 678 443 597 443 503 c 0
 443 450 409 384 320 355 c 1
 387 332 457 271 457 180 c 0
373 503 m 0
 373 568 328 620 249 620 c 0
 175 620 126 572 126 503 c 0
 126 434 173 385 250 385 c 0
 322 385 373 431 373 503 c 0
376 181 m 0
 376 284 307 324 249 324 c 0
 195 324 123 286 123 181 c 0
 123 87 181 39 250 39 c 0
 314 39 376 84 376 181 c 0
EndSplineSet
Validated: 1
Substitution2: "'pnum' Proportional Numbers lookup 6 subtable" eight.prop
Substitution2: "'onum' Oldstyle Figures lookup 4 subtable" eight.oldstyle
AlternateSubs2: "'aalt' Access All Alternates lookup 1 subtable" eight.oldstyle eight.prop
EndChar

StartChar: nine
Encoding: 57 57 26
Width: 500
GlyphClass: 2
Flags: MW
HStem: -22 61<189 245.5 189 270.5> 194 61<219.5 235> 277 58 620 58<227 295.5 218 302>
VStem: 42 82<412.5 455.5> 124 82 371 86<370 414.5>
LayerCount: 2
Fore
SplineSet
457 335 m 0x78
 457 117 336 -22 205 -22 c 0
 143 -22 106 -1 72 24 c 1
 103 77 l 1
 139 47 172 39 206 39 c 0xf6
 285 39 362 116 373 277 c 1
 330 223 266 194 204 194 c 0
 108 194 42 306 42 434 c 0
 42 477 44 543 107 611 c 0
 142 648 183 678 253 678 c 0
 338 678 457 615 457 335 c 0x78
371 411 m 0
 371 418 371 428 370 435 c 0
 368 484 351 620 253 620 c 0
 201 620 173 592 153 563 c 0
 125 519 124 478 124 434 c 0
 124 391 125 354 147 315 c 0
 168 278 196 255 243 255 c 0
 322 255 371 329 371 411 c 0
EndSplineSet
Validated: 1
Substitution2: "'pnum' Proportional Numbers lookup 6 subtable" nine.prop
Substitution2: "'onum' Oldstyle Figures lookup 4 subtable" nine.oldstyle
AlternateSubs2: "'aalt' Access All Alternates lookup 1 subtable" nine.oldstyle nine.prop
EndChar

StartChar: colon
Encoding: 58 58 27
Width: 278
GlyphClass: 2
Flags: MW
HStem: 0 83<97 180 97 180> 361 83<97 180 97 180>
VStem: 97 83<0 83 361 444>
LayerCount: 2
Fore
SplineSet
180 361 m 1
 97 361 l 1
 97 444 l 1
 180 444 l 1
 180 361 l 1
180 0 m 1
 97 0 l 1
 97 83 l 1
 180 83 l 1
 180 0 l 1
EndSplineSet
Validated: 1
EndChar

StartChar: semicolon
Encoding: 59 59 28
Width: 278
GlyphClass: 2
Flags: MW
HStem: -125 21G<97 138 97 97> 0 83<97 122 97 180> 361 83<97 180 97 180>
VStem: 97 83<1 1 1 83 1 83 361 444>
LayerCount: 2
Fore
SplineSet
180 361 m 1
 97 361 l 1
 97 444 l 1
 180 444 l 1
 180 361 l 1
180 1 m 1
 138 -125 l 1
 97 -125 l 1
 122 0 l 1
 97 0 l 1
 97 83 l 1
 180 83 l 1
 180 1 l 1
EndSplineSet
Validated: 1
EndChar

StartChar: less
Encoding: 60 60 29
Width: 778
GlyphClass: 2
Flags: MW
VStem: 83 611<-25.5 256>
LayerCount: 2
Fore
SplineSet
694 -20 m 0
 694 -31 685 -40 674 -40 c 0
 671 -40 669 -40 656 -33 c 2
 102 228 l 2
 91 233 83 238 83 250 c 0
 83 262 91 267 102 272 c 2
 656 533 l 2
 669 540 671 540 674 540 c 0
 685 540 694 531 694 520 c 0
 694 509 687 504 675 498 c 2
 150 250 l 1
 675 2 l 2
 687 -4 694 -9 694 -20 c 0
EndSplineSet
Validated: 1
EndChar

StartChar: equal
Encoding: 61 61 30
Width: 778
GlyphClass: 2
Flags: MW
HStem: 130 40<82 687 90 687 687 688> 330 40<89 90 90 687>
VStem: 56 665<140 160 340 360>
LayerCount: 2
Fore
SplineSet
721 350 m 0
 721 330 702 330 687 330 c 2
 90 330 l 2
 75 330 56 330 56 350 c 0
 56 370 75 370 89 370 c 2
 688 370 l 2
 702 370 721 370 721 350 c 0
721 150 m 0
 721 130 702 130 688 130 c 2
 89 130 l 2
 75 130 56 130 56 150 c 0
 56 170 75 170 90 170 c 2
 687 170 l 2
 702 170 721 170 721 150 c 0
EndSplineSet
Validated: 1
EndChar

StartChar: greater
Encoding: 62 62 31
Width: 778
GlyphClass: 2
Flags: MW
VStem: 83 611<-25.5 256 244 525.5>
LayerCount: 2
Fore
SplineSet
694 250 m 0
 694 238 686 233 675 228 c 2
 121 -33 l 2
 108 -40 106 -40 103 -40 c 0
 92 -40 83 -31 83 -20 c 0
 83 -11 88 -5 102 2 c 2
 627 250 l 1
 102 498 l 2
 88 505 83 511 83 520 c 0
 83 531 92 540 103 540 c 0
 106 540 108 540 121 533 c 2
 675 272 l 2
 686 267 694 262 694 250 c 0
EndSplineSet
Validated: 1
EndChar

StartChar: question
Encoding: 63 63 32
Width: 472
GlyphClass: 2
Flags: MW
HStem: 0 83<180 263 180 263> 175 21G<188 255 188 188> 644 61<193.5 247.5>
VStem: 188 67<175 207 207 228.5> 224 78 337 78<528.5 584 514 593.5>
LayerCount: 2
Fore
SplineSet
415 550 m 0x2c
 415 478 377 446 358 430 c 0
 289 372 255 298 255 229 c 2
 255 175 l 1
 188 175 l 1
 188 207 l 2xd4
 188 250 188 378 302 475 c 0
 315 487 337 506 337 551 c 0
 337 636 271 644 224 644 c 0
 152 644 103 611 79 589 c 1
 56 652 l 1
 109 688 163 705 224 705 c 0
 375 705 415 618 415 550 c 0x2c
263 0 m 1
 180 0 l 1
 180 83 l 1
 263 83 l 1
 263 0 l 1
EndSplineSet
Validated: 1
EndChar

StartChar: at
Encoding: 64 64 33
Width: 667
GlyphClass: 2
Flags: MW
HStem: -11 61<317.5 406 317.5 443> 120 61<395.5 454.5 395.5 459> 513 61<395.5 440 376 454.5> 644 61<321.5 407.5>
VStem: 56 75<265.5 434.5 265.5 448.5> 240 75<299.5 394 299.5 412> 535 75<300 394.5>
LayerCount: 2
Fore
SplineSet
610 85 m 1
 576 47 498 -11 388 -11 c 0
 209 -11 56 145 56 347 c 0
 56 550 212 705 387 705 c 0
 609 705 610 450 610 362 c 0
 610 177 493 120 425 120 c 0
 327 120 240 217 240 347 c 0
 240 477 327 574 425 574 c 0
 455 574 485 564 509 549 c 1
 482 625 429 644 386 644 c 0
 257 644 131 522 131 347 c 0
 131 184 244 50 391 50 c 0
 421 50 474 54 537 81 c 0
 545 85 547 85 562 85 c 2
 610 85 l 1
535 347 m 0
 535 442 484 513 425 513 c 0
 366 513 315 441 315 347 c 0
 315 252 366 181 425 181 c 0
 484 181 535 253 535 347 c 0
EndSplineSet
Validated: 1
EndChar

StartChar: A
Encoding: 65 65 34
Width: 667
GlyphClass: 2
Flags: MW
HStem: 0 21G<28 102 28 28 546 638 546 546> 204 56<200 448 200 470 179 448> 674 20G<289 377 377 377>
VStem: 28 610<0 0>
LayerCount: 2
Fore
SplineSet
638 0 m 1
 546 0 l 1
 470 204 l 1
 179 204 l 1
 102 0 l 1
 28 0 l 1
 289 694 l 1
 377 694 l 1
 638 0 l 1
448 260 m 1
 357 517 l 2
 334 583 327 608 325 622 c 1
 324 622 l 1
 317 585 286 500 265 441 c 0
 214 298 251 403 200 260 c 1
 448 260 l 1
EndSplineSet
Validated: 1
Position2: "'cpsp' Capital Spacing lookup 0 subtable" dx=7 dy=0 dh=14 dv=0
EndChar

StartChar: B
Encoding: 66 66 35
Width: 667
GlyphClass: 2
Flags: MW
HStem: 0 56<180 333 333 361> 330 61<180 296 296 325 180 296> 638 56<180 306 180 180>
VStem: 97 83<56 330 391 638> 334 83 505 78<489 552> 529 81<151.5 229>
LayerCount: 2
Fore
SplineSet
610 188 m 0xbc
 610 90 505 0 361 0 c 2
 97 0 l 1
 97 694 l 1
 334 694 l 2
 476 694 583 612 583 520 c 0
 583 444 508 386 417 363 c 1
 523 346 610 275 610 188 c 0xbc
505 519 m 0
 505 585 417 638 306 638 c 2
 180 638 l 1
 180 391 l 1
 296 391 l 2
 434 391 505 459 505 519 c 0
529 189 m 0
 529 269 431 330 325 330 c 2
 180 330 l 1
 180 56 l 1
 333 56 l 2
 441 56 529 114 529 189 c 0
EndSplineSet
Validated: 1
Position2: "'cpsp' Capital Spacing lookup 0 subtable" dx=7 dy=0 dh=14 dv=0
EndChar

StartChar: C
Encoding: 67 67 36
Width: 639
GlyphClass: 2
Flags: MW
HStem: -11 64<355.5 405 355.5 405.5> 642 64<355.5 403>
VStem: 66 89<309.5 384.5 309.5 393.5>
LayerCount: 2
Fore
SplineSet
587 45 m 1
 557 27 526 9 492 0 c 0
 458 -10 423 -11 388 -11 c 0
 300 -11 219 29 160 94 c 0
 98 163 66 254 66 347 c 0
 66 440 98 531 160 601 c 0
 219 666 300 706 388 706 c 0
 420 706 452 704 483 698 c 0
 515 692 546 682 576 670 c 1
 562 588 l 1
 536 606 508 621 478 630 c 0
 449 639 418 642 388 642 c 0
 323 642 264 607 223 556 c 0
 177 497 155 422 155 347 c 0
 155 272 177 198 223 139 c 0
 264 88 323 53 388 53 c 0
 422 53 457 54 489 65 c 0
 523 75 552 94 581 114 c 1
 587 45 l 1
EndSplineSet
Validated: 1
Position2: "'cpsp' Capital Spacing lookup 0 subtable" dx=7 dy=0 dh=14 dv=0
EndChar

StartChar: D
Encoding: 68 68 37
Width: 722
GlyphClass: 2
Flags: MW
HStem: 0 56<182 335 335 359> 638 56<182 335 182 182>
VStem: 96 86<56 638 56 694 56 694> 579 86<256 429>
LayerCount: 2
Fore
SplineSet
665 341 m 0
 665 152 529 0 359 0 c 2
 96 0 l 1
 96 694 l 1
 358 694 l 2
 530 694 665 535 665 341 c 0
579 341 m 0
 579 517 475 638 335 638 c 2
 182 638 l 1
 182 56 l 1
 335 56 l 2
 475 56 579 171 579 341 c 0
EndSplineSet
Validated: 1
Position2: "'cpsp' Capital Spacing lookup 0 subtable" dx=7 dy=0 dh=14 dv=0
EndChar

StartChar: E
Encoding: 69 69 38
Width: 597
GlyphClass: 2
Flags: MW
HStem: 0 70<183 392 392 398 183 554> 329 61<183 513 183 513> 626 65<351 357 357 540>
VStem: 94 89<70 329 390 627>
LayerCount: 2
Fore
SplineSet
554 0 m 1
 94 0 l 1
 94 691 l 1
 540 691 l 1
 540 626 l 1
 357 626 l 2
 345 626 333 627 321 627 c 2
 183 627 l 1
 183 390 l 1
 513 390 l 1
 513 329 l 1
 183 329 l 1
 183 70 l 1
 392 70 l 2
 404 70 416 71 428 71 c 2
 554 71 l 1
 554 0 l 1
EndSplineSet
Validated: 1
Position2: "'cpsp' Capital Spacing lookup 0 subtable" dx=7 dy=0 dh=14 dv=0
EndChar

StartChar: F
Encoding: 70 70 39
Width: 569
GlyphClass: 2
Flags: MW
HStem: 0 21G<94 183 94 94> 315 61<183 485 183 485> 626 68
VStem: 94 89<0 315 376 627>
LayerCount: 2
Fore
SplineSet
526 626 m 1
 350 626 l 2
 338 626 326 627 314 627 c 2
 183 627 l 1
 183 376 l 1
 485 376 l 1
 485 315 l 1
 183 315 l 1
 183 0 l 1
 94 0 l 1
 94 691 l 1
 526 691 l 1
 526 626 l 1
EndSplineSet
Validated: 1
Position2: "'cpsp' Capital Spacing lookup 0 subtable" dx=7 dy=0 dh=14 dv=0
EndChar

StartChar: G
Encoding: 71 71 40
Width: 667
GlyphClass: 2
Flags: MW
HStem: -11 64<355.5 410.5 355.5 424.5> 239 61<388 520 388 598> 642 64<355.5 405>
VStem: 66 89<309.5 384.5 309.5 393.5> 520 78<74 239 239 239>
LayerCount: 2
Fore
SplineSet
598 38 m 1
 533 6 461 -11 388 -11 c 0
 301 -11 219 29 160 94 c 0
 98 163 66 254 66 347 c 0
 66 440 98 531 160 601 c 0
 219 666 301 706 388 706 c 0
 423 706 458 703 492 695 c 0
 526 686 559 673 590 656 c 1
 575 574 l 1
 549 596 520 615 487 626 c 0
 455 638 422 642 388 642 c 0
 323 642 264 607 223 556 c 0
 177 497 155 422 155 347 c 0
 155 272 177 198 223 139 c 0
 264 88 323 53 388 53 c 0
 433 53 478 60 520 74 c 1
 520 239 l 1
 388 239 l 1
 388 300 l 1
 598 300 l 1
 598 38 l 1
EndSplineSet
Validated: 1
Position2: "'cpsp' Capital Spacing lookup 0 subtable" dx=7 dy=0 dh=14 dv=0
EndChar

StartChar: H
Encoding: 72 72 41
Width: 708
GlyphClass: 2
Flags: MW
HStem: 0 21G<94 183 94 94 524 613 524 524> 330 61<183 524 183 524> 674 20G<94 183 183 183 524 613 613 613>
VStem: 94 89<0 330 0 391 391 694> 524 89<0 330 330 330 391 694>
LayerCount: 2
Fore
SplineSet
613 0 m 1
 524 0 l 1
 524 330 l 1
 183 330 l 1
 183 0 l 1
 94 0 l 1
 94 694 l 1
 183 694 l 1
 183 391 l 1
 524 391 l 1
 524 694 l 1
 613 694 l 1
 613 0 l 1
EndSplineSet
Validated: 1
Position2: "'cpsp' Capital Spacing lookup 0 subtable" dx=7 dy=0 dh=14 dv=0
EndChar

StartChar: I
Encoding: 73 73 42
Width: 278
GlyphClass: 2
Flags: MW
HStem: 0 21G<94 183 94 94> 674 20G<94 183 183 183>
VStem: 94 89<0 694>
LayerCount: 2
Fore
SplineSet
183 0 m 1
 94 0 l 1
 94 694 l 1
 183 694 l 1
 183 0 l 1
EndSplineSet
Validated: 1
Position2: "'cpsp' Capital Spacing lookup 0 subtable" dx=7 dy=0 dh=14 dv=0
EndChar

StartChar: J
Encoding: 74 74 43
Width: 472
GlyphClass: 2
Flags: MW
HStem: -22 61<171 243 163 264.5> 674 20G<302 388 388 388>
VStem: 302 86<152 694>
LayerCount: 2
Fore
SplineSet
388 149 m 2
 388 36 316 -22 213 -22 c 0
 129 -22 66 8 42 20 c 1
 56 95 l 1
 90 57 142 39 184 39 c 0
 302 39 302 135 302 152 c 2
 302 694 l 1
 388 694 l 1
 388 149 l 2
EndSplineSet
Validated: 1
Position2: "'cpsp' Capital Spacing lookup 0 subtable" dx=7 dy=0 dh=14 dv=0
EndChar

StartChar: K
Encoding: 75 75 44
Width: 694
GlyphClass: 2
Flags: MW
HStem: 0 21G<96 181 96 96 559 651 559 559> 674 20G<96 181 181 181 544 637 637 637>
VStem: 96 85<0 227 323 694>
LayerCount: 2
Fore
SplineSet
651 0 m 1
 559 0 l 1
 314 364 l 1
 181 227 l 1
 181 0 l 1
 96 0 l 1
 96 694 l 1
 181 694 l 1
 181 323 l 1
 544 694 l 1
 637 694 l 1
 369 420 l 1
 651 0 l 1
EndSplineSet
Validated: 1
Position2: "'cpsp' Capital Spacing lookup 0 subtable" dx=7 dy=0 dh=14 dv=0
EndChar

StartChar: L
Encoding: 76 76 45
Width: 542
GlyphClass: 2
Flags: MW
HStem: 0 64<183 232 183 499> 674 20G<94 183 183 183>
VStem: 94 89<64 694 64 694 64 694>
LayerCount: 2
Fore
SplineSet
499 0 m 1
 94 0 l 1
 94 694 l 1
 183 694 l 1
 183 64 l 1
 232 64 l 1
 499 66 l 1
 499 0 l 1
EndSplineSet
Validated: 1
Position2: "'cpsp' Capital Spacing lookup 0 subtable" dx=7 dy=0 dh=14 dv=0
EndChar

StartChar: M
Encoding: 77 77 46
Width: 875
GlyphClass: 2
Flags: MW
HStem: 0 21G<100 178 100 100 696 774 696 696> 674 20G<100 213 213 213 660 774 774 774>
VStem: 100 78<0 620 0 694 0 694> 696 78<0 620 620 620>
LayerCount: 2
Fore
SplineSet
774 0 m 1
 696 0 l 1
 696 620 l 1
 695 621 l 1
 690 598 663 526 653 497 c 2
 605 370 l 1
 472 22 l 1
 399 22 l 1
 251 411 l 2
 225 479 185 588 179 620 c 1
 178 620 l 1
 178 0 l 1
 100 0 l 1
 100 694 l 1
 213 694 l 1
 247 607 l 1
 404 193 l 2
 419 151 431 114 436 93 c 1
 437 93 l 1
 448 140 495 264 530 355 c 2
 660 694 l 1
 774 694 l 1
 774 0 l 1
EndSplineSet
Validated: 1
Position2: "'cpsp' Capital Spacing lookup 0 subtable" dx=7 dy=0 dh=14 dv=0
EndChar

StartChar: N
Encoding: 78 78 47
Width: 708
GlyphClass: 2
Flags: MW
HStem: 0 21G<96 174 96 96 487 611 487 487> 674 20G<96 220 220 220 533 611 611 611>
VStem: 96 78<0 623 0 694 0 694> 533 78<71 694>
LayerCount: 2
Fore
SplineSet
611 0 m 1
 487 0 l 1
 242 486 l 1
 175 623 l 1
 174 623 l 1
 174 0 l 1
 96 0 l 1
 96 694 l 1
 220 694 l 1
 465 208 l 1
 532 71 l 1
 533 71 l 1
 533 694 l 1
 611 694 l 1
 611 0 l 1
EndSplineSet
Validated: 1
Position2: "'cpsp' Capital Spacing lookup 0 subtable" dx=7 dy=0 dh=14 dv=0
EndChar

StartChar: O
Encoding: 79 79 48
Width: 736
GlyphClass: 2
Flags: MW
HStem: -22 65<309 425 309 450.5> 652 64<311 425>
VStem: 56 89<264 449> 590 89<262.5 449.5>
LayerCount: 2
Fore
SplineSet
679 345 m 0
 679 135 534 -22 367 -22 c 0
 204 -22 56 133 56 345 c 0
 56 553 198 716 368 716 c 0
 534 716 679 555 679 345 c 0
590 360 m 0
 590 539 483 652 367 652 c 0
 255 652 145 543 145 360 c 0
 145 168 250 43 368 43 c 0
 482 43 590 165 590 360 c 0
EndSplineSet
Validated: 1
Position2: "'cpsp' Capital Spacing lookup 0 subtable" dx=7 dy=0 dh=14 dv=0
EndChar

StartChar: P
Encoding: 80 80 49
Width: 639
GlyphClass: 2
Flags: MW
HStem: 0 21G<96 185 96 96> 289 58<185 323 323 352 185 185> 638 56<182 323 182 182>
VStem: 96 86<347 638 347 694 347 694> 501 81<452.5 534.5>
LayerCount: 2
Fore
SplineSet
582 492 m 0
 582 380 476 289 352 289 c 2
 185 289 l 1
 185 0 l 1
 96 0 l 1
 96 694 l 1
 345 694 l 2
 483 694 582 599 582 492 c 0
501 492 m 0
 501 577 433 638 323 638 c 2
 182 638 l 1
 182 347 l 1
 323 347 l 2
 438 347 501 413 501 492 c 0
EndSplineSet
Validated: 1
Position2: "'cpsp' Capital Spacing lookup 0 subtable" dx=7 dy=0 dh=14 dv=0
EndChar

StartChar: Q
Encoding: 81 81 50
Width: 736
GlyphClass: 2
Flags: MW
HStem: -125 21G<549 652 549 549> -22 64<309 375> 652 64<309 427>
VStem: 56 86<252 438.5 252 449> 463 86 593 86<312.5 437.5>
LayerCount: 2
Fore
SplineSet
679 345 m 0
 679 240 642 118 533 33 c 1
 652 -125 l 1
 549 -125 l 1
 463 -4 l 1
 420 -21 383 -22 367 -22 c 0
 204 -22 56 133 56 345 c 0
 56 553 198 716 368 716 c 0
 534 716 679 555 679 345 c 0
593 345 m 0
 593 530 487 652 367 652 c 0
 251 652 142 532 142 345 c 0
 142 159 250 42 368 42 c 0
 397 42 424 51 424 51 c 1
 323 194 l 1
 412 194 l 1
 491 89 l 1
 581 171 593 280 593 345 c 0
EndSplineSet
Validated: 1
Position2: "'cpsp' Capital Spacing lookup 0 subtable" dx=7 dy=0 dh=14 dv=0
EndChar

StartChar: R
Encoding: 82 82 51
Width: 646
GlyphClass: 2
Flags: MW
HStem: 0 21G<96 182 96 96 528 617 528 528> 317 61<182 326 326 340 182 326> 638 56<182 326 182 182>
VStem: 96 86<0 317 0 378 378 638> 508 81<472.5 543.5>
LayerCount: 2
Fore
SplineSet
617 0 m 1
 528 0 l 1
 340 317 l 1
 182 317 l 1
 182 0 l 1
 96 0 l 1
 96 694 l 1
 337 694 l 2
 480 694 589 607 589 508 c 0
 589 427 522 356 419 326 c 1
 617 0 l 1
508 508 m 0
 508 579 442 638 326 638 c 2
 182 638 l 1
 182 378 l 1
 326 378 l 2
 444 378 508 437 508 508 c 0
EndSplineSet
Validated: 1
Position2: "'cpsp' Capital Spacing lookup 0 subtable" dx=7 dy=0 dh=14 dv=0
EndChar

StartChar: S
Encoding: 83 83 52
Width: 556
GlyphClass: 2
Flags: MW
HStem: -22 69<253.5 319.5> 326 66 650 66<235 318.5 212.5 323>
VStem: 56 79<509 560.5 509 568.5> 420 79<146 200.5>
LayerCount: 2
Fore
SplineSet
499 189 m 0
 499 79 407 -22 275 -22 c 0
 212 -22 132 -8 44 47 c 1
 59 128 l 1
 143 57 233 47 274 47 c 0
 365 47 420 113 420 179 c 0
 420 222 398 255 378 272 c 0
 350 297 340 300 255 321 c 0
 196 335 152 347 110 392 c 0
 70 434 56 476 56 519 c 0
 56 618 143 716 282 716 c 0
 355 716 410 699 465 666 c 1
 450 586 l 1
 413 617 365 650 281 650 c 0
 189 650 135 590 135 531 c 0
 135 487 163 458 170 452 c 0
 200 426 216 422 274 408 c 0
 366 385 399 376 446 326 c 0
 468 302 499 254 499 189 c 0
EndSplineSet
Validated: 1
Position2: "'cpsp' Capital Spacing lookup 0 subtable" dx=7 dy=0 dh=14 dv=0
EndChar

StartChar: T
Encoding: 84 84 53
Width: 681
GlyphClass: 2
Flags: MW
HStem: 0 21G<296 385 296 296> 623 65<36 170 36 644 504 510 510 644>
VStem: 296 89<0 624 0 624> 385 89<0 624>
LayerCount: 2
Fore
SplineSet
644 623 m 1xe0
 510 623 l 2
 498 623 486 624 474 624 c 2x50
 385 624 l 1
 385 0 l 1
 296 0 l 1
 296 624 l 1
 206 624 l 2
 194 624 182 623 170 623 c 2
 36 623 l 1
 36 688 l 1
 644 688 l 1
 644 623 l 1xe0
EndSplineSet
Validated: 1
Position2: "'cpsp' Capital Spacing lookup 0 subtable" dx=7 dy=0 dh=14 dv=0
EndChar

StartChar: U
Encoding: 85 85 54
Width: 688
GlyphClass: 2
Flags: MW
HStem: -22 56<306 389 306 413> 674 20G<94 183 183 183 515 593 593 593>
VStem: 94 89<233 694> 515 78<232 233 233 694>
LayerCount: 2
Fore
SplineSet
593 233 m 2
 593 88 480 -22 346 -22 c 0
 211 -22 94 87 94 233 c 2
 94 694 l 1
 183 694 l 1
 183 232 l 2
 183 97 265 34 347 34 c 0
 431 34 515 100 515 232 c 2
 515 694 l 1
 593 694 l 1
 593 233 l 2
EndSplineSet
Validated: 1
Position2: "'cpsp' Capital Spacing lookup 0 subtable" dx=7 dy=0 dh=14 dv=0
EndChar

StartChar: V
Encoding: 86 86 55
Width: 667
GlyphClass: 2
Flags: MW
HStem: 0 21G<287 379 287 287> 674 20G<14 107 107 107 574 652 652 652>
VStem: 14 638<694 694>
LayerCount: 2
Fore
SplineSet
652 694 m 1
 379 0 l 1
 287 0 l 1
 14 694 l 1
 107 694 l 1
 280 246 l 2
 289 222 332 112 340 72 c 1
 341 72 l 1
 350 118 425 311 441 352 c 2
 574 694 l 1
 652 694 l 1
EndSplineSet
Validated: 1
Position2: "'cpsp' Capital Spacing lookup 0 subtable" dx=7 dy=0 dh=14 dv=0
EndChar

StartChar: W
Encoding: 87 87 56
Width: 944
GlyphClass: 2
Flags: MW
HStem: 0 21G<217 298 217 217 639 726 639 639> 674 20G<14 100 100 100 435 516 516 516 857 929 929 929>
VStem: 14 915<694 694>
LayerCount: 2
Fore
SplineSet
929 694 m 1
 726 0 l 1
 639 0 l 1
 524 401 l 2
 497 496 473 591 469 621 c 1
 468 621 l 1
 462 569 419 420 398 347 c 2
 298 0 l 1
 217 0 l 1
 14 694 l 1
 100 694 l 1
 181 412 l 1
 228 245 l 2
 236 212 263 114 267 74 c 1
 268 74 l 1
 273 130 323 305 345 382 c 2
 435 694 l 1
 516 694 l 1
 614 353 l 2
 680 125 686 72 686 72 c 1
 687 72 l 1
 692 123 740 291 766 380 c 2
 857 694 l 1
 929 694 l 1
EndSplineSet
Validated: 1
Position2: "'cpsp' Capital Spacing lookup 0 subtable" dx=7 dy=0 dh=14 dv=0
EndChar

StartChar: X
Encoding: 88 88 57
Width: 667
GlyphClass: 2
Flags: MW
HStem: 0 21G<14 110 14 14 548 652 548 548> 674 20G<28 132 132 132 514 610 610 610>
VStem: 14 638<0 0>
LayerCount: 2
Fore
SplineSet
652 0 m 1
 548 0 l 1
 326 306 l 1
 110 0 l 1
 14 0 l 1
 283 366 l 1
 28 694 l 1
 132 694 l 1
 326 433 l 1
 514 694 l 1
 610 694 l 1
 369 366 l 1
 652 0 l 1
EndSplineSet
Validated: 1
Position2: "'cpsp' Capital Spacing lookup 0 subtable" dx=7 dy=0 dh=14 dv=0
EndChar

StartChar: Y
Encoding: 89 89 58
Width: 667
GlyphClass: 2
Flags: MW
HStem: 0 21G<290 376 290 290> 674 20G<3 108 108 108 575 663 663 663>
VStem: 290 86<0 277 0 278 0 278>
LayerCount: 2
Fore
SplineSet
663 694 m 1
 376 277 l 1
 376 0 l 1
 290 0 l 1
 290 278 l 1
 3 694 l 1
 108 694 l 1
 306 404 l 2
 323 380 323 378 342 347 c 1
 403 442 l 2
 410 453 415 461 420 468 c 2
 575 694 l 1
 663 694 l 1
EndSplineSet
Validated: 1
Position2: "'cpsp' Capital Spacing lookup 0 subtable" dx=7 dy=0 dh=14 dv=0
EndChar

StartChar: Z
Encoding: 90 90 59
Width: 611
GlyphClass: 2
Flags: MW
HStem: 0 66<464 560 464 560> 632 62<69 269 69 554>
VStem: 56 504<0 43 43 43>
LayerCount: 2
Fore
SplineSet
560 0 m 1
 56 0 l 1
 56 43 l 1
 441 633 l 1
 305 633 l 2
 293 633 281 632 269 632 c 2
 69 632 l 1
 69 694 l 1
 554 694 l 1
 554 653 l 1
 169 64 l 1
 201 64 l 1
 464 66 l 1
 560 66 l 1
 560 0 l 1
EndSplineSet
Validated: 1
Position2: "'cpsp' Capital Spacing lookup 0 subtable" dx=7 dy=0 dh=14 dv=0
EndChar

StartChar: bracketleft
Encoding: 91 91 60
Width: 289
GlyphClass: 2
Flags: MW
HStem: -250 61<174 266 174 266> 689 61<174 266 174 174>
VStem: 102 72<-189 689 -189 750 -189 750>
LayerCount: 2
Fore
SplineSet
266 -250 m 1
 102 -250 l 1
 102 750 l 1
 266 750 l 1
 266 689 l 1
 174 689 l 1
 174 -189 l 1
 266 -189 l 1
 266 -250 l 1
EndSplineSet
Validated: 1
EndChar

StartChar: backslash
Encoding: 92 92 61
Width: 500
GlyphClass: 2
Flags: MW
HStem: -250 21G<416 428.5> 730 20G<56 83>
VStem: 56 387
LayerCount: 2
Fore
SplineSet
443 -230 m 2
 443 -241 434 -250 423 -250 c 0
 409 -250 405 -239 401 -228 c 2
 61 712 l 2
 56 725 56 730 56 730 c 2
 56 741 65 750 76 750 c 0
 90 750 94 739 98 728 c 2
 438 -212 l 2
 443 -225 443 -230 443 -230 c 2
EndSplineSet
Validated: 1
EndChar

StartChar: bracketright
Encoding: 93 93 62
Width: 289
GlyphClass: 2
Flags: MW
HStem: -250 61<22 114 22 186 22 114> 689 61<22 114 22 186>
VStem: 114 72<-189 689 689 689>
LayerCount: 2
Fore
SplineSet
186 -250 m 1
 22 -250 l 1
 22 -189 l 1
 114 -189 l 1
 114 689 l 1
 22 689 l 1
 22 750 l 1
 186 750 l 1
 186 -250 l 1
EndSplineSet
Validated: 1
EndChar

StartChar: asciicircum
Encoding: 94 94 63
Width: 556
GlyphClass: 2
Flags: MW
HStem: 562 21G<6 6 549 549> 685 59<277 278>
VStem: -5 566<584 584>
LayerCount: 2
Fore
SplineSet
561 584 m 1
 549 562 l 1
 277 685 l 1
 6 562 l 1
 -5 584 l 1
 278 744 l 1
 561 584 l 1
EndSplineSet
Validated: 1
EndChar

StartChar: underscore
Encoding: 95 95 64
Width: 667
GlyphClass: 2
Flags: MW
HStem: -164 78<0 667 0 667>
LayerCount: 2
Fore
SplineSet
667 -164 m 1
 0 -164 l 1
 0 -86 l 1
 667 -86 l 1
 667 -164 l 1
EndSplineSet
Validated: 1
EndChar

StartChar: grave
Encoding: 96 96 65
Width: 500
GlyphClass: 2
Flags: MW
HStem: 527 21G<259 320 259 259> 674 20G<109 187 187 187>
LayerCount: 2
Fore
SplineSet
320 527 m 1
 259 527 l 1
 109 694 l 1
 187 694 l 1
 320 527 l 1
EndSplineSet
Validated: 1
EndChar

StartChar: a
Encoding: 97 97 66
Width: 481
GlyphClass: 2
Flags: MW
HStem: -11 61<124.5 224.5> 194 53 402 59<219.5 267.5>
VStem: 54 72<94 150 94 157> 331 78<132 194 194 194 245 288 288 289>
LayerCount: 2
Fore
SplineSet
409 0 m 1
 334 0 l 1
 334 36 l 1
 276 -9 182 -11 168 -11 c 0
 81 -11 54 70 54 113 c 0
 54 201 181 243 331 245 c 1
 331 288 l 2
 331 362 291 402 244 402 c 0
 195 402 145 389 93 352 c 1
 87 418 l 1
 134 445 179 461 244 461 c 0
 336 461 409 391 409 289 c 2
 409 0 l 1
331 132 m 2
 331 194 l 1
 288 192 126 185 126 115 c 0
 126 73 171 50 219 50 c 0
 230 50 268 51 297 69 c 0
 331 88 331 113 331 132 c 2
EndSplineSet
Validated: 1
Substitution2: "'smcp' Lowercase to Small Capitals lookup 16 subtable" A.sc
EndChar

StartChar: b
Encoding: 98 98 67
Width: 517
GlyphClass: 2
Flags: MW
HStem: -11 61<260.5 287.5 237.5 344> 335 61<157 160> 394 61<239.5 365> 674 20G<82 157 157 157>
VStem: 82 75<396 694 396 694 396 694> 82 78<0 46 0 114 114 335> 402 78<158 285 156 287>
LayerCount: 2
Fore
SplineSet
480 223 m 0x20
 480 89 394 -11 294 -11 c 0
 227 -11 184 24 160 46 c 1
 160 0 l 1xc6
 82 0 l 1
 82 694 l 1
 157 694 l 1
 157 396 l 1x58
 217 445 279 455 318 455 c 0
 412 455 480 347 480 223 c 0x20
402 223 m 0
 402 351 326 394 267 394 c 0x22
 212 394 176 359 160 335 c 1
 160 114 l 1
 185 68 218 50 257 50 c 0
 318 50 402 93 402 223 c 0
EndSplineSet
Validated: 1
Substitution2: "'smcp' Lowercase to Small Capitals lookup 16 subtable" B.sc
EndChar

StartChar: c
Encoding: 99 99 68
Width: 444
GlyphClass: 2
Flags: MW
HStem: -11 64<211.5 278.5 211.5 279> 397 64<204 283>
VStem: 36 78<174 262 174 281>
LayerCount: 2
Fore
SplineSet
415 40 m 1
 361 3 306 -11 252 -11 c 0
 127 -11 36 98 36 222 c 0
 36 340 117 461 256 461 c 0
 317 461 351 452 410 418 c 1
 398 353 l 1
 343 389 309 397 257 397 c 0
 151 397 114 301 114 223 c 0
 114 125 170 53 253 53 c 0
 304 53 358 67 409 107 c 1
 415 40 l 1
EndSplineSet
Validated: 1
Substitution2: "'smcp' Lowercase to Small Capitals lookup 16 subtable" C.sc
EndChar

StartChar: d
Encoding: 100 100 69
Width: 517
GlyphClass: 2
Flags: MW
HStem: -11 61<218 224.5> 78 61 339 61<356 359> 394 61<229.5 231.5 163.5 281.5> 674 20G<359 434 434 434>
VStem: 36 78<159 286.5> 356 78<0 52 52 52 139 339 339 339> 359 75<400 694>
LayerCount: 2
Fore
SplineSet
434 0 m 1x29
 356 0 l 1
 356 52 l 1
 300 -2 241 -11 208 -11 c 0
 113 -11 36 91 36 222 c 0
 36 351 114 455 213 455 c 0xd6
 250 455 306 444 359 400 c 1
 359 694 l 1
 434 694 l 1
 434 0 l 1x29
356 139 m 2
 356 339 l 1x62
 334 371 304 394 259 394 c 0
 200 394 114 353 114 221 c 0
 114 97 187 50 249 50 c 0
 275 50 300 58 323 78 c 0
 355 107 356 125 356 139 c 2
EndSplineSet
Validated: 1
Substitution2: "'smcp' Lowercase to Small Capitals lookup 16 subtable" D.sc
EndChar

StartChar: e
Encoding: 101 101 70
Width: 444
GlyphClass: 2
Flags: MW
HStem: -11 61<212 263.5 212 282.5> 219 55<110 357 110 414 105 357> 400 61<207.5 254 180.5 262>
VStem: 35 75<274 274 274 290.5> 357 57<219 274>
LayerCount: 2
Fore
SplineSet
414 219 m 1
 105 219 l 1
 108 121 172 50 252 50 c 0
 275 50 341 54 404 106 c 1
 410 41 l 1
 371 13 314 -11 251 -11 c 0
 131 -11 35 94 35 226 c 0
 35 355 125 461 236 461 c 0
 272 461 333 450 374 388 c 0
 413 328 414 253 414 219 c 1
357 274 m 1
 344 366 288 400 236 400 c 0
 179 400 126 350 110 274 c 1
 357 274 l 1
EndSplineSet
Validated: 1
Substitution2: "'smcp' Lowercase to Small Capitals lookup 16 subtable" E.sc
EndChar

StartChar: f
Encoding: 102 102 71
Width: 306
GlyphClass: 2
Flags: MW
HStem: 0 21G<101 176 101 101> 386 58<27 101 27 101 176 286 176 176> 644 61<253 276>
VStem: 101 75<0 386 0 386 0 534>
LayerCount: 2
Fore
SplineSet
347 627 m 1
 313 642 286 644 266 644 c 0
 240 644 173 637 173 563 c 2
 173 444 l 1
 286 444 l 1
 286 386 l 1
 176 386 l 1
 176 0 l 1
 101 0 l 1
 101 386 l 1
 27 386 l 1
 27 444 l 1
 101 444 l 1
 101 534 l 2
 101 634 173 705 267 705 c 0
 304 705 335 697 347 694 c 1
 347 627 l 1
EndSplineSet
Validated: 1
Substitution2: "'smcp' Lowercase to Small Capitals lookup 16 subtable" F.sc
EndChar

StartChar: g
Encoding: 103 103 72
Width: 500
GlyphClass: 2
Flags: MW
HStem: -206 57<209.5 291 209.5 310.5> -3 72<137 265 177 265 265 266> 129 57<202.5 242.5 202.5 266> 398 57<202.5 241 178 242.5>
VStem: 28 70<-94.5 -69.5 -94.5 -58> 62 70<273.5 333.5 250.5 337.5> 311 70<253 316 247.5 331> 401 70<-94 -37.5>
LayerCount: 2
Fore
SplineSet
485 392 m 1x14
 485 392 444 395 426 395 c 0
 402 395 374 391 352 391 c 1
 348 392 l 1
 359 377 381 340 381 292 c 0
 381 203 311 129 221 129 c 0
 184 129 151 143 130 158 c 1
 123 149 119 133 119 122 c 0
 119 69 164 69 177 69 c 2
 265 69 l 2
 304 69 471 69 471 -70 c 0
 471 -147 372 -206 249 -206 c 0
 127 -206 28 -146 28 -71 c 0xeb
 28 -45 40 1 92 32 c 1
 75 53 66 82 66 108 c 0
 66 113 66 152 95 193 c 1
 75 219 62 255 62 292 c 0
 62 383 135 455 221 455 c 0
 261 455 295 440 316 423 c 1
 346 436 404 455 474 455 c 1
 485 392 l 1x14
311 292 m 0
 311 370 264 398 221 398 c 0
 184 398 132 375 132 292 c 0x96
 132 209 184 186 221 186 c 0
 264 186 311 214 311 292 c 0
401 -72 m 0
 401 -3 288 -3 266 -3 c 2
 176 -3 l 2
 98 -3 98 -68 98 -71 c 0x49
 98 -118 169 -149 250 -149 c 0
 332 -149 401 -116 401 -72 c 0
EndSplineSet
Validated: 1
Substitution2: "'smcp' Lowercase to Small Capitals lookup 16 subtable" G.sc
EndChar

StartChar: h
Encoding: 104 104 73
Width: 517
GlyphClass: 2
Flags: MW
HStem: 0 21G<81 159 81 81 357 435 357 357> 394 61<267 308> 674 20G<81 156 156 156>
VStem: 81 75<383 694 383 694 383 694> 81 78<0 245 0 694> 357 78<0 291 291 298>
LayerCount: 2
Fore
SplineSet
435 0 m 1xf4
 357 0 l 1
 357 291 l 2
 357 323 356 394 260 394 c 0
 184 394 159 311 159 245 c 2
 159 0 l 1xcc
 81 0 l 1
 81 694 l 1
 156 694 l 1
 156 383 l 1
 188 424 236 455 298 455 c 0
 420 455 435 364 435 298 c 2
 435 0 l 1xf4
EndSplineSet
Validated: 1
Substitution2: "'smcp' Lowercase to Small Capitals lookup 16 subtable" H.sc
EndChar

StartChar: i
Encoding: 105 105 74
Width: 239
GlyphClass: 2
Flags: MW
HStem: 0 21G<81 156 81 81> 424 20G<81 156 156 156> 566 89<75 164 75 164>
VStem: 75 89<566 655> 81 75<0 444>
LayerCount: 2
Fore
SplineSet
156 0 m 1xc8
 81 0 l 1
 81 444 l 1
 156 444 l 1
 156 0 l 1xc8
164 566 m 1x30
 75 566 l 1
 75 655 l 1
 164 655 l 1
 164 566 l 1x30
EndSplineSet
Validated: 1
Substitution2: "'smcp' Lowercase to Small Capitals lookup 16 subtable" I.sc
EndChar

StartChar: j
Encoding: 106 106 75
Width: 267
GlyphClass: 2
Flags: MW
HStem: -205 64<20 90.5> 424 20G<109 184 184 184> 566 89<95 184 95 184>
VStem: 34 75 95 89<566 655> 109 75<-69 -59 -59 444>
LayerCount: 2
Fore
SplineSet
184 -59 m 2x44
 184 -153 122 -205 59 -205 c 0
 33 -205 -13 -199 -61 -171 c 1
 -40 -110 l 1
 -18 -131 6 -141 34 -141 c 0x90
 52 -141 109 -136 109 -69 c 2
 109 444 l 1
 184 444 l 1
 184 -59 l 2x44
184 566 m 1x24
 95 566 l 1
 95 655 l 1x28
 184 655 l 1
 184 566 l 1x24
EndSplineSet
Validated: 1
Substitution2: "'smcp' Lowercase to Small Capitals lookup 16 subtable" J.sc
EndChar

StartChar: k
Encoding: 107 107 76
Width: 489
GlyphClass: 2
Flags: MW
HStem: 0 21G<84 153 84 84 389 471 389 389> 674 20G<84 156 156 156>
VStem: 84 72<236 694 236 694 236 694>
LayerCount: 2
Fore
SplineSet
471 0 m 1
 389 0 l 1
 233 224 l 1
 153 141 l 1
 153 0 l 1
 84 0 l 1
 84 694 l 1
 156 694 l 1
 156 236 l 1
 359 444 l 1
 449 444 l 1
 281 272 l 1
 471 0 l 1
EndSplineSet
Validated: 1
Substitution2: "'smcp' Lowercase to Small Capitals lookup 16 subtable" K.sc
EndChar

StartChar: l
Encoding: 108 108 77
Width: 239
GlyphClass: 2
Flags: MW
HStem: 0 21G<81 156 81 81> 674 20G<81 156 156 156>
VStem: 81 75<0 694>
LayerCount: 2
Fore
SplineSet
156 0 m 1
 81 0 l 1
 81 694 l 1
 156 694 l 1
 156 0 l 1
EndSplineSet
Validated: 1
Substitution2: "'smcp' Lowercase to Small Capitals lookup 16 subtable" L.sc
EndChar

StartChar: m
Encoding: 109 109 78
Width: 794
GlyphClass: 2
Flags: MW
HStem: 0 21G<81 159 81 81 358 436 358 358 635 713 635 635> 394 61<263 306.5 546 583.5>
VStem: 81 78<0 245 0 450> 358 78<0 245 0 291 0 310> 635 78<0 291 291 298>
CounterMasks: 1 38
LayerCount: 2
Fore
SplineSet
713 0 m 1
 635 0 l 1
 635 291 l 2
 635 329 630 394 537 394 c 0
 463 394 436 313 436 245 c 2
 436 0 l 1
 358 0 l 1
 358 291 l 2
 358 329 353 394 260 394 c 0
 186 394 159 313 159 245 c 2
 159 0 l 1
 81 0 l 1
 81 450 l 1
 153 450 l 1
 153 378 l 1
 180 414 227 455 299 455 c 0
 331 455 401 449 427 373 c 1
 464 427 516 455 576 455 c 0
 697 455 713 365 713 298 c 2
 713 0 l 1
EndSplineSet
Validated: 1
Substitution2: "'smcp' Lowercase to Small Capitals lookup 16 subtable" M.sc
EndChar

StartChar: n
Encoding: 110 110 79
Width: 517
GlyphClass: 2
Flags: MW
HStem: 0 21G<81 159 81 81 357 435 357 357> 394 61<253 308>
VStem: 81 78<0 245 0 450> 357 78<0 291 291 298>
LayerCount: 2
Fore
SplineSet
435 0 m 1
 357 0 l 1
 357 291 l 2
 357 323 356 394 260 394 c 0
 184 394 159 311 159 245 c 2
 159 0 l 1
 81 0 l 1
 81 450 l 1
 153 450 l 1
 153 379 l 1
 159 387 208 455 298 455 c 0
 420 455 435 364 435 298 c 2
 435 0 l 1
EndSplineSet
Validated: 1
Substitution2: "'smcp' Lowercase to Small Capitals lookup 16 subtable" N.sc
EndChar

StartChar: o
Encoding: 111 111 80
Width: 500
GlyphClass: 2
Flags: MW
HStem: -11 64<214.5 286 214.5 309> 400 61<216.5 284>
VStem: 30 78<169.5 285.5> 391 78<171 287 155 289>
LayerCount: 2
Fore
SplineSet
469 220 m 0
 469 90 369 -11 249 -11 c 0
 132 -11 30 88 30 220 c 0
 30 351 127 461 250 461 c 0
 369 461 469 354 469 220 c 0
391 230 m 0
 391 348 319 400 249 400 c 0
 184 400 108 351 108 230 c 0
 108 109 180 53 249 53 c 0
 323 53 391 112 391 230 c 0
EndSplineSet
Validated: 1
Substitution2: "'smcp' Lowercase to Small Capitals lookup 16 subtable" O.sc
EndChar

StartChar: p
Encoding: 112 112 81
Width: 517
GlyphClass: 2
Flags: MW
HStem: -194 21G<82 160 82 82> -11 61<265 293.5 236.5 343.5> 391 64<291 304>
VStem: 82 78<-194 46 123 132 132 333> 402 78<171.5 269>
LayerCount: 2
Fore
SplineSet
480 223 m 0
 480 87 392 -11 295 -11 c 0
 235 -11 191 17 160 46 c 1
 160 -194 l 1
 82 -194 l 1
 82 444 l 1
 157 444 l 1
 157 395 l 1
 203 434 261 455 321 455 c 0
 417 455 480 343 480 223 c 0
402 223 m 0
 402 315 342 391 266 391 c 0
 223 391 184 368 160 333 c 1
 160 132 l 2
 160 114 160 112 170 97 c 0
 190 70 217 50 256 50 c 0
 331 50 402 120 402 223 c 0
EndSplineSet
Validated: 1
Substitution2: "'smcp' Lowercase to Small Capitals lookup 16 subtable" P.sc
EndChar

StartChar: q
Encoding: 113 113 82
Width: 517
GlyphClass: 2
Flags: MW
HStem: -194 21G<356 434 356 356> -11 61<212 233> 391 64<222.5 261 172 293.5>
VStem: 36 78<174.5 272 174.5 288.5> 356 78<-194 50 50 50>
LayerCount: 2
Fore
SplineSet
434 -194 m 1
 356 -194 l 1
 356 50 l 1
 314 12 261 -11 205 -11 c 0
 109 -11 36 94 36 221 c 0
 36 356 122 455 222 455 c 0
 300 455 349 400 359 387 c 1
 359 455 l 1
 434 455 l 1
 434 -194 l 1
359 140 m 2
 359 280 l 2
 359 320 328 391 259 391 c 0
 186 391 114 323 114 221 c 0
 114 128 174 50 250 50 c 0
 286 50 323 67 349 107 c 0
 359 120 359 122 359 140 c 2
EndSplineSet
Validated: 1
Substitution2: "'smcp' Lowercase to Small Capitals lookup 16 subtable" Q.sc
EndChar

StartChar: r
Encoding: 114 114 83
Width: 342
GlyphClass: 2
Flags: MW
HStem: 0 21G<82 157 82 82> 435 20G<327 327>
VStem: 82 75<0 214 0 450>
LayerCount: 2
Fore
SplineSet
327 388 m 1
 229 386 157 314 157 214 c 2
 157 0 l 1
 82 0 l 1
 82 450 l 1
 152 450 l 1
 152 359 l 1
 183 405 238 454 327 455 c 1
 327 388 l 1
EndSplineSet
Validated: 1
Substitution2: "'smcp' Lowercase to Small Capitals lookup 16 subtable" R.sc
EndChar

StartChar: s
Encoding: 115 115 84
Width: 383
GlyphClass: 2
Flags: MW
HStem: -11 63<155.5 202.5 154.5 205> 402 59<186.5 205>
VStem: 33 71<315.5 371 315.5 395.5> 289 71<106.5 147.5>
LayerCount: 2
Fore
SplineSet
360 128 m 0
 360 85 343 45 312 21 c 0
 269 -11 214 -11 196 -11 c 0
 115 -11 60 17 28 33 c 1
 40 101 l 1
 58 89 114 52 195 52 c 0
 210 52 289 52 289 121 c 0
 289 174 231 186 195 193 c 0
 140 204 118 208 87 230 c 0
 62 249 33 281 33 330 c 0
 33 461 174 461 199 461 c 0
 250 461 291 453 343 429 c 1
 331 364 l 1
 274 398 221 402 189 402 c 0
 176 402 104 402 104 340 c 0
 104 291 150 281 205 270 c 0
 255 261 282 255 321 220 c 0
 323 217 360 183 360 128 c 0
EndSplineSet
Validated: 1
Substitution2: "'smcp' Lowercase to Small Capitals lookup 16 subtable" S.sc
EndChar

StartChar: t
Encoding: 116 116 85
Width: 361
GlyphClass: 2
Flags: MW
HStem: -11 64<207.5 221> 386 58<19 103 19 106 175 316> 551 20G<106 175 175 175>
VStem: 103 72<119 136 136 386>
LayerCount: 2
Fore
SplineSet
332 27 m 1
 307 14 256 -11 186 -11 c 0
 117 -11 103 59 103 119 c 2
 103 386 l 1
 19 386 l 1
 19 444 l 1
 106 444 l 1
 106 571 l 1
 175 571 l 1
 175 444 l 1
 316 444 l 1
 316 386 l 1
 175 386 l 1
 175 136 l 2
 175 83 189 53 226 53 c 0
 258 53 290 65 316 86 c 1
 332 27 l 1
EndSplineSet
Validated: 1
Substitution2: "'smcp' Lowercase to Small Capitals lookup 16 subtable" T.sc
EndChar

StartChar: u
Encoding: 117 117 86
Width: 517
GlyphClass: 2
Flags: MW
HStem: -11 55<201.5 213.5> 424 20G<81 159 159 159 357 435 435 435>
VStem: 81 78<109 113 113 444> 159 78 357 78<154 444>
LayerCount: 2
Fore
SplineSet
435 0 m 1xd8
 360 0 l 1
 360 48 l 1
 311 5 240 -11 187 -11 c 0
 104 -11 81 37 81 109 c 2
 81 444 l 1xe8
 159 444 l 1
 159 113 l 2
 159 70 166 44 237 44 c 0
 301 44 357 79 357 154 c 2
 357 444 l 1
 435 444 l 1
 435 0 l 1xd8
EndSplineSet
Validated: 1
Substitution2: "'smcp' Lowercase to Small Capitals lookup 16 subtable" U.sc
EndChar

StartChar: v
Encoding: 118 118 87
Width: 461
GlyphClass: 2
Flags: MW
HStem: 0 21G<186 274 186 186> 424 20G<14 92 92 92 371 446 446 446>
VStem: 14 432<444 444>
LayerCount: 2
Fore
SplineSet
446 444 m 1
 274 0 l 1
 186 0 l 1
 14 444 l 1
 92 444 l 1
 189 185 l 2
 199 158 225 89 231 53 c 1
 232 53 l 1
 240 100 271 181 292 236 c 2
 371 444 l 1
 446 444 l 1
EndSplineSet
Validated: 1
Substitution2: "'smcp' Lowercase to Small Capitals lookup 16 subtable" V.sc
EndChar

StartChar: w
Encoding: 119 119 88
Width: 683
GlyphClass: 2
Flags: MW
HStem: 0 21G<151 230 151 151 443 531 443 443> 424 20G<14 90 90 90 303 373 373 373 595 668 668 668>
VStem: 14 654<444 444>
LayerCount: 2
Fore
SplineSet
668 444 m 1
 531 0 l 1
 443 0 l 1
 370 248 l 2
 357 291 340 360 338 388 c 1
 337 388 l 1
 334 351 306 252 292 206 c 2
 230 0 l 1
 151 0 l 1
 14 444 l 1
 90 444 l 1
 142 271 l 2
 158 216 191 103 196 55 c 1
 197 55 l 1
 201 106 235 221 246 256 c 2
 303 444 l 1
 373 444 l 1
 438 231 l 2
 455 174 480 85 484 54 c 1
 485 54 l 1
 490 97 520 196 531 232 c 2
 595 444 l 1
 668 444 l 1
EndSplineSet
Validated: 1
Substitution2: "'smcp' Lowercase to Small Capitals lookup 16 subtable" W.sc
EndChar

StartChar: x
Encoding: 120 120 89
Width: 461
GlyphClass: 2
Flags: MW
HStem: 0 21G<0 82 0 0 377 460 377 377> 424 20G<6 89 89 89 361 443 443 443>
VStem: 0 460<0 0>
LayerCount: 2
Fore
SplineSet
460 0 m 1
 377 0 l 1
 227 188 l 1
 82 0 l 1
 0 0 l 1
 194 229 l 1
 6 444 l 1
 89 444 l 1
 227 279 l 1
 361 444 l 1
 443 444 l 1
 260 229 l 1
 460 0 l 1
EndSplineSet
Validated: 1
Substitution2: "'smcp' Lowercase to Small Capitals lookup 16 subtable" X.sc
EndChar

StartChar: y
Encoding: 121 121 90
Width: 461
GlyphClass: 2
Flags: MW
HStem: -205 57<107 122 107 132.5> -148 57 0 57<208 238> 424 20G<14 93 93 93 371 446 446 446>
LayerCount: 2
Fore
SplineSet
446 444 m 1xb0
 228 -91 l 2x50
 187 -193 150 -205 115 -205 c 0
 93 -205 65 -202 43 -197 c 1
 37 -132 l 1
 67 -144 99 -148 115 -148 c 0
 129 -148 146 -148 172 -90 c 2
 208 0 l 1
 14 444 l 1
 93 444 l 1
 147 319 l 2
 151 310 231 124 237 57 c 1
 238 57 l 1
 239 80 241 126 371 444 c 1
 446 444 l 1xb0
EndSplineSet
Validated: 1
Substitution2: "'smcp' Lowercase to Small Capitals lookup 16 subtable" Y.sc
EndChar

StartChar: z
Encoding: 122 122 91
Width: 435
GlyphClass: 2
Flags: MW
HStem: 0 62<255 402 255 402> 385 59<42 181 42 400>
VStem: 28 374<0 41 41 41>
LayerCount: 2
Fore
SplineSet
402 0 m 1
 28 0 l 1
 28 41 l 1
 295 386 l 1
 217 386 l 2
 205 386 193 385 181 385 c 2
 42 385 l 1
 42 444 l 1
 400 444 l 1
 400 405 l 1
 134 61 l 1
 219 61 l 2
 231 61 243 62 255 62 c 2
 402 62 l 1
 402 0 l 1
EndSplineSet
Validated: 1
Substitution2: "'smcp' Lowercase to Small Capitals lookup 16 subtable" Z.sc
EndChar

StartChar: braceleft
Encoding: 123 123 92
Width: 500
GlyphClass: 2
Flags: MW
HStem: -250 21G<391.5 413> 237 24 730 20G<357 413>
VStem: 216 67<-83 56 444 563>
LayerCount: 2
Fore
SplineSet
427 -239 m 0
 427 -250 419 -250 407 -250 c 0
 376 -250 311 -242 268 -212 c 0
 216 -175 216 -141 216 -83 c 2
 216 115 l 2
 216 215 131 236 88 239 c 0
 78 240 72 240 72 250 c 0
 72 260 79 261 86 261 c 0
 149 265 176 292 190 306 c 0
 216 334 216 350 216 444 c 2
 216 627 l 2
 218 699 307 750 407 750 c 0
 419 750 427 750 427 739 c 0
 427 733 423 729 418 728 c 0
 348 724 325 700 307 682 c 0
 283 657 283 635 283 563 c 2
 283 383 l 2
 283 355 283 284 165 250 c 1
 204 239 268 213 281 147 c 0
 283 137 283 86 283 56 c 2
 283 -94 l 2
 283 -129 283 -131 286 -142 c 0
 295 -178 332 -223 411 -228 c 0
 421 -229 427 -229 427 -239 c 0
EndSplineSet
Validated: 1
EndChar

StartChar: bar
Encoding: 124 124 93
Width: 278
GlyphClass: 2
Flags: MW
HStem: -250 21G<129 149> 730 20G<129 149>
VStem: 119 40<-217 717>
LayerCount: 2
Fore
SplineSet
159 -217 m 2
 159 -231 159 -250 139 -250 c 0
 119 -250 119 -231 119 -217 c 2
 119 717 l 2
 119 731 119 750 139 750 c 0
 159 750 159 731 159 717 c 2
 159 -217 l 2
EndSplineSet
Validated: 1
EndChar

StartChar: braceright
Encoding: 125 125 94
Width: 500
GlyphClass: 2
Flags: MW
HStem: -250 21G<87 142> 239 21G<413 416.5> 730 20G<87 108>
VStem: 216 67<-63 56 -127 117 -127 131 444 583>
LayerCount: 2
Fore
SplineSet
427 250 m 0
 427 240 420 239 413 239 c 0
 350 235 323 208 309 194 c 0
 283 166 283 150 283 56 c 2
 283 -127 l 2
 281 -199 192 -250 92 -250 c 0
 82 -250 72 -250 72 -239 c 0
 72 -233 76 -229 81 -228 c 0
 151 -224 174 -200 192 -182 c 0
 216 -157 216 -135 216 -63 c 2
 216 117 l 2
 216 145 216 216 334 250 c 1
 295 261 231 287 218 353 c 0
 216 363 216 414 216 444 c 2
 216 594 l 2
 216 629 216 631 213 642 c 0
 204 678 167 723 88 728 c 0
 78 729 72 729 72 739 c 0
 72 750 82 750 92 750 c 0
 124 750 188 741 231 712 c 0
 283 675 283 641 283 583 c 2
 283 385 l 2
 283 285 368 264 411 261 c 0
 421 260 427 260 427 250 c 0
EndSplineSet
Validated: 1
EndChar

StartChar: asciitilde
Encoding: 126 126 95
Width: 556
GlyphClass: 2
Flags: MW
HStem: 193 43<368 383.5> 211 43 246 43 264 43<171.5 187>
LayerCount: 2
Fore
SplineSet
555 290 m 1x90
 501 246 l 2x20
 484 232 464 221 444 211 c 0x40
 422 201 396 193 371 193 c 0
 331 193 300 210 271 227 c 0
 236 247 207 264 167 264 c 0
 116 264 63 234 14 193 c 1x90
 0 210 l 1
 54 254 l 2x40
 71 268 91 279 111 289 c 0x20
 133 299 159 307 184 307 c 0
 224 307 255 290 284 273 c 0
 319 253 348 236 388 236 c 0
 439 236 492 266 541 307 c 1
 555 290 l 1x90
EndSplineSet
Validated: 1
EndChar

StartChar: exclamdown
Encoding: 161 161 97
Width: 319
GlyphClass: 3
Flags: MW
HStem: -194 21G<118 201 118 118> 305 20G<126 193 193 193> 417 83<118 201 118 201>
VStem: 118 83<-194 -194 417 500>
LayerCount: 2
Fore
SplineSet
201 417 m 1
 118 417 l 1
 118 500 l 1
 201 500 l 1
 201 417 l 1
201 -194 m 1
 118 -194 l 1
 126 282 l 1
 126 325 l 1
 193 325 l 1
 193 282 l 1
 201 -194 l 1
EndSplineSet
Validated: 1
Ligature2: "'dlig' Discretionary Ligatures lookup 13 subtable" exclam quoteleft
Ligature2: "'dlig' Discretionary Ligatures lookup 13 subtable" exclam grave
EndChar

StartChar: cent
Encoding: 162 162 98
Width: 444
GlyphClass: 2
Flags: MW
HStem: -10 64<276 276> 397 64<276 276>
VStem: 36 78<182.5 256 182.5 274.5> 212 64<-64 -10 -64 -7 -64 -7 59 390 390 390 461 508>
LayerCount: 2
Fore
SplineSet
415 40 m 1
 369 9 323 -6 276 -10 c 1
 276 -64 l 1
 212 -64 l 1
 212 -7 l 1
 108 13 36 112 36 222 c 0
 36 327 100 435 212 457 c 1
 212 508 l 1
 276 508 l 1
 276 461 l 1
 325 459 358 448 410 418 c 1
 398 353 l 1
 350 384 318 394 276 397 c 1
 276 54 l 1
 320 58 366 73 409 107 c 1
 415 40 l 1
212 59 m 1
 212 390 l 1
 140 368 114 289 114 223 c 0
 114 142 152 79 212 59 c 1
EndSplineSet
Validated: 1
Substitution2: "'onum' Oldstyle Figures lookup 4 subtable" cent.oldstyle
Substitution2: "'aalt' Access All Alternates lookup 0 subtable" cent.oldstyle
EndChar

StartChar: sterling
Encoding: 163 163 99
Width: 667
GlyphClass: 2
Flags: MW
HStem: -22 64 -8 64 315 64<67 166 67 187 67 166 266 266 266 400>
LayerCount: 2
Fore
SplineSet
600 148 m 1x60
 600 59 544 -22 461 -22 c 0x80
 425 -22 390 -15 355 -6 c 0
 275 14 174 39 136 -8 c 1x40
 75 42 l 1x80
 128 105 179 174 189 256 c 0
 192 275 191 296 187 315 c 1
 67 315 l 1
 67 379 l 1
 166 379 l 1
 146 436 l 1
 117 567 209 694 339 694 c 0
 448 694 533 602 533 491 c 1
 455 491 l 1
 455 559 405 616 339 616 c 0
 259 616 203 536 222 453 c 0
 227 427 239 404 249 379 c 1
 400 379 l 1
 400 315 l 1
 266 315 l 1
 269 292 269 269 266 246 c 0
 260 193 239 143 211 97 c 1
 266 97 320 83 374 70 c 0
 402 62 431 56 461 56 c 0
 502 56 522 102 522 148 c 1
 600 148 l 1x60
EndSplineSet
Validated: 33
EndChar

StartChar: currency
Encoding: 164 164 100
Width: 778
GlyphClass: 2
Flags: MW
HStem: 54 40<365.5 412.5> 406 40<365.5 412.5 365.5 432> 446 40
VStem: 153 40 193 40<226.5 273.5> 544 40<226.5 273.5 226.5 293> 584 40
LayerCount: 2
Fore
SplineSet
624 15 m 0xb2
 610 1 597 14 587 24 c 2
 512 98 l 1
 479 71 436 54 389 54 c 0
 342 54 299 71 265 98 c 1
 191 24 l 2
 181 14 168 1 153 15 c 0
 139 29 153 42 163 52 c 2
 237 127 l 1
 210 160 193 203 193 250 c 0
 193 297 210 340 237 374 c 1
 163 448 l 2
 153 458 139 472 153 486 c 0
 168 500 181 487 191 477 c 2
 266 402 l 1
 299 429 342 446 389 446 c 0
 436 446 478 429 512 402 c 1
 586 476 l 2
 596 486 609 499 624 485 c 0
 638 471 624 458 614 448 c 2
 540 374 l 1
 568 340 584 297 584 250 c 0
 584 203 568 160 541 127 c 1
 615 52 l 2
 625 42 638 29 624 15 c 0xb2
544 250 m 0
 544 336 475 406 389 406 c 0
 303 406 233 336 233 250 c 0x4c
 233 164 303 94 389 94 c 0
 475 94 544 164 544 250 c 0
EndSplineSet
Validated: 33
EndChar

StartChar: yen
Encoding: 165 165 101
Width: 667
GlyphClass: 2
Flags: MW
HStem: 0 21G<290 376 290 290> 149 64<111 290 111 290 376 556> 213 64<376 556> 298 64<111 232 111 276 111 232 435 556> 404 64 674 20G<3 108 108 108 575 663 663 663>
VStem: 290 86<0 149 0 149 213 277>
LayerCount: 2
Fore
SplineSet
663 694 m 1xde
 435 362 l 1
 556 362 l 1
 556 298 l 1
 390 298 l 1
 376 277 l 1x36
 376 213 l 1
 556 213 l 1
 556 149 l 1
 376 149 l 1
 376 0 l 1
 290 0 l 1
 290 149 l 1
 111 149 l 1
 111 213 l 1
 290 213 l 1
 290 278 l 1
 276 298 l 1
 111 298 l 1
 111 362 l 1
 232 362 l 1
 3 694 l 1
 108 694 l 1
 306 404 l 2
 320 385 322 380 333 362 c 1
 352 362 l 1
 403 442 l 2
 410 453 415 461 420 468 c 2
 575 694 l 1
 663 694 l 1xde
EndSplineSet
Validated: 1
EndChar

StartChar: brokenbar
Encoding: 166 166 102
Width: 278
GlyphClass: 2
Flags: MW
HStem: -250 21G<129 149> 730 20G<129 149>
VStem: 119 40<-217 157 343 717>
LayerCount: 2
Fore
SplineSet
159 343 m 2
 159 328 153 311 139 311 c 0
 125 311 119 328 119 343 c 2
 119 717 l 2
 119 731 119 750 139 750 c 0
 159 750 159 731 159 717 c 2
 159 343 l 2
159 -217 m 2
 159 -231 159 -250 139 -250 c 0
 119 -250 119 -231 119 -217 c 2
 119 157 l 2
 119 172 125 189 139 189 c 0
 153 189 159 172 159 157 c 2
 159 -217 l 2
EndSplineSet
Validated: 1
EndChar

StartChar: section
Encoding: 167 167 103
Width: 528
GlyphClass: 2
Flags: MW
HStem: -212 70<234 294.5 234 315> 642 70<233.5 294>
VStem: 34 78<273.5 318.5 273.5 328.5> 75 78<-70 -41 -70 -41 518.5 565.5> 375 78<-65.5 -18.5 -86 -10 541 570> 416 78<181 226.5>
LayerCount: 2
Fore
SplineSet
494 200 m 0x58
 494 142 465 90 420 57 c 1
 441 30 453 -1 453 -36 c 0
 453 -136 366 -212 264 -212 c 0
 163 -212 75 -139 75 -41 c 1
 153 -41 l 1x98
 153 -99 204 -142 264 -142 c 0
 325 -142 375 -95 375 -36 c 0
 375 16 326 48 278 71 c 2
 177 117 l 2
 100 153 34 217 34 300 c 0xa8
 34 357 63 409 108 442 c 1
 87 469 75 501 75 536 c 0
 75 636 162 712 264 712 c 0
 365 712 453 639 453 541 c 1
 375 541 l 1
 375 599 324 642 264 642 c 0
 203 642 153 595 153 536 c 0
 153 484 202 452 250 429 c 2
 351 383 l 2
 428 347 494 283 494 200 c 0x58
416 200 m 0
 416 253 368 289 319 312 c 2
 218 358 l 2
 198 368 178 379 160 392 c 1
 130 373 112 337 112 300 c 0
 112 247 160 211 209 188 c 2
 310 142 l 2
 330 132 350 120 368 107 c 1
 398 127 416 162 416 200 c 0
EndSplineSet
Validated: 1
EndChar

StartChar: dieresis
Encoding: 168 168 104
Width: 500
GlyphClass: 2
Flags: MW
HStem: 571 80<137 217 137 217 137 283 283 363>
VStem: 137 80<571 651> 283 80<571 651>
LayerCount: 2
Fore
SplineSet
217 571 m 1
 137 571 l 1
 137 651 l 1
 217 651 l 1
 217 571 l 1
363 571 m 1
 283 571 l 1
 283 651 l 1
 363 651 l 1
 363 571 l 1
EndSplineSet
Validated: 1
EndChar

StartChar: copyright
Encoding: 169 169 105
Width: 694
GlyphClass: 2
Flags: MW
HStem: 0 38<261.5 432.5 261.5 443> 656 38<261.5 432.5>
VStem: 0 38<261.5 432.5 261.5 443> 656 38<261.5 432.5>
LayerCount: 2
Fore
SplineSet
694 347 m 0
 694 155 539 0 347 0 c 0
 155 0 0 155 0 347 c 0
 0 539 155 694 347 694 c 0
 539 694 694 539 694 347 c 0
656 347 m 0
 656 518 518 656 347 656 c 0
 176 656 38 518 38 347 c 0
 38 176 176 38 347 38 c 0
 518 38 656 176 656 347 c 0
491 150 m 1
 447 123 422 115 370 115 c 0
 247 115 163 226 163 347 c 0
 163 471 248 580 369 580 c 0
 411 580 445 573 484 557 c 1
 475 506 l 1
 448 523 418 539 368 539 c 0
 281 539 219 450 219 347 c 0
 219 251 275 155 370 155 c 0
 414 155 442 162 487 194 c 1
 491 150 l 1
EndSplineSet
Validated: 1
EndChar

StartChar: ordfeminine
Encoding: 170 170 106
Width: 372
GlyphClass: 2
Flags: W
LayerCount: 2
Fore
SplineSet
335 394 m 1
 272 394 l 1
 272 419 l 1
 223 387 144 386 133 386 c 0
 60 386 37 443 37 473 c 0
 37 534 144 564 270 565 c 1
 270 595 l 2
 270 647 236 675 197 675 c 0
 155 675 113 666 70 640 c 1
 65 686 l 1
 104 705 142 716 197 716 c 0
 274 716 335 667 335 596 c 2
 335 394 l 1
303 334 m 0
 303 321 289 311 271 311 c 2
 101 311 l 2
 83 311 69 321 69 334 c 0
 69 346 83 356 101 356 c 2
 271 356 l 2
 289 356 303 346 303 334 c 0
270 486 m 2
 270 530 l 1
 234 528 97 523 97 474 c 0
 97 445 135 429 176 429 c 0
 185 429 217 429 241 442 c 0
 270 455 270 473 270 486 c 2
EndSplineSet
Validated: 1
EndChar

StartChar: guillemotleft
Encoding: 171 171 107
Width: 500
GlyphClass: 2
Flags: MW
HStem: 0 21G<216 277 216 216 383 383 383 444> 419 20G<216 277 277 277 383 444 444 444>
LayerCount: 2
Fore
SplineSet
277 0 m 1
 216 0 l 1
 111 219 l 1
 216 439 l 1
 277 439 l 1
 189 219 l 1
 277 0 l 1
444 0 m 1
 383 0 l 1
 278 219 l 1
 383 439 l 1
 444 439 l 1
 356 219 l 1
 444 0 l 1
EndSplineSet
Validated: 1
Substitution2: "'cv04' Character Variants 04 in Greek lookup 24-1" guillemotleft.gr
Substitution2: "'cv03' Character Variants 03 in Cyrillic lookup 23-1" guillemotleft.cyr
EndChar

StartChar: logicalnot
Encoding: 172 172 108
Width: 778
GlyphClass: 2
Flags: MW
HStem: 330 40<70.5 701 76 681>
VStem: 681 40<150 330 330 330>
LayerCount: 2
Fore
SplineSet
721 150 m 2
 721 139 712 130 701 130 c 0
 690 130 681 139 681 150 c 2
 681 330 l 1
 76 330 l 2
 65 330 56 339 56 350 c 0
 56 361 65 370 76 370 c 2
 701 370 l 2
 712 370 721 361 721 350 c 2
 721 150 l 2
EndSplineSet
Validated: 1
EndChar

StartChar: uni00AD
Encoding: 173 173 109
Width: 333
GlyphClass: 2
Flags: MW
HStem: 193 58<11 276 11 276>
VStem: 11 265<193 251 193 251>
LayerCount: 2
Fore
SplineSet
276 193 m 1
 11 193 l 1
 11 251 l 1
 276 251 l 1
 276 193 l 1
EndSplineSet
Validated: 1
EndChar

StartChar: registered
Encoding: 174 174 110
Width: 694
GlyphClass: 2
Flags: MW
HStem: 0 38<261.5 432.5 261.5 443> 656 38<261.5 432.5>
VStem: 0 38<261.5 432.5 261.5 443> 656 38<261.5 432.5>
LayerCount: 2
Fore
SplineSet
694 347 m 0
 694 155 539 0 347 0 c 0
 155 0 0 155 0 347 c 0
 0 539 155 694 347 694 c 0
 539 694 694 539 694 347 c 0
656 347 m 0
 656 518 518 656 347 656 c 0
 176 656 38 518 38 347 c 0
 38 176 176 38 347 38 c 0
 518 38 656 176 656 347 c 0
526 129 m 1
 470 129 l 1
 352 328 l 1
 252 328 l 1
 252 129 l 1
 198 129 l 1
 198 566 l 1
 350 566 l 2
 440 566 509 511 509 449 c 0
 509 398 466 353 402 334 c 1
 526 129 l 1
458 449 m 0
 458 493 416 530 343 530 c 2
 252 530 l 1
 252 367 l 1
 343 367 l 2
 417 367 458 404 458 449 c 0
EndSplineSet
Validated: 1
EndChar

StartChar: macron
Encoding: 175 175 111
Width: 500
GlyphClass: 2
Flags: MW
HStem: 579 64<70 431 70 431>
LayerCount: 2
Fore
SplineSet
431 579 m 1
 70 579 l 1
 70 643 l 1
 431 643 l 1
 431 579 l 1
EndSplineSet
Validated: 1
EndChar

StartChar: degree
Encoding: 176 176 112
Width: 375
GlyphClass: 2
Flags: MW
HStem: 417 40<160.5 215 160.5 226> 654 40<160.5 215>
VStem: 49 40<528.5 583 528.5 594> 286 40<528.5 583>
LayerCount: 2
Fore
SplineSet
326 556 m 0
 326 479 264 417 188 417 c 0
 111 417 49 479 49 556 c 0
 49 632 111 694 188 694 c 0
 264 694 326 632 326 556 c 0
286 556 m 0
 286 610 242 654 188 654 c 0
 133 654 89 610 89 556 c 0
 89 501 133 457 188 457 c 0
 242 457 286 501 286 556 c 0
EndSplineSet
Validated: 1
EndChar

StartChar: plusminus
Encoding: 177 177 113
Width: 778
GlyphClass: 2
Flags: MW
HStem: 0 40<82 369 89 369 409 688> 313 40<82 369 89 369 409 688> 646 20G<379 399>
VStem: 369 40<40 313 40 313 353 633>
LayerCount: 2
Fore
SplineSet
721 20 m 0
 721 0 702 0 688 0 c 2
 89 0 l 2
 75 0 56 0 56 20 c 0
 56 40 75 40 89 40 c 2
 369 40 l 1
 369 313 l 1
 89 313 l 2
 75 313 56 313 56 333 c 0
 56 353 75 353 89 353 c 2
 369 353 l 1
 369 633 l 2
 369 647 369 666 389 666 c 0
 409 666 409 647 409 633 c 2
 409 353 l 1
 688 353 l 2
 702 353 721 353 721 333 c 0
 721 313 702 313 688 313 c 2
 409 313 l 1
 409 40 l 1
 688 40 l 2
 702 40 721 40 721 20 c 0
EndSplineSet
Validated: 1
EndChar

StartChar: two.superior
Encoding: 178 178 114
Width: 354
GlyphClass: 2
Flags: W
LayerCount: 2
Fore
SplineSet
323 310 m 1
 36 310 l 1
 36 348 l 1
 125 422 l 1
 181 465 l 2
 223 501 264 535 264 586 c 0
 264 633 228 678 160 678 c 0
 94 678 74 631 60 585 c 1
 53 593 45 601 44 602 c 0
 42 604 39 608 30 618 c 1
 48 670 88 716 170 716 c 0
 265 716 323 656 323 587 c 0
 323 536 284 505 252 478 c 0
 238 467 202 442 188 431 c 0
 166 413 111 368 88 352 c 1
 166 352 l 1
 192 352 l 1
 323 352 l 1
 323 310 l 1
EndSplineSet
Validated: 1
EndChar

StartChar: three.superior
Encoding: 179 179 115
Width: 359
GlyphClass: 2
Flags: W
LayerCount: 2
Fore
SplineSet
329 418 m 0
 329 355 266 296 178 296 c 0
 149 296 83 302 30 359 c 1
 38 395 l 1
 70 354 127 333 176 333 c 0
 232 333 265 371 265 418 c 0
 265 448 249 504 171 504 c 2
 120 504 l 1
 120 541 l 1
 177 545 l 1
 221 553 251 589 251 625 c 0
 251 664 215 682 178 682 c 0
 134 682 87 660 66 618 c 1
 40 650 l 1
 71 692 123 716 179 716 c 0
 250 716 310 677 310 625 c 0
 310 587 284 547 230 522 c 1
 279 509 329 472 329 418 c 0
EndSplineSet
Validated: 1
EndChar

StartChar: acute
Encoding: 180 180 116
Width: 500
GlyphClass: 2
Flags: MW
HStem: 527 21G<180 241 180 180> 674 20G<313 391 391 391>
LayerCount: 2
Fore
SplineSet
391 694 m 1
 241 527 l 1
 180 527 l 1
 313 694 l 1
 391 694 l 1
EndSplineSet
Validated: 1
EndChar

StartChar: uni00B5
Encoding: 181 181 117
Width: 517
GlyphClass: 2
Flags: MW
HStem: -194 21G<81 159 81 81> -11 55<200.5 213> 424 20G<81 159 159 159 357 435 435 435>
VStem: 81 78<-194 -9 93 115 115 444> 357 78<156 444>
LayerCount: 2
Fore
SplineSet
435 0 m 1
 360 0 l 1
 360 48 l 1
 311 4 239 -11 187 -11 c 0
 182 -11 169 -11 159 -9 c 1
 159 -194 l 1
 81 -194 l 1
 81 444 l 1
 159 444 l 1
 159 115 l 2
 159 71 164 44 237 44 c 0
 295 44 357 73 357 156 c 2
 357 444 l 1
 435 444 l 1
 435 0 l 1
EndSplineSet
Validated: 1
EndChar

StartChar: paragraph
Encoding: 182 182 118
Width: 611
GlyphClass: 2
Flags: MW
HStem: -194 21G<359 379 469 489> 654 40<389 459 389 389 499 549 499 499>
VStem: 349 40<-161 230 230 230> 459 40<-161 654>
LayerCount: 2
Fore
SplineSet
582 674 m 0
 582 654 563 654 549 654 c 2
 499 654 l 1
 499 -161 l 2
 499 -175 499 -194 479 -194 c 0
 459 -194 459 -175 459 -161 c 2
 459 654 l 1
 389 654 l 1
 389 -161 l 2
 389 -175 389 -194 369 -194 c 0
 349 -194 349 -175 349 -161 c 2
 349 230 l 1
 221 235 56 306 56 463 c 0
 56 589 166 694 306 694 c 2
 549 694 l 2
 563 694 582 694 582 674 c 0
EndSplineSet
Validated: 1
EndChar

StartChar: periodcentered
Encoding: 183 183 119
Width: 778
GlyphClass: 2
Flags: MW
HStem: 306 83<347 430 347 430>
VStem: 347 83<306 389>
LayerCount: 2
Fore
SplineSet
430 306 m 1
 347 306 l 1
 347 389 l 1
 430 389 l 1
 430 306 l 1
EndSplineSet
Validated: 1
EndChar

StartChar: cedilla
Encoding: 184 184 120
Width: 444
GlyphClass: 2
Flags: MW
HStem: -192 21G<145 214 145 145> -44 20G<219 280 280 280>
VStem: 145 135
LayerCount: 2
Fore
SplineSet
280 -24 m 1
 214 -192 l 1
 145 -192 l 1
 219 -24 l 1
 280 -24 l 1
EndSplineSet
Validated: 1
EndChar

StartChar: one.superior
Encoding: 185 185 121
Width: 369
GlyphClass: 2
Flags: MW
HStem: 677 39
LayerCount: 2
Fore
SplineSet
305 310 m 1
 68 310 l 1
 68 344 l 1
 158 344 l 1
 158 656 l 1
 122 644 88 643 64 642 c 1
 64 677 l 1
 99 678 158 680 201 716 c 1
 215 716 l 1
 215 344 l 1
 305 344 l 1
 305 310 l 1
EndSplineSet
Validated: 1
EndChar

StartChar: ordmasculine
Encoding: 186 186 122
Width: 419
GlyphClass: 2
Flags: W
LayerCount: 2
Fore
SplineSet
394 548 m 0
 394 457 310 386 209 386 c 0
 111 386 25 455 25 548 c 0
 25 639 107 716 210 716 c 0
 310 716 394 642 394 548 c 0
362 334 m 0
 362 321 348 311 330 311 c 2
 89 311 l 2
 72 311 57 321 57 334 c 0
 57 346 72 356 89 356 c 2
 330 356 l 2
 348 356 362 346 362 334 c 0
328 555 m 0
 328 637 268 674 209 674 c 0
 155 674 91 639 91 555 c 0
 91 470 151 431 209 431 c 0
 271 431 328 472 328 555 c 0
EndSplineSet
Validated: 1
EndChar

StartChar: guillemotright
Encoding: 187 187 123
Width: 500
GlyphClass: 2
Flags: MW
HStem: 0 21G<56 117 56 56 223 284 223 223> 419 20G<56 117 117 117 223 284 284 284>
LayerCount: 2
Fore
SplineSet
389 219 m 1
 284 0 l 1
 223 0 l 1
 311 219 l 1
 223 439 l 1
 284 439 l 1
 389 219 l 1
222 219 m 1
 117 0 l 1
 56 0 l 1
 144 219 l 1
 56 439 l 1
 117 439 l 1
 222 219 l 1
EndSplineSet
Validated: 1
Substitution2: "'cv04' Character Variants 04 in Greek lookup 24-1" guillemotright.gr
Substitution2: "'cv03' Character Variants 03 in Cyrillic lookup 23-1" guillemotright.cyr
EndChar

StartChar: onequarter
Encoding: 188 188 124
Width: 788
GlyphClass: 3
Flags: MW
HStem: 677 39
VStem: 158 57<344 656 656 656> 201 56 405 56<103 139 139 139> 595 57<0 103 0 103> 600 57
LayerCount: 2
Fore
SplineSet
305 310 m 1xc0
 68 310 l 1
 68 344 l 1
 158 344 l 1
 158 656 l 1x58
 122 644 88 643 64 642 c 1
 64 677 l 1
 99 678 158 680 201 716 c 1xa0
 215 716 l 1
 215 344 l 1
 305 344 l 1
 305 310 l 1xc0
723 103 m 1
 652 103 l 1
 652 0 l 1
 595 0 l 1
 595 103 l 1
 405 103 l 1
 405 139 l 1
 587 394 l 1
 652 394 l 1
 652 139 l 1
 723 139 l 1
 723 103 l 1
657 674 m 1
 257 20 l 1x34
 210 20 l 1
 610 674 l 1
 657 674 l 1
600 139 m 1
 600 367 l 1
 599 333 498 191 461 139 c 1
 600 139 l 1
EndSplineSet
Validated: 1
Ligature2: "'frac' Diagonal Fractions lookup 3 subtable" one fraction four
Ligature2: "'frac' Diagonal Fractions lookup 3 subtable" one slash four
EndChar

StartChar: onehalf
Encoding: 189 189 125
Width: 788
GlyphClass: 3
Flags: MW
HStem: 0 38<436 723 436 436> 368 39<529 594> 677 39
VStem: 460 65 525 63<113 121> 588 64
LayerCount: 2
Fore
SplineSet
305 310 m 1x28
 68 310 l 1
 68 344 l 1
 158 344 l 1
 158 656 l 1
 122 644 88 643 64 642 c 1
 64 677 l 1
 99 678 158 680 201 716 c 1
 215 716 l 1
 215 344 l 1
 305 344 l 1
 305 310 l 1x28
723 0 m 1
 436 0 l 1
 436 38 l 1
 525 113 l 1
 581 155 l 2
 623 191 664 226 664 277 c 0
 664 323 628 368 560 368 c 0
 495 368 474 322 460 275 c 1
 453 284 446 292 444 293 c 0
 443 295 439 298 430 308 c 1
 448 360 488 407 570 407 c 0
 665 407 723 347 723 278 c 0
 723 227 685 195 652 168 c 0xd4
 639 157 602 132 588 121 c 2
 488 42 l 1
 567 42 l 2
 575 42 584 43 592 43 c 2
 723 43 l 1
 723 0 l 1
617 674 m 1
 217 20 l 1
 170 20 l 1
 570 674 l 1
 617 674 l 1
EndSplineSet
Validated: 1
Ligature2: "'frac' Diagonal Fractions lookup 3 subtable" one fraction two
Ligature2: "'frac' Diagonal Fractions lookup 3 subtable" one slash two
EndChar

StartChar: threequarters
Encoding: 190 190 126
Width: 788
GlyphClass: 3
Flags: MW
HStem: 296 37<193.5 234.5 182 252> 504 37<150 202 150 150>
VStem: 150 57<504 545 541 545> 295 64<394.5 433> 405 56<103 139 139 139> 595 57<0 103 0 103> 600 57
LayerCount: 2
Fore
SplineSet
359 418 m 0xfc
 359 355 296 296 208 296 c 0
 179 296 113 302 60 359 c 1
 68 395 l 1
 100 354 157 333 207 333 c 0
 262 333 295 371 295 418 c 0
 295 448 279 504 202 504 c 2
 150 504 l 1
 150 541 l 1
 207 545 l 1
 251 553 281 589 281 625 c 0
 281 664 246 682 208 682 c 0
 164 682 117 660 96 618 c 1
 71 650 l 1
 101 692 153 716 209 716 c 0
 280 716 340 677 340 625 c 0
 340 587 315 547 260 522 c 1
 309 509 359 472 359 418 c 0xfc
723 103 m 1
 652 103 l 1
 652 0 l 1
 595 0 l 1
 595 103 l 1
 405 103 l 1
 405 139 l 1
 587 394 l 1
 652 394 l 1
 652 139 l 1
 723 139 l 1
 723 103 l 1
657 674 m 1
 257 20 l 1
 210 20 l 1
 610 674 l 1
 657 674 l 1
600 139 m 1x0a
 600 367 l 1
 599 333 498 191 461 139 c 1
 600 139 l 1x0a
EndSplineSet
Validated: 1
Ligature2: "'frac' Diagonal Fractions lookup 3 subtable" three fraction four
Ligature2: "'frac' Diagonal Fractions lookup 3 subtable" three slash four
EndChar

StartChar: questiondown
Encoding: 191 191 127
Width: 472
GlyphClass: 3
Flags: MW
HStem: -205 61<192.5 242 192.5 252.5> 305 20G<188 255 255 255> 417 83<180 263 180 263>
VStem: 56 78<-85 -28.5 -85 -14.5> 188 67<268 293 293 325 244.5 325>
LayerCount: 2
Fore
SplineSet
263 417 m 1
 180 417 l 1
 180 500 l 1
 263 500 l 1
 263 417 l 1
415 -152 m 1
 350 -190 282 -205 223 -205 c 0
 99 -205 56 -131 56 -50 c 0
 56 21 87 52 105 70 c 0
 173 139 188 220 188 268 c 2
 188 325 l 1
 255 325 l 1
 255 293 l 2
 255 196 229 99 164 27 c 0
 149 11 134 -5 134 -52 c 0
 134 -118 161 -144 224 -144 c 0
 260 -144 327 -136 392 -89 c 1
 415 -152 l 1
EndSplineSet
Validated: 1
Ligature2: "'dlig' Discretionary Ligatures lookup 13 subtable" question quoteleft
Ligature2: "'dlig' Discretionary Ligatures lookup 13 subtable" question grave
EndChar

StartChar: Agrave
Encoding: 192 192 128
Width: 667
GlyphClass: 2
Flags: MW
HStem: 0 21G<28 102 28 28 546 638 546 546> 204 56<200 448 200 470 179 448> 674 20G<289 377 377 377> 746 21G<339 428 339 339> 848 20G<142 253 253 253>
VStem: 28 610<0 0>
LayerCount: 2
Fore
SplineSet
638 0 m 1
 546 0 l 1
 470 204 l 1
 179 204 l 1
 102 0 l 1
 28 0 l 1
 289 694 l 1
 377 694 l 1
 638 0 l 1
448 260 m 1
 357 517 l 2
 334 583 327 608 325 622 c 1
 324 622 l 1
 317 585 286 500 265 441 c 0
 214 298 251 403 200 260 c 1
 448 260 l 1
428 746 m 1
 339 746 l 1
 142 868 l 1
 253 868 l 1
 428 746 l 1
EndSplineSet
Validated: 1
Position2: "'cpsp' Capital Spacing lookup 0 subtable" dx=7 dy=0 dh=14 dv=0
EndChar

StartChar: Aacute
Encoding: 193 193 129
Width: 667
GlyphClass: 2
Flags: MW
HStem: 0 21G<28 102 28 28 546 638 546 546> 204 56<200 448 200 470 179 448> 674 20G<289 377 377 377> 746 21G<238 327 238 238> 848 20G<413 524 524 524>
VStem: 28 610<0 0>
LayerCount: 2
Fore
SplineSet
638 0 m 1
 546 0 l 1
 470 204 l 1
 179 204 l 1
 102 0 l 1
 28 0 l 1
 289 694 l 1
 377 694 l 1
 638 0 l 1
448 260 m 1
 357 517 l 2
 334 583 327 608 325 622 c 1
 324 622 l 1
 317 585 286 500 265 441 c 0
 214 298 251 403 200 260 c 1
 448 260 l 1
524 868 m 1
 327 746 l 1
 238 746 l 1
 413 868 l 1
 524 868 l 1
EndSplineSet
Validated: 1
Position2: "'cpsp' Capital Spacing lookup 0 subtable" dx=7 dy=0 dh=14 dv=0
EndChar

StartChar: Acircumflex
Encoding: 194 194 130
Width: 667
GlyphClass: 2
Flags: MW
HStem: 0 21G<28 102 28 28 546 638 546 546> 204 56<200 448 200 470 179 448> 674 20G<289 377 377 377> 736 21G<177 236 177 177 430 489 430 430> 850 20G<303 363 363 363>
VStem: 28 610<0 0>
LayerCount: 2
Fore
SplineSet
638 0 m 1
 546 0 l 1
 470 204 l 1
 179 204 l 1
 102 0 l 1
 28 0 l 1
 289 694 l 1
 377 694 l 1
 638 0 l 1
448 260 m 1
 357 517 l 2
 334 583 327 608 325 622 c 1
 324 622 l 1
 317 585 286 500 265 441 c 0
 214 298 251 403 200 260 c 1
 448 260 l 1
489 736 m 1
 430 736 l 1
 333 833 l 1
 236 736 l 1
 177 736 l 1
 303 870 l 1
 363 870 l 1
 489 736 l 1
EndSplineSet
Validated: 1
Position2: "'cpsp' Capital Spacing lookup 0 subtable" dx=7 dy=0 dh=14 dv=0
EndChar

StartChar: Atilde
Encoding: 195 195 131
Width: 667
GlyphClass: 2
Flags: MW
HStem: 0 21G<28 102 28 28 546 638 546 546> 204 56<200 448 200 470 179 448> 674 20G<289 377 377 377> 736 61<389.5 413 388.5 425.5> 794 61<254 277.5 241.5 278.5>
VStem: 28 610<0 0>
LayerCount: 2
Fore
SplineSet
638 0 m 1xe4
 546 0 l 1
 470 204 l 1
 179 204 l 1
 102 0 l 1
 28 0 l 1
 289 694 l 1
 377 694 l 1
 638 0 l 1xe4
448 260 m 1
 357 517 l 2
 334 583 327 608 325 622 c 1
 324 622 l 1
 317 585 286 500 265 441 c 0
 214 298 251 403 200 260 c 1
 448 260 l 1
500 855 m 1x08
 498 777 449 736 402 736 c 0x10
 377 736 357 748 338 761 c 0
 311 780 290 794 267 794 c 0x08
 241 794 229 770 228 736 c 1
 167 736 l 1x10
 169 814 218 855 265 855 c 0x08
 290 855 310 843 329 830 c 0
 356 811 377 797 400 797 c 0x10
 426 797 438 821 439 855 c 1
 500 855 l 1x08
EndSplineSet
Validated: 1
Position2: "'cpsp' Capital Spacing lookup 0 subtable" dx=7 dy=0 dh=14 dv=0
EndChar

StartChar: Adieresis
Encoding: 196 196 132
Width: 667
GlyphClass: 2
Flags: MW
HStem: 0 21G<28 102 28 28 546 638 546 546> 204 56<200 448 200 470 179 448> 674 20G<289 377 377 377> 736 80<206 286 206 286 380 460>
VStem: 28 610<0 0> 206 80<736 816> 380 80<736 816>
LayerCount: 2
Fore
SplineSet
638 0 m 1xe8
 546 0 l 1
 470 204 l 1
 179 204 l 1
 102 0 l 1
 28 0 l 1
 289 694 l 1
 377 694 l 1
 638 0 l 1xe8
448 260 m 1
 357 517 l 2
 334 583 327 608 325 622 c 1
 324 622 l 1
 317 585 286 500 265 441 c 0
 214 298 251 403 200 260 c 1
 448 260 l 1
286 736 m 1x16
 206 736 l 1
 206 816 l 1
 286 816 l 1
 286 736 l 1x16
460 736 m 1
 380 736 l 1
 380 816 l 1
 460 816 l 1
 460 736 l 1
EndSplineSet
Validated: 1
Position2: "'cpsp' Capital Spacing lookup 0 subtable" dx=7 dy=0 dh=14 dv=0
EndChar

StartChar: Aring
Encoding: 197 197 133
Width: 667
GlyphClass: 2
Flags: MW
HStem: 0 21G<28 102 28 28 546 638 546 546> 204 56<200 448 200 470 179 448> 694 47<329 337.5 329 377 329 337.5 329 365.5 329 377> 815 47<328.5 337>
VStem: 28 610<0 0> 222 61<759.5 796.5 759.5 800.5> 383 61<759.5 796.5>
LayerCount: 2
Fore
SplineSet
638 0 m 1xe8
 546 0 l 1
 470 204 l 1
 179 204 l 1
 102 0 l 1
 28 0 l 1
 289 694 l 1
 377 694 l 1
 638 0 l 1xe8
448 260 m 1
 357 517 l 2
 334 583 327 608 325 622 c 1
 324 622 l 1
 317 585 286 500 265 441 c 0
 214 298 251 403 200 260 c 1
 448 260 l 1
383 778 m 0x36
 383 815 341 815 333 815 c 0
 324 815 283 815 283 778 c 0
 283 741 325 741 333 741 c 0
 342 741 383 741 383 778 c 0x36
444 777 m 0
 444 734 398 694 333 694 c 0
 271 694 222 731 222 779 c 0
 222 822 268 862 333 862 c 0
 395 862 444 825 444 777 c 0
EndSplineSet
Validated: 5
Position2: "'cpsp' Capital Spacing lookup 0 subtable" dx=7 dy=0 dh=14 dv=0
EndChar

StartChar: AE
Encoding: 198 198 134
Width: 861
GlyphClass: 2
Flags: MW
HStem: 0 70<507 677 677 683 507 818> 222 56<217 419 217 419 194 419> 330 61<507 777 507 777> 629 65<645 651 651 804>
VStem: 419 88<70 222 222 222 278 330 391 630>
LayerCount: 2
Fore
SplineSet
818 0 m 1
 419 0 l 1
 419 222 l 1
 194 222 l 1
 103 0 l 1
 28 0 l 1
 312 694 l 1
 804 694 l 1
 804 629 l 1
 651 629 l 2
 639 629 627 630 615 630 c 2
 507 630 l 1
 507 391 l 1
 777 391 l 1
 777 330 l 1
 507 330 l 1
 507 70 l 1
 677 70 l 2
 689 70 701 71 713 71 c 2
 818 71 l 1
 818 0 l 1
419 278 m 1
 419 630 l 1
 361 630 l 1
 217 278 l 1
 419 278 l 1
EndSplineSet
Validated: 1
Position2: "'cpsp' Capital Spacing lookup 0 subtable" dx=7 dy=0 dh=14 dv=0
EndChar

StartChar: Ccedilla
Encoding: 199 199 135
Width: 639
GlyphClass: 2
Flags: MW
HStem: -22 64<320.5 430.5 320.5 436.5> 652 64<323.5 427 298 432.5>
VStem: 67 89<270.5 428.5 270.5 445>
LayerCount: 2
Fore
SplineSet
588 34 m 1
 517 -9 478 -22 395 -22 c 0
 200 -22 67 154 67 347 c 0
 67 543 202 716 394 716 c 0
 460 716 514 705 577 681 c 1
 562 600 l 1
 520 627 472 652 393 652 c 0
 254 652 156 510 156 347 c 0
 156 194 245 42 396 42 c 0
 465 42 510 52 582 103 c 1
 588 34 l 1
398 -46 m 1
 332 -214 l 1
 263 -214 l 1
 337 -46 l 1
 398 -46 l 1
EndSplineSet
Validated: 1
Position2: "'cpsp' Capital Spacing lookup 0 subtable" dx=7 dy=0 dh=14 dv=0
EndChar

StartChar: Egrave
Encoding: 200 200 136
Width: 597
GlyphClass: 2
Flags: MW
HStem: 0 70<183 392 392 398 183 554> 329 61<183 513 183 513> 626 65<351 357 357 540> 746 21G<305 394 305 305> 848 20G<108 219 219 219>
VStem: 94 89<70 329 390 627>
LayerCount: 2
Fore
SplineSet
554 0 m 1
 94 0 l 1
 94 691 l 1
 540 691 l 1
 540 626 l 1
 357 626 l 2
 345 626 333 627 321 627 c 2
 183 627 l 1
 183 390 l 1
 513 390 l 1
 513 329 l 1
 183 329 l 1
 183 70 l 1
 392 70 l 2
 404 70 416 71 428 71 c 2
 554 71 l 1
 554 0 l 1
394 746 m 1
 305 746 l 1
 108 868 l 1
 219 868 l 1
 394 746 l 1
EndSplineSet
Validated: 1
Position2: "'cpsp' Capital Spacing lookup 0 subtable" dx=7 dy=0 dh=14 dv=0
EndChar

StartChar: Eacute
Encoding: 201 201 137
Width: 597
GlyphClass: 2
Flags: MW
HStem: 0 70<183 392 392 398 183 554> 329 61<183 513 183 513> 626 65<351 357 357 540> 746 21G<204 293 204 204> 848 20G<379 490 490 490>
VStem: 94 89<70 329 390 627>
LayerCount: 2
Fore
SplineSet
554 0 m 1
 94 0 l 1
 94 691 l 1
 540 691 l 1
 540 626 l 1
 357 626 l 2
 345 626 333 627 321 627 c 2
 183 627 l 1
 183 390 l 1
 513 390 l 1
 513 329 l 1
 183 329 l 1
 183 70 l 1
 392 70 l 2
 404 70 416 71 428 71 c 2
 554 71 l 1
 554 0 l 1
490 868 m 1
 293 746 l 1
 204 746 l 1
 379 868 l 1
 490 868 l 1
EndSplineSet
Validated: 1
Position2: "'cpsp' Capital Spacing lookup 0 subtable" dx=7 dy=0 dh=14 dv=0
EndChar

StartChar: Ecircumflex
Encoding: 202 202 138
Width: 597
GlyphClass: 2
Flags: MW
HStem: 0 70<183 392 392 398 183 554> 329 61<183 513 183 513> 626 65<351 357 357 540> 736 21G<143 202 143 143 396 455 396 396> 850 20G<269 329 329 329>
VStem: 94 89<70 329 390 627>
LayerCount: 2
Fore
SplineSet
554 0 m 1
 94 0 l 1
 94 691 l 1
 540 691 l 1
 540 626 l 1
 357 626 l 2
 345 626 333 627 321 627 c 2
 183 627 l 1
 183 390 l 1
 513 390 l 1
 513 329 l 1
 183 329 l 1
 183 70 l 1
 392 70 l 2
 404 70 416 71 428 71 c 2
 554 71 l 1
 554 0 l 1
455 736 m 1
 396 736 l 1
 299 833 l 1
 202 736 l 1
 143 736 l 1
 269 870 l 1
 329 870 l 1
 455 736 l 1
EndSplineSet
Validated: 1
Position2: "'cpsp' Capital Spacing lookup 0 subtable" dx=7 dy=0 dh=14 dv=0
EndChar

StartChar: Edieresis
Encoding: 203 203 139
Width: 597
GlyphClass: 2
Flags: MW
HStem: 0 70<183 392 392 398 183 554> 329 61<183 513 183 513> 626 65<351 357 357 540> 736 80<172 252 172 252 346 426>
VStem: 94 89<70 329 390 627> 172 80<736 816> 346 80<736 816>
LayerCount: 2
Fore
SplineSet
554 0 m 1xe8
 94 0 l 1
 94 691 l 1
 540 691 l 1
 540 626 l 1
 357 626 l 2
 345 626 333 627 321 627 c 2
 183 627 l 1
 183 390 l 1
 513 390 l 1
 513 329 l 1
 183 329 l 1
 183 70 l 1
 392 70 l 2
 404 70 416 71 428 71 c 2
 554 71 l 1
 554 0 l 1xe8
252 736 m 1x16
 172 736 l 1
 172 816 l 1
 252 816 l 1
 252 736 l 1x16
426 736 m 1
 346 736 l 1
 346 816 l 1
 426 816 l 1
 426 736 l 1
EndSplineSet
Validated: 1
Position2: "'cpsp' Capital Spacing lookup 0 subtable" dx=7 dy=0 dh=14 dv=0
EndChar

StartChar: Igrave
Encoding: 204 204 140
Width: 278
GlyphClass: 2
Flags: MW
HStem: 0 21G<94 183 94 94> 674 20G<94 183 183 183> 746 21G<94 183 94 94> 848 20G<-103 8 8 8>
VStem: 94 89<0 694>
LayerCount: 2
Fore
SplineSet
183 0 m 1
 94 0 l 1
 94 694 l 1
 183 694 l 1
 183 0 l 1
183 746 m 1
 94 746 l 1
 -103 868 l 1
 8 868 l 1
 183 746 l 1
EndSplineSet
Validated: 1
Position2: "'cpsp' Capital Spacing lookup 0 subtable" dx=7 dy=0 dh=14 dv=0
EndChar

StartChar: Iacute
Encoding: 205 205 141
Width: 278
GlyphClass: 2
Flags: MW
HStem: 0 21G<94 183 94 94> 674 20G<94 183 183 183> 746 21G<94 183 94 94> 848 20G<269 380 380 380>
VStem: 94 89<0 694>
LayerCount: 2
Fore
SplineSet
183 0 m 1
 94 0 l 1
 94 694 l 1
 183 694 l 1
 183 0 l 1
380 868 m 1
 183 746 l 1
 94 746 l 1
 269 868 l 1
 380 868 l 1
EndSplineSet
Validated: 1
Position2: "'cpsp' Capital Spacing lookup 0 subtable" dx=7 dy=0 dh=14 dv=0
EndChar

StartChar: Icircumflex
Encoding: 206 206 142
Width: 278
GlyphClass: 2
Flags: MW
HStem: 0 21G<94 183 94 94> 674 20G<94 183 183 183> 736 21G<-17 42 -17 -17 236 295 236 236> 850 20G<109 169 169 169>
VStem: 94 89<0 694>
LayerCount: 2
Fore
SplineSet
183 0 m 1
 94 0 l 1
 94 694 l 1
 183 694 l 1
 183 0 l 1
295 736 m 1
 236 736 l 1
 139 833 l 1
 42 736 l 1
 -17 736 l 1
 109 870 l 1
 169 870 l 1
 295 736 l 1
EndSplineSet
Validated: 1
Position2: "'cpsp' Capital Spacing lookup 0 subtable" dx=7 dy=0 dh=14 dv=0
EndChar

StartChar: Idieresis
Encoding: 207 207 143
Width: 278
GlyphClass: 2
Flags: MW
HStem: 0 21G<94 183 94 94> 674 20G<94 183 183 183> 736 80<12 92 12 92 186 266>
VStem: 12 80<736 816> 94 89<0 694> 186 80<736 816>
LayerCount: 2
Fore
SplineSet
183 0 m 1
 94 0 l 1
 94 694 l 1
 183 694 l 1
 183 0 l 1
92 736 m 1
 12 736 l 1
 12 816 l 1
 92 816 l 1
 92 736 l 1
266 736 m 1
 186 736 l 1
 186 816 l 1
 266 816 l 1
 266 736 l 1
EndSplineSet
Validated: 1
Position2: "'cpsp' Capital Spacing lookup 0 subtable" dx=7 dy=0 dh=14 dv=0
EndChar

StartChar: Eth
Encoding: 208 208 144
Width: 722
GlyphClass: 2
Flags: MW
HStem: 0 56<182 335 335 359> 315 64<18 96 18 96 182 283> 638 56<182 335 182 182>
VStem: 96 86<56 315 56 315 56 315 379 638> 579 86<256 429>
CounterMasks: 1 e0
LayerCount: 2
Fore
SplineSet
665 341 m 0
 665 152 529 0 359 0 c 2
 96 0 l 1
 96 315 l 1
 18 315 l 1
 18 379 l 1
 96 379 l 1
 96 694 l 1
 358 694 l 2
 530 694 665 535 665 341 c 0
579 341 m 0
 579 517 475 638 335 638 c 2
 182 638 l 1
 182 379 l 1
 283 379 l 1
 283 315 l 1
 182 315 l 1
 182 56 l 1
 335 56 l 2
 475 56 579 171 579 341 c 0
EndSplineSet
Validated: 1
Position2: "'cpsp' Capital Spacing lookup 0 subtable" dx=7 dy=0 dh=14 dv=0
EndChar

StartChar: Ntilde
Encoding: 209 209 145
Width: 708
GlyphClass: 2
Flags: MW
HStem: 0 21G<96 174 96 96 487 611 487 487> 674 20G<96 220 220 220 533 611 611 611> 736 61<410.5 434 409.5 446.5> 794 61<275 298.5 262.5 299.5>
VStem: 96 78<0 623 0 694 0 694> 533 78<71 694>
LayerCount: 2
Fore
SplineSet
611 0 m 1xcc
 487 0 l 1
 242 486 l 1
 175 623 l 1
 174 623 l 1
 174 0 l 1
 96 0 l 1
 96 694 l 1
 220 694 l 1
 465 208 l 1
 532 71 l 1
 533 71 l 1
 533 694 l 1
 611 694 l 1
 611 0 l 1xcc
521 855 m 1x10
 519 777 470 736 423 736 c 0x20
 398 736 378 748 359 761 c 0
 332 780 311 794 288 794 c 0x10
 262 794 250 770 249 736 c 1
 188 736 l 1x20
 190 814 239 855 286 855 c 0x10
 311 855 331 843 350 830 c 0
 377 811 398 797 421 797 c 0x20
 447 797 459 821 460 855 c 1
 521 855 l 1x10
EndSplineSet
Validated: 1
Position2: "'cpsp' Capital Spacing lookup 0 subtable" dx=7 dy=0 dh=14 dv=0
EndChar

StartChar: Ograve
Encoding: 210 210 146
Width: 736
GlyphClass: 2
Flags: MW
HStem: -22 65<309 425 309 450.5> 652 64<311 425> 746 21G<374 463 374 374> 848 20G<177 288 288 288>
VStem: 56 89<264 449> 590 89<262.5 449.5>
LayerCount: 2
Fore
SplineSet
679 345 m 0
 679 135 534 -22 367 -22 c 0
 204 -22 56 133 56 345 c 0
 56 553 198 716 368 716 c 0
 534 716 679 555 679 345 c 0
590 360 m 0
 590 539 483 652 367 652 c 0
 255 652 145 543 145 360 c 0
 145 168 250 43 368 43 c 0
 482 43 590 165 590 360 c 0
463 746 m 1
 374 746 l 1
 177 868 l 1
 288 868 l 1
 463 746 l 1
EndSplineSet
Validated: 1
Position2: "'cpsp' Capital Spacing lookup 0 subtable" dx=7 dy=0 dh=14 dv=0
EndChar

StartChar: Oacute
Encoding: 211 211 147
Width: 736
GlyphClass: 2
Flags: MW
HStem: -22 65<309 425 309 450.5> 652 64<311 425> 746 21G<273 362 273 273> 848 20G<448 559 559 559>
VStem: 56 89<264 449> 590 89<262.5 449.5>
LayerCount: 2
Fore
SplineSet
679 345 m 0
 679 135 534 -22 367 -22 c 0
 204 -22 56 133 56 345 c 0
 56 553 198 716 368 716 c 0
 534 716 679 555 679 345 c 0
590 360 m 0
 590 539 483 652 367 652 c 0
 255 652 145 543 145 360 c 0
 145 168 250 43 368 43 c 0
 482 43 590 165 590 360 c 0
559 868 m 1
 362 746 l 1
 273 746 l 1
 448 868 l 1
 559 868 l 1
EndSplineSet
Validated: 1
Position2: "'cpsp' Capital Spacing lookup 0 subtable" dx=7 dy=0 dh=14 dv=0
EndChar

StartChar: Ocircumflex
Encoding: 212 212 148
Width: 736
GlyphClass: 2
Flags: MW
HStem: -22 65<309 425 309 450.5> 652 64<311 425> 736 21G<212 271 212 212 465 524 465 465> 850 20G<338 398 398 398>
VStem: 56 89<264 449> 590 89<262.5 449.5>
LayerCount: 2
Fore
SplineSet
679 345 m 0
 679 135 534 -22 367 -22 c 0
 204 -22 56 133 56 345 c 0
 56 553 198 716 368 716 c 0
 534 716 679 555 679 345 c 0
590 360 m 0
 590 539 483 652 367 652 c 0
 255 652 145 543 145 360 c 0
 145 168 250 43 368 43 c 0
 482 43 590 165 590 360 c 0
524 736 m 1
 465 736 l 1
 368 833 l 1
 271 736 l 1
 212 736 l 1
 338 870 l 1
 398 870 l 1
 524 736 l 1
EndSplineSet
Validated: 1
Position2: "'cpsp' Capital Spacing lookup 0 subtable" dx=7 dy=0 dh=14 dv=0
EndChar

StartChar: Otilde
Encoding: 213 213 149
Width: 736
GlyphClass: 2
Flags: MW
HStem: -22 65<309 425 309 450.5> 652 64<311 425> 736 61<424.5 448 423.5 460.5> 794 61<289 312.5 276.5 313.5>
VStem: 56 89<264 449> 590 89<262.5 449.5>
LayerCount: 2
Fore
SplineSet
679 345 m 0xcc
 679 135 534 -22 367 -22 c 0
 204 -22 56 133 56 345 c 0
 56 553 198 716 368 716 c 0
 534 716 679 555 679 345 c 0xcc
590 360 m 0
 590 539 483 652 367 652 c 0
 255 652 145 543 145 360 c 0
 145 168 250 43 368 43 c 0
 482 43 590 165 590 360 c 0
535 855 m 1x10
 533 777 484 736 437 736 c 0x20
 412 736 392 748 373 761 c 0
 346 780 325 794 302 794 c 0x10
 276 794 264 770 263 736 c 1
 202 736 l 1x20
 204 814 253 855 300 855 c 0x10
 325 855 345 843 364 830 c 0
 391 811 412 797 435 797 c 0x20
 461 797 473 821 474 855 c 1
 535 855 l 1x10
EndSplineSet
Validated: 1
Position2: "'cpsp' Capital Spacing lookup 0 subtable" dx=7 dy=0 dh=14 dv=0
EndChar

StartChar: Odieresis
Encoding: 214 214 150
Width: 736
GlyphClass: 2
Flags: MW
HStem: -22 65<309 425 309 450.5> 652 64<311 425> 736 80<241 321 241 321 415 495>
VStem: 56 89<264 449> 241 80<736 816> 415 80<736 816> 590 89<262.5 449.5>
LayerCount: 2
Fore
SplineSet
679 345 m 0
 679 135 534 -22 367 -22 c 0
 204 -22 56 133 56 345 c 0
 56 553 198 716 368 716 c 0
 534 716 679 555 679 345 c 0
590 360 m 0
 590 539 483 652 367 652 c 0
 255 652 145 543 145 360 c 0
 145 168 250 43 368 43 c 0
 482 43 590 165 590 360 c 0
321 736 m 1
 241 736 l 1
 241 816 l 1
 321 816 l 1
 321 736 l 1
495 736 m 1
 415 736 l 1
 415 816 l 1
 495 816 l 1
 495 736 l 1
EndSplineSet
Validated: 1
Position2: "'cpsp' Capital Spacing lookup 0 subtable" dx=7 dy=0 dh=14 dv=0
EndChar

StartChar: multiply
Encoding: 215 215 151
Width: 778
GlyphClass: 2
Flags: W
LayerCount: 2
Fore
SplineSet
624 15 m 0
 610 1 597 14 587 24 c 2
 389 222 l 1
 191 24 l 2
 181 14 168 1 153 15 c 0
 139 29 153 42 163 52 c 2
 361 250 l 1
 163 448 l 2
 153 458 139 472 153 486 c 0
 168 500 181 487 191 477 c 2
 389 279 l 1
 586 476 l 2
 596 486 609 499 624 485 c 0
 638 471 624 458 614 448 c 2
 417 250 l 1
 615 52 l 2
 625 42 638 29 624 15 c 0
EndSplineSet
Validated: 33
EndChar

StartChar: Oslash
Encoding: 216 216 152
Width: 778
GlyphClass: 2
Flags: MW
HStem: -65 21G<187 187> -22 61<374 451 374 478> 576 61<558 593> 655 61<325 404 297.5 407> 739 20G<590 590>
VStem: 56 85<320.5 444 318.5 447.5> 183 85<57 74> 636 85<245.5 382.5>
LayerCount: 2
Fore
SplineSet
721 345 m 0
 721 137 568 -22 388 -22 c 0
 345 -22 292 -12 235 19 c 1
 187 -65 l 1
 132 -33 l 1
 183 57 l 1
 63 163 56 296 56 345 c 0
 56 550 206 716 389 716 c 0
 419 716 471 712 542 675 c 1
 590 759 l 1
 645 727 l 1
 593 637 l 1
 650 590 721 487 721 345 c 0
509 619 m 1
 466 645 426 655 388 655 c 0
 262 655 141 543 141 345 c 0
 141 292 149 196 218 117 c 1
 509 619 l 1
636 345 m 0
 636 420 617 510 558 576 c 1
 268 74 l 1
 316 45 359 39 389 39 c 0
 513 39 636 146 636 345 c 0
EndSplineSet
Validated: 1
Position2: "'cpsp' Capital Spacing lookup 0 subtable" dx=7 dy=0 dh=14 dv=0
EndChar

StartChar: Ugrave
Encoding: 217 217 153
Width: 688
GlyphClass: 2
Flags: MW
HStem: -22 56<306 389 306 413> 674 20G<94 183 183 183 515 593 593 593> 746 21G<350 439 350 350> 848 20G<153 264 264 264>
VStem: 94 89<233 694> 515 78<232 233 233 694>
LayerCount: 2
Fore
SplineSet
593 233 m 2
 593 88 480 -22 346 -22 c 0
 211 -22 94 87 94 233 c 2
 94 694 l 1
 183 694 l 1
 183 232 l 2
 183 97 265 34 347 34 c 0
 431 34 515 100 515 232 c 2
 515 694 l 1
 593 694 l 1
 593 233 l 2
439 746 m 1
 350 746 l 1
 153 868 l 1
 264 868 l 1
 439 746 l 1
EndSplineSet
Validated: 1
Position2: "'cpsp' Capital Spacing lookup 0 subtable" dx=7 dy=0 dh=14 dv=0
EndChar

StartChar: Uacute
Encoding: 218 218 154
Width: 688
GlyphClass: 2
Flags: MW
HStem: -22 56<306 389 306 413> 674 20G<94 183 183 183 515 593 593 593> 746 21G<249 338 249 249> 848 20G<424 535 535 535>
VStem: 94 89<233 694> 515 78<232 233 233 694>
LayerCount: 2
Fore
SplineSet
593 233 m 2
 593 88 480 -22 346 -22 c 0
 211 -22 94 87 94 233 c 2
 94 694 l 1
 183 694 l 1
 183 232 l 2
 183 97 265 34 347 34 c 0
 431 34 515 100 515 232 c 2
 515 694 l 1
 593 694 l 1
 593 233 l 2
535 868 m 1
 338 746 l 1
 249 746 l 1
 424 868 l 1
 535 868 l 1
EndSplineSet
Validated: 1
Position2: "'cpsp' Capital Spacing lookup 0 subtable" dx=7 dy=0 dh=14 dv=0
EndChar

StartChar: Ucircumflex
Encoding: 219 219 155
Width: 688
GlyphClass: 2
Flags: MW
HStem: -22 56<306 389 306 413> 674 20G<94 183 183 183 515 593 593 593> 736 21G<188 247 188 188 441 500 441 441> 850 20G<314 374 374 374>
VStem: 94 89<233 694> 515 78<232 233 233 694>
LayerCount: 2
Fore
SplineSet
593 233 m 2
 593 88 480 -22 346 -22 c 0
 211 -22 94 87 94 233 c 2
 94 694 l 1
 183 694 l 1
 183 232 l 2
 183 97 265 34 347 34 c 0
 431 34 515 100 515 232 c 2
 515 694 l 1
 593 694 l 1
 593 233 l 2
500 736 m 1
 441 736 l 1
 344 833 l 1
 247 736 l 1
 188 736 l 1
 314 870 l 1
 374 870 l 1
 500 736 l 1
EndSplineSet
Validated: 1
Position2: "'cpsp' Capital Spacing lookup 0 subtable" dx=7 dy=0 dh=14 dv=0
EndChar

StartChar: Udieresis
Encoding: 220 220 156
Width: 688
GlyphClass: 2
Flags: MW
HStem: -22 56<306 389 306 413> 674 20G<94 183 183 183 515 593 593 593> 736 80<217 297 217 297 391 471>
VStem: 94 89<233 694> 217 80<736 816> 391 80<736 816> 515 78<232 233 233 694>
LayerCount: 2
Fore
SplineSet
593 233 m 2
 593 88 480 -22 346 -22 c 0
 211 -22 94 87 94 233 c 2
 94 694 l 1
 183 694 l 1
 183 232 l 2
 183 97 265 34 347 34 c 0
 431 34 515 100 515 232 c 2
 515 694 l 1
 593 694 l 1
 593 233 l 2
297 736 m 1
 217 736 l 1
 217 816 l 1
 297 816 l 1
 297 736 l 1
471 736 m 1
 391 736 l 1
 391 816 l 1
 471 816 l 1
 471 736 l 1
EndSplineSet
Validated: 1
Position2: "'cpsp' Capital Spacing lookup 0 subtable" dx=7 dy=0 dh=14 dv=0
EndChar

StartChar: Yacute
Encoding: 221 221 157
Width: 667
GlyphClass: 2
Flags: MW
HStem: 0 21G<290 376 290 290> 674 20G<3 108 108 108 575 663 663 663> 746 21G<238 327 238 238> 848 20G<413 524 524 524>
VStem: 290 86<0 277 0 278 0 278>
LayerCount: 2
Fore
SplineSet
663 694 m 1
 376 277 l 1
 376 0 l 1
 290 0 l 1
 290 278 l 1
 3 694 l 1
 108 694 l 1
 306 404 l 2
 323 380 323 378 342 347 c 1
 403 442 l 2
 410 453 415 461 420 468 c 2
 575 694 l 1
 663 694 l 1
524 868 m 1
 327 746 l 1
 238 746 l 1
 413 868 l 1
 524 868 l 1
EndSplineSet
Validated: 1
Position2: "'cpsp' Capital Spacing lookup 0 subtable" dx=7 dy=0 dh=14 dv=0
EndChar

StartChar: Thorn
Encoding: 222 222 158
Width: 583
GlyphClass: 2
Flags: MW
HStem: 0 21G<97 180 97 97> 180 56<180 276 276 304 180 276> 511 56<180 269 180 311> 674 20G<97 180 180 180>
VStem: 97 82 445 82
LayerCount: 2
Fore
SplineSet
527 374 m 0
 527 293 466 180 304 180 c 2
 180 180 l 1
 180 0 l 1
 97 0 l 1
 97 694 l 1
 180 694 l 1
 180 567 l 1
 311 567 l 2
 453 567 527 464 527 374 c 0
446 373 m 0
 446 439 387 511 269 511 c 2
 180 511 l 1
 180 236 l 1
 276 236 l 2
 411 236 446 325 446 373 c 0
EndSplineSet
Validated: 1
Position2: "'cpsp' Capital Spacing lookup 0 subtable" dx=7 dy=0 dh=14 dv=0
EndChar

StartChar: germandbls
Encoding: 223 223 159
Width: 481
GlyphClass: 2
Flags: MW
HStem: -11 61<270 302.5 270 323.5> 383 61<213 213> 644 61<241.5 281.5>
VStem: 82 75<0 551 0 552 0 603> 253 75 347 77<532 583> 375 77<138 218.5 124.5 231.5>
LayerCount: 2
Fore
SplineSet
452 179 m 0x7c
 452 70 371 -11 276 -11 c 0
 233 -11 187 4 187 9 c 2
 191 20 l 1
 208 65 l 1
 237 52 265 50 275 50 c 0
 330 50 375 97 375 179 c 0x82
 375 284 316 380 213 383 c 1
 213 444 l 1
 306 445 347 505 347 559 c 0
 347 607 311 644 252 644 c 0
 231 644 157 638 157 551 c 2
 157 0 l 1
 82 0 l 1
 82 552 l 2
 82 654 173 705 253 705 c 0
 346 705 424 641 424 558 c 0
 424 506 394 448 328 411 c 1
 417 356 452 258 452 179 c 0x7c
EndSplineSet
Validated: 1
Substitution2: "'smcp' Lowercase to Small Capitals lookup 16 subtable" Germandbls.sc
EndChar

StartChar: agrave
Encoding: 224 224 160
Width: 481
GlyphClass: 2
Flags: MW
HStem: -11 61<124.5 224.5> 194 53 402 59<219.5 267.5> 527 21G<249 310 249 249> 674 20G<99 177 177 177>
VStem: 54 72<94 150 94 157> 331 78<132 194 194 194 245 288 288 289>
LayerCount: 2
Fore
SplineSet
409 0 m 1
 334 0 l 1
 334 36 l 1
 276 -9 182 -11 168 -11 c 0
 81 -11 54 70 54 113 c 0
 54 201 181 243 331 245 c 1
 331 288 l 2
 331 362 291 402 244 402 c 0
 195 402 145 389 93 352 c 1
 87 418 l 1
 134 445 179 461 244 461 c 0
 336 461 409 391 409 289 c 2
 409 0 l 1
331 132 m 2
 331 194 l 1
 288 192 126 185 126 115 c 0
 126 73 171 50 219 50 c 0
 230 50 268 51 297 69 c 0
 331 88 331 113 331 132 c 2
310 527 m 1
 249 527 l 1
 99 694 l 1
 177 694 l 1
 310 527 l 1
EndSplineSet
Validated: 1
Substitution2: "'smcp' Lowercase to Small Capitals lookup 16 subtable" Agrave.sc
EndChar

StartChar: aacute
Encoding: 225 225 161
Width: 481
GlyphClass: 2
Flags: MW
HStem: -11 61<124.5 224.5> 194 53 402 59<219.5 267.5> 527 21G<170 231 170 170> 674 20G<303 381 381 381>
VStem: 54 72<94 150 94 157> 331 78<132 194 194 194 245 288 288 289>
LayerCount: 2
Fore
SplineSet
409 0 m 1
 334 0 l 1
 334 36 l 1
 276 -9 182 -11 168 -11 c 0
 81 -11 54 70 54 113 c 0
 54 201 181 243 331 245 c 1
 331 288 l 2
 331 362 291 402 244 402 c 0
 195 402 145 389 93 352 c 1
 87 418 l 1
 134 445 179 461 244 461 c 0
 336 461 409 391 409 289 c 2
 409 0 l 1
331 132 m 2
 331 194 l 1
 288 192 126 185 126 115 c 0
 126 73 171 50 219 50 c 0
 230 50 268 51 297 69 c 0
 331 88 331 113 331 132 c 2
381 694 m 1
 231 527 l 1
 170 527 l 1
 303 694 l 1
 381 694 l 1
EndSplineSet
Validated: 1
Substitution2: "'smcp' Lowercase to Small Capitals lookup 16 subtable" Aacute.sc
EndChar

StartChar: acircumflex
Encoding: 226 226 162
Width: 481
GlyphClass: 2
Flags: MW
HStem: -11 61<124.5 224.5> 194 53 402 59<219.5 267.5> 525 21G<85 144 85 85 336 395 336 336> 677 20G<210 270 270 270>
VStem: 54 72<94 150 94 157> 331 78<132 194 194 194 245 288 288 289>
LayerCount: 2
Fore
SplineSet
409 0 m 1
 334 0 l 1
 334 36 l 1
 276 -9 182 -11 168 -11 c 0
 81 -11 54 70 54 113 c 0
 54 201 181 243 331 245 c 1
 331 288 l 2
 331 362 291 402 244 402 c 0
 195 402 145 389 93 352 c 1
 87 418 l 1
 134 445 179 461 244 461 c 0
 336 461 409 391 409 289 c 2
 409 0 l 1
331 132 m 2
 331 194 l 1
 288 192 126 185 126 115 c 0
 126 73 171 50 219 50 c 0
 230 50 268 51 297 69 c 0
 331 88 331 113 331 132 c 2
395 525 m 1
 336 525 l 1
 240 648 l 1
 144 525 l 1
 85 525 l 1
 210 697 l 1
 270 697 l 1
 395 525 l 1
EndSplineSet
Validated: 1
Substitution2: "'smcp' Lowercase to Small Capitals lookup 16 subtable" Acircumflex.sc
EndChar

StartChar: atilde
Encoding: 227 227 163
Width: 481
GlyphClass: 2
Flags: MW
HStem: -11 61<124.5 224.5> 194 53 402 59<219.5 267.5> 551 61<296.5 320 295.5 332.5> 609 61<161 184.5 148.5 185.5>
VStem: 54 72<94 150 94 157> 331 78<132 194 194 194 245 288 288 289>
LayerCount: 2
Fore
SplineSet
409 0 m 1xe6
 334 0 l 1
 334 36 l 1
 276 -9 182 -11 168 -11 c 0
 81 -11 54 70 54 113 c 0
 54 201 181 243 331 245 c 1
 331 288 l 2
 331 362 291 402 244 402 c 0
 195 402 145 389 93 352 c 1
 87 418 l 1
 134 445 179 461 244 461 c 0
 336 461 409 391 409 289 c 2
 409 0 l 1xe6
331 132 m 2
 331 194 l 1
 288 192 126 185 126 115 c 0
 126 73 171 50 219 50 c 0
 230 50 268 51 297 69 c 0
 331 88 331 113 331 132 c 2
407 670 m 1x08
 405 592 356 551 309 551 c 0x10
 284 551 264 563 245 576 c 0
 218 595 197 609 174 609 c 0x08
 148 609 136 585 135 551 c 1
 74 551 l 1x10
 76 629 125 670 172 670 c 0x08
 197 670 217 658 236 645 c 0
 263 626 284 612 307 612 c 0x10
 333 612 345 636 346 670 c 1
 407 670 l 1x08
EndSplineSet
Validated: 1
Substitution2: "'smcp' Lowercase to Small Capitals lookup 16 subtable" Atilde.sc
EndChar

StartChar: adieresis
Encoding: 228 228 164
Width: 481
GlyphClass: 2
Flags: MW
HStem: -11 61<124.5 224.5> 194 53 402 59<219.5 267.5> 571 80<127 207 127 207 127 273 273 353>
VStem: 54 72<94 150 94 157> 127 80<571 651> 273 80<571 651> 331 78<132 194 194 194 245 288 288 289>
LayerCount: 2
Fore
SplineSet
409 0 m 1xe9
 334 0 l 1
 334 36 l 1
 276 -9 182 -11 168 -11 c 0
 81 -11 54 70 54 113 c 0
 54 201 181 243 331 245 c 1
 331 288 l 2
 331 362 291 402 244 402 c 0
 195 402 145 389 93 352 c 1
 87 418 l 1
 134 445 179 461 244 461 c 0
 336 461 409 391 409 289 c 2
 409 0 l 1xe9
331 132 m 2
 331 194 l 1
 288 192 126 185 126 115 c 0
 126 73 171 50 219 50 c 0
 230 50 268 51 297 69 c 0
 331 88 331 113 331 132 c 2
207 571 m 1x16
 127 571 l 1
 127 651 l 1
 207 651 l 1
 207 571 l 1x16
353 571 m 1
 273 571 l 1
 273 651 l 1
 353 651 l 1
 353 571 l 1
EndSplineSet
Validated: 1
Substitution2: "'smcp' Lowercase to Small Capitals lookup 16 subtable" Adieresis.sc
EndChar

StartChar: aring
Encoding: 229 229 165
Width: 481
GlyphClass: 2
Flags: MW
HStem: -11 61<124.5 224.5> 194 53 402 59<219.5 267.5> 517 47<236 244.5 236 272.5> 638 47<235.5 244>
VStem: 54 72<94 150 94 157> 129 61<582.5 619.5 582.5 623.5> 290 61<582.5 619.5> 331 78<132 194 194 194 245 288 288 289>
LayerCount: 2
Fore
SplineSet
409 0 m 1xe480
 334 0 l 1
 334 36 l 1
 276 -9 182 -11 168 -11 c 0
 81 -11 54 70 54 113 c 0
 54 201 181 243 331 245 c 1
 331 288 l 2
 331 362 291 402 244 402 c 0
 195 402 145 389 93 352 c 1
 87 418 l 1
 134 445 179 461 244 461 c 0
 336 461 409 391 409 289 c 2
 409 0 l 1xe480
331 132 m 2
 331 194 l 1
 288 192 126 185 126 115 c 0
 126 73 171 50 219 50 c 0
 230 50 268 51 297 69 c 0
 331 88 331 113 331 132 c 2
290 601 m 0x1b
 290 638 248 638 240 638 c 0
 231 638 190 638 190 601 c 0
 190 564 232 564 240 564 c 0
 249 564 290 564 290 601 c 0x1b
351 600 m 0
 351 557 305 517 240 517 c 0
 178 517 129 554 129 602 c 0
 129 645 175 685 240 685 c 0
 302 685 351 648 351 600 c 0
EndSplineSet
Validated: 1
Substitution2: "'smcp' Lowercase to Small Capitals lookup 16 subtable" Aring.sc
EndChar

StartChar: ae
Encoding: 230 230 166
Width: 722
GlyphClass: 2
Flags: MW
HStem: -11 61<113 218.5 530.5 558> 66 61 219 55<405 634 405 693 400 634> 400 61<501 543.5> 402 59<206.5 257.5>
VStem: 47 72<97.5 149 96.5 174> 83 78 322 78<219 288 219 326> 327 78 634 54
LayerCount: 2
Fore
SplineSet
693 219 m 1x0b
 400 219 l 1
 405 112 473 50 544 50 c 0
 572 50 629 57 682 106 c 1
 688 41 l 1
 644 5 591 -11 543 -11 c 0
 518 -11 444 -8 380 66 c 1
 333 -8 189 -11 161 -11 c 0xe340
 65 -11 47 81 47 114 c 0x04
 47 234 265 244 322 247 c 1
 322 288 l 2
 322 364 280 402 235 402 c 0
 178 402 131 386 83 352 c 1
 77 418 l 1
 124 445 170 461 234 461 c 0
 291 461 345 432 375 384 c 1
 416 434 473 461 527 461 c 0
 693 461 693 254 693 219 c 1x0b
634 274 m 1
 619 384 559 400 528 400 c 0
 474 400 422 351 405 274 c 1xf4c0
 634 274 l 1
327 127 m 0
 327 139 324 184 323 191 c 1
 282 191 119 183 119 115 c 0
 119 78 157 50 211 50 c 0
 226 50 327 50 327 127 c 0
EndSplineSet
Validated: 1
Substitution2: "'smcp' Lowercase to Small Capitals lookup 16 subtable" AE.sc
EndChar

StartChar: ccedilla
Encoding: 231 231 167
Width: 444
GlyphClass: 2
Flags: MW
HStem: -11 64<211.5 278.5 211.5 279> 397 64<204 283>
VStem: 36 78<174 262 174 281>
LayerCount: 2
Fore
SplineSet
415 40 m 1
 361 3 306 -11 252 -11 c 0
 127 -11 36 98 36 222 c 0
 36 340 117 461 256 461 c 0
 317 461 351 452 410 418 c 1
 398 353 l 1
 343 389 309 397 257 397 c 0
 151 397 114 301 114 223 c 0
 114 125 170 53 253 53 c 0
 304 53 358 67 409 107 c 1
 415 40 l 1
291 -46 m 1
 225 -214 l 1
 156 -214 l 1
 230 -46 l 1
 291 -46 l 1
EndSplineSet
Validated: 1
Substitution2: "'smcp' Lowercase to Small Capitals lookup 16 subtable" Ccedilla.sc
EndChar

StartChar: egrave
Encoding: 232 232 168
Width: 444
GlyphClass: 2
Flags: MW
HStem: -11 61<212 263.5 212 282.5> 219 55<110 357 110 414 105 357> 400 61<207.5 254 180.5 262> 527 21G<231 292 231 231> 674 20G<81 159 159 159>
VStem: 35 75<274 274 274 290.5> 357 57<219 274>
LayerCount: 2
Fore
SplineSet
414 219 m 1
 105 219 l 1
 108 121 172 50 252 50 c 0
 275 50 341 54 404 106 c 1
 410 41 l 1
 371 13 314 -11 251 -11 c 0
 131 -11 35 94 35 226 c 0
 35 355 125 461 236 461 c 0
 272 461 333 450 374 388 c 0
 413 328 414 253 414 219 c 1
357 274 m 1
 344 366 288 400 236 400 c 0
 179 400 126 350 110 274 c 1
 357 274 l 1
292 527 m 1
 231 527 l 1
 81 694 l 1
 159 694 l 1
 292 527 l 1
EndSplineSet
Validated: 1
Substitution2: "'smcp' Lowercase to Small Capitals lookup 16 subtable" Egrave.sc
EndChar

StartChar: eacute
Encoding: 233 233 169
Width: 444
GlyphClass: 2
Flags: MW
HStem: -11 61<212 263.5 212 282.5> 219 55<110 357 110 414 105 357> 400 61<207.5 254 180.5 262> 527 21G<152 213 152 152> 674 20G<285 363 363 363>
VStem: 35 75<274 274 274 290.5> 357 57<219 274>
LayerCount: 2
Fore
SplineSet
414 219 m 1
 105 219 l 1
 108 121 172 50 252 50 c 0
 275 50 341 54 404 106 c 1
 410 41 l 1
 371 13 314 -11 251 -11 c 0
 131 -11 35 94 35 226 c 0
 35 355 125 461 236 461 c 0
 272 461 333 450 374 388 c 0
 413 328 414 253 414 219 c 1
357 274 m 1
 344 366 288 400 236 400 c 0
 179 400 126 350 110 274 c 1
 357 274 l 1
363 694 m 1
 213 527 l 1
 152 527 l 1
 285 694 l 1
 363 694 l 1
EndSplineSet
Validated: 1
Substitution2: "'smcp' Lowercase to Small Capitals lookup 16 subtable" Eacute.sc
EndChar

StartChar: ecircumflex
Encoding: 234 234 170
Width: 444
GlyphClass: 2
Flags: MW
HStem: -11 61<212 263.5 212 282.5> 219 55<110 357 110 414 105 357> 400 61<207.5 254 180.5 262> 525 21G<67 126 67 67 318 377 318 318> 677 20G<192 252 252 252>
VStem: 35 75<274 274 274 290.5> 357 57<219 274>
LayerCount: 2
Fore
SplineSet
414 219 m 1
 105 219 l 1
 108 121 172 50 252 50 c 0
 275 50 341 54 404 106 c 1
 410 41 l 1
 371 13 314 -11 251 -11 c 0
 131 -11 35 94 35 226 c 0
 35 355 125 461 236 461 c 0
 272 461 333 450 374 388 c 0
 413 328 414 253 414 219 c 1
357 274 m 1
 344 366 288 400 236 400 c 0
 179 400 126 350 110 274 c 1
 357 274 l 1
377 525 m 1
 318 525 l 1
 222 648 l 1
 126 525 l 1
 67 525 l 1
 192 697 l 1
 252 697 l 1
 377 525 l 1
EndSplineSet
Validated: 1
Substitution2: "'smcp' Lowercase to Small Capitals lookup 16 subtable" Ecircumflex.sc
EndChar

StartChar: edieresis
Encoding: 235 235 171
Width: 444
GlyphClass: 2
Flags: MW
HStem: -11 61<212 263.5 212 282.5> 219 55<110 357 110 414 105 357> 400 61<207.5 254 180.5 262> 571 80<109 189 109 189 109 255 255 335>
VStem: 35 75<274 274 274 290.5> 109 80<571 651> 255 80<571 651> 357 57<219 274>
LayerCount: 2
Fore
SplineSet
414 219 m 1xe9
 105 219 l 1
 108 121 172 50 252 50 c 0
 275 50 341 54 404 106 c 1
 410 41 l 1
 371 13 314 -11 251 -11 c 0
 131 -11 35 94 35 226 c 0
 35 355 125 461 236 461 c 0
 272 461 333 450 374 388 c 0
 413 328 414 253 414 219 c 1xe9
357 274 m 1
 344 366 288 400 236 400 c 0
 179 400 126 350 110 274 c 1
 357 274 l 1
189 571 m 1x16
 109 571 l 1
 109 651 l 1
 189 651 l 1
 189 571 l 1x16
335 571 m 1
 255 571 l 1
 255 651 l 1
 335 651 l 1
 335 571 l 1
EndSplineSet
Validated: 1
Substitution2: "'smcp' Lowercase to Small Capitals lookup 16 subtable" Edieresis.sc
EndChar

StartChar: igrave
Encoding: 236 236 172
Width: 239
GlyphClass: 2
Flags: MW
HStem: 0 21G<81 156 81 81> 424 20G<81 156 156 156> 527 21G<95 156 95 95> 674 20G<-55 23 23 23>
VStem: 81 75<0 444>
LayerCount: 2
Fore
SplineSet
156 0 m 1
 81 0 l 1
 81 444 l 1
 156 444 l 1
 156 0 l 1
156 527 m 1
 95 527 l 1
 -55 694 l 1
 23 694 l 1
 156 527 l 1
EndSplineSet
Validated: 1
Substitution2: "'smcp' Lowercase to Small Capitals lookup 16 subtable" Igrave.sc
EndChar

StartChar: iacute
Encoding: 237 237 173
Width: 239
GlyphClass: 2
Flags: MW
HStem: 0 21G<81 156 81 81> 424 20G<81 156 156 156> 527 21G<81 142 81 81> 674 20G<214 292 292 292>
VStem: 81 75<0 444>
LayerCount: 2
Fore
SplineSet
156 0 m 1
 81 0 l 1
 81 444 l 1
 156 444 l 1
 156 0 l 1
292 694 m 1
 142 527 l 1
 81 527 l 1
 214 694 l 1
 292 694 l 1
EndSplineSet
Validated: 1
Substitution2: "'smcp' Lowercase to Small Capitals lookup 16 subtable" Iacute.sc
EndChar

StartChar: icircumflex
Encoding: 238 238 174
Width: 239
GlyphClass: 2
Flags: MW
HStem: 0 21G<81 156 81 81> 424 20G<81 156 156 156> 525 21G<-36 23 -36 -36 215 274 215 215> 677 20G<89 149 149 149>
VStem: 81 75<0 444>
LayerCount: 2
Fore
SplineSet
156 0 m 1
 81 0 l 1
 81 444 l 1
 156 444 l 1
 156 0 l 1
274 525 m 1
 215 525 l 1
 119 648 l 1
 23 525 l 1
 -36 525 l 1
 89 697 l 1
 149 697 l 1
 274 525 l 1
EndSplineSet
Validated: 1
Substitution2: "'smcp' Lowercase to Small Capitals lookup 16 subtable" Icircumflex.sc
EndChar

StartChar: idieresis
Encoding: 239 239 175
Width: 239
GlyphClass: 2
Flags: MW
HStem: 0 21G<81 156 81 81> 424 20G<81 156 156 156> 571 80<6 86 6 86 6 152 152 232>
VStem: 6 80<571 651> 81 75<0 444> 152 80<571 651>
LayerCount: 2
Fore
SplineSet
156 0 m 1xc8
 81 0 l 1
 81 444 l 1
 156 444 l 1
 156 0 l 1xc8
86 571 m 1x34
 6 571 l 1
 6 651 l 1
 86 651 l 1
 86 571 l 1x34
232 571 m 1
 152 571 l 1
 152 651 l 1
 232 651 l 1
 232 571 l 1
EndSplineSet
Validated: 1
Substitution2: "'smcp' Lowercase to Small Capitals lookup 16 subtable" Idieresis.sc
EndChar

StartChar: eth
Encoding: 240 240 176
Width: 500
GlyphClass: 2
Flags: MW
HStem: -11 64<212.5 283.5> 400 61<216.5 268 189 292>
VStem: 30 78<172 285.5> 391 78<219 261 219 273.5>
LayerCount: 2
Fore
SplineSet
469 242 m 0
 469 196 469 129 409 62 c 0
 373 22 318 -11 249 -11 c 0
 132 -11 30 89 30 220 c 0
 30 351 128 461 250 461 c 0
 286 461 322 450 350 434 c 1
 324 493 285 544 236 586 c 1
 159 525 l 1
 124 571 l 1
 189 622 l 1
 158 641 126 657 92 670 c 1
 122 722 l 1
 166 709 206 689 243 665 c 1
 318 723 l 1
 353 677 l 1
 291 629 l 1
 347 581 392 522 424 455 c 0
 469 361 469 280 469 242 c 0
391 225 m 0
 391 322 335 400 249 400 c 0
 184 400 108 351 108 230 c 0
 108 114 175 53 250 53 c 0
 332 53 391 126 391 225 c 0
EndSplineSet
Validated: 1
Substitution2: "'ss05' Style Set 5 lookup 23 IPA alts-1" eth.ipa
Substitution2: "'smcp' Lowercase to Small Capitals lookup 16 subtable" Eth.sc
EndChar

StartChar: ntilde
Encoding: 241 241 177
Width: 517
GlyphClass: 2
Flags: MW
HStem: 0 21G<81 159 81 81 357 435 357 357> 394 61<253 308> 551 61<314.5 338 313.5 350.5> 609 61<179 202.5 166.5 203.5>
VStem: 81 78<0 245 0 450> 357 78<0 291 291 298>
LayerCount: 2
Fore
SplineSet
435 0 m 1xcc
 357 0 l 1
 357 291 l 2
 357 323 356 394 260 394 c 0
 184 394 159 311 159 245 c 2
 159 0 l 1
 81 0 l 1
 81 450 l 1
 153 450 l 1
 153 379 l 1
 159 387 208 455 298 455 c 0
 420 455 435 364 435 298 c 2
 435 0 l 1xcc
425 670 m 1x10
 423 592 374 551 327 551 c 0x20
 302 551 282 563 263 576 c 0
 236 595 215 609 192 609 c 0x10
 166 609 154 585 153 551 c 1
 92 551 l 1x20
 94 629 143 670 190 670 c 0x10
 215 670 235 658 254 645 c 0
 281 626 302 612 325 612 c 0x20
 351 612 363 636 364 670 c 1
 425 670 l 1x10
EndSplineSet
Validated: 1
Substitution2: "'smcp' Lowercase to Small Capitals lookup 16 subtable" Ntilde.sc
EndChar

StartChar: ograve
Encoding: 242 242 178
Width: 500
GlyphClass: 2
Flags: MW
HStem: -11 64<214.5 286 214.5 309> 400 61<216.5 284> 527 21G<259 320 259 259> 674 20G<109 187 187 187>
VStem: 30 78<169.5 285.5> 391 78<171 287 155 289>
LayerCount: 2
Fore
SplineSet
469 220 m 0
 469 90 369 -11 249 -11 c 0
 132 -11 30 88 30 220 c 0
 30 351 127 461 250 461 c 0
 369 461 469 354 469 220 c 0
391 230 m 0
 391 348 319 400 249 400 c 0
 184 400 108 351 108 230 c 0
 108 109 180 53 249 53 c 0
 323 53 391 112 391 230 c 0
320 527 m 1
 259 527 l 1
 109 694 l 1
 187 694 l 1
 320 527 l 1
EndSplineSet
Validated: 1
Substitution2: "'smcp' Lowercase to Small Capitals lookup 16 subtable" Ograve.sc
EndChar

StartChar: oacute
Encoding: 243 243 179
Width: 500
GlyphClass: 2
Flags: MW
HStem: -11 64<214.5 286 214.5 309> 400 61<216.5 284> 527 21G<180 241 180 180> 674 20G<313 391 391 391>
VStem: 30 78<169.5 285.5> 391 78<171 287 155 289>
LayerCount: 2
Fore
SplineSet
469 220 m 0
 469 90 369 -11 249 -11 c 0
 132 -11 30 88 30 220 c 0
 30 351 127 461 250 461 c 0
 369 461 469 354 469 220 c 0
391 230 m 0
 391 348 319 400 249 400 c 0
 184 400 108 351 108 230 c 0
 108 109 180 53 249 53 c 0
 323 53 391 112 391 230 c 0
391 694 m 1
 241 527 l 1
 180 527 l 1
 313 694 l 1
 391 694 l 1
EndSplineSet
Validated: 1
Substitution2: "'smcp' Lowercase to Small Capitals lookup 16 subtable" Oacute.sc
EndChar

StartChar: ocircumflex
Encoding: 244 244 180
Width: 500
GlyphClass: 2
Flags: MW
HStem: -11 64<214.5 286 214.5 309> 400 61<216.5 284> 525 21G<95 154 95 95 346 405 346 346> 677 20G<220 280 280 280>
VStem: 30 78<169.5 285.5> 391 78<171 287 155 289>
LayerCount: 2
Fore
SplineSet
469 220 m 0
 469 90 369 -11 249 -11 c 0
 132 -11 30 88 30 220 c 0
 30 351 127 461 250 461 c 0
 369 461 469 354 469 220 c 0
391 230 m 0
 391 348 319 400 249 400 c 0
 184 400 108 351 108 230 c 0
 108 109 180 53 249 53 c 0
 323 53 391 112 391 230 c 0
405 525 m 1
 346 525 l 1
 250 648 l 1
 154 525 l 1
 95 525 l 1
 220 697 l 1
 280 697 l 1
 405 525 l 1
EndSplineSet
Validated: 1
Substitution2: "'smcp' Lowercase to Small Capitals lookup 16 subtable" Ocircumflex.sc
EndChar

StartChar: otilde
Encoding: 245 245 181
Width: 500
GlyphClass: 2
Flags: MW
HStem: -11 64<214.5 286 214.5 309> 400 61<216.5 284> 551 61<306.5 330 305.5 342.5> 609 61<171 194.5 158.5 195.5>
VStem: 30 78<169.5 285.5> 391 78<171 287 155 289>
LayerCount: 2
Fore
SplineSet
469 220 m 0xcc
 469 90 369 -11 249 -11 c 0
 132 -11 30 88 30 220 c 0
 30 351 127 461 250 461 c 0
 369 461 469 354 469 220 c 0xcc
391 230 m 0
 391 348 319 400 249 400 c 0
 184 400 108 351 108 230 c 0
 108 109 180 53 249 53 c 0
 323 53 391 112 391 230 c 0
417 670 m 1x10
 415 592 366 551 319 551 c 0x20
 294 551 274 563 255 576 c 0
 228 595 207 609 184 609 c 0x10
 158 609 146 585 145 551 c 1
 84 551 l 1x20
 86 629 135 670 182 670 c 0x10
 207 670 227 658 246 645 c 0
 273 626 294 612 317 612 c 0x20
 343 612 355 636 356 670 c 1
 417 670 l 1x10
EndSplineSet
Validated: 1
Substitution2: "'smcp' Lowercase to Small Capitals lookup 16 subtable" Otilde.sc
EndChar

StartChar: odieresis
Encoding: 246 246 182
Width: 500
GlyphClass: 2
Flags: MW
HStem: -11 64<214.5 286 214.5 309> 400 61<216.5 284> 571 80<137 217 137 217 137 283 283 363>
VStem: 30 78<169.5 285.5> 137 80<571 651> 283 80<571 651> 391 78<171 287 155 289>
LayerCount: 2
Fore
SplineSet
469 220 m 0
 469 90 369 -11 249 -11 c 0
 132 -11 30 88 30 220 c 0
 30 351 127 461 250 461 c 0
 369 461 469 354 469 220 c 0
391 230 m 0
 391 348 319 400 249 400 c 0
 184 400 108 351 108 230 c 0
 108 109 180 53 249 53 c 0
 323 53 391 112 391 230 c 0
217 571 m 1
 137 571 l 1
 137 651 l 1
 217 651 l 1
 217 571 l 1
363 571 m 1
 283 571 l 1
 283 651 l 1
 363 651 l 1
 363 571 l 1
EndSplineSet
Validated: 1
Substitution2: "'smcp' Lowercase to Small Capitals lookup 16 subtable" Odieresis.sc
EndChar

StartChar: divide
Encoding: 247 247 183
Width: 778
GlyphClass: 2
Flags: MW
HStem: 85 83<347 430 347 430> 230 40<89 90 90 687> 331 83<347 430 347 430>
VStem: 347 83<85 168 331 414>
LayerCount: 2
Fore
SplineSet
721 250 m 0
 721 230 702 230 687 230 c 2
 90 230 l 2
 75 230 56 230 56 250 c 0
 56 270 75 270 89 270 c 2
 688 270 l 2
 702 270 721 270 721 250 c 0
430 331 m 1
 347 331 l 1
 347 414 l 1
 430 414 l 1
 430 331 l 1
430 85 m 1
 347 85 l 1
 347 168 l 1
 430 168 l 1
 430 85 l 1
EndSplineSet
Validated: 1
EndChar

StartChar: oslash
Encoding: 248 248 184
Width: 500
GlyphClass: 2
Flags: MW
HStem: -112 21G<96 96> -11 61<239.5 285.5 239.5 308> 400 61<212.5 260> 537 20G<403 403>
VStem: 32 75<209.5 279 209.5 286> 392 75<162.5 252>
LayerCount: 2
Fore
SplineSet
467 220 m 0
 467 89 367 -11 249 -11 c 0
 224 -11 194 -6 163 8 c 1
 96 -112 l 1
 43 -82 l 1
 112 41 l 1
 87 65 32 118 32 220 c 0
 32 352 129 461 250 461 c 0
 280 461 314 452 338 441 c 1
 403 557 l 1
 456 527 l 1
 388 406 l 1
 435 363 467 296 467 220 c 0
307 387 m 1
 289 396 270 400 250 400 c 0
 175 400 107 338 107 220 c 0
 107 199 108 145 144 99 c 1
 307 387 l 1
392 220 m 0
 392 284 371 326 355 347 c 1
 194 61 l 1
 211 53 230 50 249 50 c 0
 322 50 392 105 392 220 c 0
EndSplineSet
Validated: 1
Substitution2: "'smcp' Lowercase to Small Capitals lookup 16 subtable" Oslash.sc
EndChar

StartChar: ugrave
Encoding: 249 249 185
Width: 517
GlyphClass: 2
Flags: MW
HStem: -11 55<201.5 213.5> 424 20G<81 159 159 159 357 435 435 435> 527 21G<267 328 267 267> 674 20G<117 195 195 195>
VStem: 81 78<109 113 113 444> 159 78 357 78<154 444>
LayerCount: 2
Fore
SplineSet
435 0 m 1xc6
 360 0 l 1
 360 48 l 1
 311 5 240 -11 187 -11 c 0
 104 -11 81 37 81 109 c 2
 81 444 l 1xca
 159 444 l 1
 159 113 l 2
 159 70 166 44 237 44 c 0
 301 44 357 79 357 154 c 2
 357 444 l 1
 435 444 l 1
 435 0 l 1xc6
328 527 m 1x30
 267 527 l 1
 117 694 l 1
 195 694 l 1
 328 527 l 1x30
EndSplineSet
Validated: 1
Substitution2: "'smcp' Lowercase to Small Capitals lookup 16 subtable" Ugrave.sc
EndChar

StartChar: uacute
Encoding: 250 250 186
Width: 517
GlyphClass: 2
Flags: MW
HStem: -11 55<201.5 213.5> 424 20G<81 159 159 159 357 435 435 435> 527 21G<188 249 188 188> 674 20G<321 399 399 399>
VStem: 81 78<109 113 113 444> 159 78 357 78<154 444>
LayerCount: 2
Fore
SplineSet
435 0 m 1xc6
 360 0 l 1
 360 48 l 1
 311 5 240 -11 187 -11 c 0
 104 -11 81 37 81 109 c 2
 81 444 l 1xca
 159 444 l 1
 159 113 l 2
 159 70 166 44 237 44 c 0
 301 44 357 79 357 154 c 2
 357 444 l 1
 435 444 l 1
 435 0 l 1xc6
399 694 m 1x30
 249 527 l 1
 188 527 l 1
 321 694 l 1
 399 694 l 1x30
EndSplineSet
Validated: 1
Substitution2: "'smcp' Lowercase to Small Capitals lookup 16 subtable" Uacute.sc
EndChar

StartChar: ucircumflex
Encoding: 251 251 187
Width: 517
GlyphClass: 2
Flags: MW
HStem: -11 55<201.5 213.5> 424 20G<81 159 159 159 357 435 435 435> 525 21G<103 162 103 103 354 413 354 354> 677 20G<228 288 288 288>
VStem: 81 78<109 113 113 444> 159 78 357 78<154 444>
LayerCount: 2
Fore
SplineSet
435 0 m 1xc6
 360 0 l 1
 360 48 l 1
 311 5 240 -11 187 -11 c 0
 104 -11 81 37 81 109 c 2
 81 444 l 1xca
 159 444 l 1
 159 113 l 2
 159 70 166 44 237 44 c 0
 301 44 357 79 357 154 c 2
 357 444 l 1
 435 444 l 1
 435 0 l 1xc6
413 525 m 1x30
 354 525 l 1
 258 648 l 1
 162 525 l 1
 103 525 l 1
 228 697 l 1
 288 697 l 1
 413 525 l 1x30
EndSplineSet
Validated: 1
Substitution2: "'smcp' Lowercase to Small Capitals lookup 16 subtable" Ucircumflex.sc
EndChar

StartChar: udieresis
Encoding: 252 252 188
Width: 517
GlyphClass: 2
Flags: MW
HStem: -11 55<201.5 213.5> 424 20G<81 159 159 159 357 435 435 435> 571 80<145 225 145 225 145 291 291 371>
VStem: 81 78<109 113 113 444> 145 80<571 651> 159 78 291 80<571 651> 357 78<154 444>
LayerCount: 2
Fore
SplineSet
435 0 m 1xc5
 360 0 l 1
 360 48 l 1
 311 5 240 -11 187 -11 c 0
 104 -11 81 37 81 109 c 2
 81 444 l 1xd1
 159 444 l 1
 159 113 l 2
 159 70 166 44 237 44 c 0
 301 44 357 79 357 154 c 2
 357 444 l 1
 435 444 l 1
 435 0 l 1xc5
225 571 m 1x2a
 145 571 l 1
 145 651 l 1
 225 651 l 1
 225 571 l 1x2a
371 571 m 1
 291 571 l 1
 291 651 l 1
 371 651 l 1
 371 571 l 1
EndSplineSet
Validated: 1
Substitution2: "'smcp' Lowercase to Small Capitals lookup 16 subtable" Udieresis.sc
EndChar

StartChar: yacute
Encoding: 253 253 189
Width: 461
GlyphClass: 2
Flags: MW
HStem: -205 57<107 122 107 132.5> -148 57 0 57<208 238> 424 20G<14 93 93 93 371 446 446 446> 527 21G<161 222 161 161> 674 20G<294 372 372 372>
LayerCount: 2
Fore
SplineSet
446 444 m 1xb0
 228 -91 l 2x50
 187 -193 150 -205 115 -205 c 0
 93 -205 65 -202 43 -197 c 1
 37 -132 l 1
 67 -144 99 -148 115 -148 c 0
 129 -148 146 -148 172 -90 c 2
 208 0 l 1
 14 444 l 1
 93 444 l 1
 147 319 l 2
 151 310 231 124 237 57 c 1
 238 57 l 1
 239 80 241 126 371 444 c 1
 446 444 l 1xb0
372 694 m 1x0c
 222 527 l 1
 161 527 l 1
 294 694 l 1
 372 694 l 1x0c
EndSplineSet
Validated: 1
Substitution2: "'smcp' Lowercase to Small Capitals lookup 16 subtable" Yacute.sc
EndChar

StartChar: thorn
Encoding: 254 254 190
Width: 517
GlyphClass: 2
Flags: MW
HStem: -194 21G<82 160 82 82> -11 61<265 293.5 236.5 343.5> 391 64<291 304> 674 20G<82 157 157 157>
VStem: 82 78<-194 46 123 132 132 333> 402 78<171.5 269>
LayerCount: 2
Fore
SplineSet
480 223 m 0
 480 87 392 -11 295 -11 c 0
 235 -11 191 17 160 46 c 1
 160 -194 l 1
 82 -194 l 1
 82 694 l 1
 157 694 l 1
 157 395 l 1
 203 434 261 455 321 455 c 0
 417 455 480 343 480 223 c 0
402 223 m 0
 402 315 342 391 266 391 c 0
 223 391 184 368 160 333 c 1
 160 132 l 2
 160 114 160 112 170 97 c 0
 190 70 217 50 256 50 c 0
 331 50 402 120 402 223 c 0
EndSplineSet
Validated: 1
Substitution2: "'smcp' Lowercase to Small Capitals lookup 16 subtable" Thorn.sc
EndChar

StartChar: ydieresis
Encoding: 255 255 191
Width: 461
GlyphClass: 2
Flags: MW
HStem: -205 57<107 122 107 132.5> -148 57 0 57<208 238> 424 20G<14 93 93 93 371 446 446 446> 571 80<118 198 118 198 118 264 264 344>
VStem: 118 80<571 651> 264 80<571 651>
LayerCount: 2
Fore
SplineSet
446 444 m 1xb0
 228 -91 l 2x50
 187 -193 150 -205 115 -205 c 0
 93 -205 65 -202 43 -197 c 1
 37 -132 l 1
 67 -144 99 -148 115 -148 c 0
 129 -148 146 -148 172 -90 c 2
 208 0 l 1
 14 444 l 1
 93 444 l 1
 147 319 l 2
 151 310 231 124 237 57 c 1
 238 57 l 1
 239 80 241 126 371 444 c 1
 446 444 l 1xb0
198 571 m 1x0e
 118 571 l 1
 118 651 l 1
 198 651 l 1
 198 571 l 1x0e
344 571 m 1
 264 571 l 1
 264 651 l 1
 344 651 l 1
 344 571 l 1
EndSplineSet
Validated: 1
Substitution2: "'smcp' Lowercase to Small Capitals lookup 16 subtable" Ydieresis.sc
EndChar

StartChar: Amacron
Encoding: 256 256 192
Width: 667
GlyphClass: 2
Flags: MW
HStem: 0 21G<28 102 28 28 546 638 546 546> 204 56<200 448 200 470 179 448> 674 20G<289 377 377 377> 756 64<153 514 153 514>
VStem: 28 610<0 0>
LayerCount: 2
Fore
SplineSet
638 0 m 1
 546 0 l 1
 470 204 l 1
 179 204 l 1
 102 0 l 1
 28 0 l 1
 289 694 l 1
 377 694 l 1
 638 0 l 1
448 260 m 1
 357 517 l 2
 334 583 327 608 325 622 c 1
 324 622 l 1
 317 585 286 500 265 441 c 0
 214 298 251 403 200 260 c 1
 448 260 l 1
514 756 m 1
 153 756 l 1
 153 820 l 1
 514 820 l 1
 514 756 l 1
EndSplineSet
Validated: 1
Position2: "'cpsp' Capital Spacing lookup 0 subtable" dx=7 dy=0 dh=14 dv=0
EndChar

StartChar: amacron
Encoding: 257 257 193
Width: 481
GlyphClass: 2
Flags: MW
HStem: -11 61<124.5 224.5> 194 53 402 59<219.5 267.5> 579 64<60 421 60 421>
VStem: 54 72<94 150 94 157> 331 78<132 194 194 194 245 288 288 289>
LayerCount: 2
Fore
SplineSet
409 0 m 1
 334 0 l 1
 334 36 l 1
 276 -9 182 -11 168 -11 c 0
 81 -11 54 70 54 113 c 0
 54 201 181 243 331 245 c 1
 331 288 l 2
 331 362 291 402 244 402 c 0
 195 402 145 389 93 352 c 1
 87 418 l 1
 134 445 179 461 244 461 c 0
 336 461 409 391 409 289 c 2
 409 0 l 1
331 132 m 2
 331 194 l 1
 288 192 126 185 126 115 c 0
 126 73 171 50 219 50 c 0
 230 50 268 51 297 69 c 0
 331 88 331 113 331 132 c 2
421 579 m 1
 60 579 l 1
 60 643 l 1
 421 643 l 1
 421 579 l 1
EndSplineSet
Validated: 1
EndChar

StartChar: Abreve
Encoding: 258 258 194
Width: 667
GlyphClass: 2
Flags: MW
HStem: 0 21G<28 102 28 28 546 638 546 546> 204 56<200 448 200 470 179 448> 674 20G<289 377 377 377> 746 67<308.5 358 308.5 377.5> 904 20G<165 226 226 226 441 502 502 502>
VStem: 28 610<0 0>
LayerCount: 2
Fore
SplineSet
638 0 m 1
 546 0 l 1
 470 204 l 1
 179 204 l 1
 102 0 l 1
 28 0 l 1
 289 694 l 1
 377 694 l 1
 638 0 l 1
448 260 m 1
 357 517 l 2
 334 583 327 608 325 622 c 1
 324 622 l 1
 317 585 286 500 265 441 c 0
 214 298 251 403 200 260 c 1
 448 260 l 1
502 924 m 1
 500 819 422 746 333 746 c 0
 247 746 167 817 165 924 c 1
 226 924 l 1
 228 852 283 813 334 813 c 0
 382 813 439 850 441 924 c 1
 502 924 l 1
EndSplineSet
Validated: 1
Position2: "'cpsp' Capital Spacing lookup 0 subtable" dx=7 dy=0 dh=14 dv=0
EndChar

StartChar: abreve
Encoding: 259 259 195
Width: 481
GlyphClass: 2
Flags: MW
HStem: -11 61<124.5 224.5> 194 53 402 59<219.5 267.5> 522 67<215.5 265 215.5 284.5> 680 20G<72 133 133 133 348 409 409 409>
VStem: 54 72<94 150 94 157> 331 78<132 194 194 194 245 288 288 289>
LayerCount: 2
Fore
SplineSet
409 0 m 1
 334 0 l 1
 334 36 l 1
 276 -9 182 -11 168 -11 c 0
 81 -11 54 70 54 113 c 0
 54 201 181 243 331 245 c 1
 331 288 l 2
 331 362 291 402 244 402 c 0
 195 402 145 389 93 352 c 1
 87 418 l 1
 134 445 179 461 244 461 c 0
 336 461 409 391 409 289 c 2
 409 0 l 1
331 132 m 2
 331 194 l 1
 288 192 126 185 126 115 c 0
 126 73 171 50 219 50 c 0
 230 50 268 51 297 69 c 0
 331 88 331 113 331 132 c 2
409 700 m 1
 407 595 329 522 240 522 c 0
 154 522 74 593 72 700 c 1
 133 700 l 1
 135 628 190 589 241 589 c 0
 289 589 346 626 348 700 c 1
 409 700 l 1
EndSplineSet
Validated: 1
Substitution2: "'smcp' Lowercase to Small Capitals lookup 16 subtable" Abreve.sc
EndChar

StartChar: Aogonek
Encoding: 260 260 196
Width: 667
GlyphClass: 2
Flags: MW
HStem: -212 70 0 21G<28 102 28 28 546 546 609 609 609 638> 204 56<200 448 200 470 179 448> 674 20G<289 377 377 377>
VStem: 459 63 546 63<0 0> 575 63
LayerCount: 2
Fore
SplineSet
656 -187 m 1x8a
 616 -206 591 -212 558 -212 c 0
 491 -212 460 -170 459 -127 c 0
 456 -76 496 -28 546 0 c 1xec
 470 204 l 1
 179 204 l 1
 102 0 l 1
 28 0 l 1
 289 694 l 1
 377 694 l 1
 638 0 l 1x72
 609 0 l 1x44
 563 -26 521 -60 522 -104 c 0
 523 -134 547 -140 575 -142 c 0
 597 -143 620 -137 642 -128 c 1
 656 -187 l 1x8a
448 260 m 1
 357 517 l 2
 334 583 327 608 325 622 c 1
 324 622 l 1
 317 585 286 500 265 441 c 0
 214 298 251 403 200 260 c 1
 448 260 l 1
EndSplineSet
Validated: 33
Position2: "'cpsp' Capital Spacing lookup 0 subtable" dx=7 dy=0 dh=14 dv=0
EndChar

StartChar: aogonek
Encoding: 261 261 197
Width: 481
GlyphClass: 2
Flags: MW
HStem: -11 61<124.5 224.5> 402 59<219.5 267.5>
VStem: 54 72<94 150 94 157> 331 78<132 194 194 194 245 288 288 289 0 325>
LayerCount: 2
Fore
SplineSet
444 -187 m 1
 404 -206 379 -212 346 -212 c 0
 279 -212 248 -170 247 -127 c 0
 244 -76 284 -28 334 0 c 1
 334 36 l 1
 276 -9 182 -11 168 -11 c 0
 81 -11 54 70 54 113 c 0
 54 201 181 243 331 245 c 1
 331 288 l 2
 331 362 291 402 244 402 c 0
 195 402 145 389 93 352 c 1
 87 418 l 1
 134 445 179 461 244 461 c 0
 336 461 409 391 409 289 c 2
 409 0 l 1
 398 0 l 1
 352 -26 309 -60 310 -104 c 0
 311 -134 335 -140 363 -142 c 0
 385 -143 408 -137 430 -128 c 1
 444 -187 l 1
331 132 m 2
 331 194 l 1
 288 192 126 185 126 115 c 0
 126 73 171 50 219 50 c 0
 230 50 268 51 297 69 c 0
 331 88 331 113 331 132 c 2
EndSplineSet
Validated: 33
Substitution2: "'smcp' Lowercase to Small Capitals lookup 16 subtable" Aogonek.sc
EndChar

StartChar: Cacute
Encoding: 262 262 198
Width: 639
GlyphClass: 2
Flags: MW
HStem: -11 64<355.5 405 355.5 405.5> 642 64<355.5 403> 746 21G<256 345 256 256> 848 20G<431 542 542 542>
VStem: 66 89<309.5 384.5 309.5 393.5>
LayerCount: 2
Fore
SplineSet
587 45 m 1
 557 27 526 9 492 0 c 0
 458 -10 423 -11 388 -11 c 0
 300 -11 219 29 160 94 c 0
 98 163 66 254 66 347 c 0
 66 440 98 531 160 601 c 0
 219 666 300 706 388 706 c 0
 420 706 452 704 483 698 c 0
 515 692 546 682 576 670 c 1
 562 588 l 1
 536 606 508 621 478 630 c 0
 449 639 418 642 388 642 c 0
 323 642 264 607 223 556 c 0
 177 497 155 422 155 347 c 0
 155 272 177 198 223 139 c 0
 264 88 323 53 388 53 c 0
 422 53 457 54 489 65 c 0
 523 75 552 94 581 114 c 1
 587 45 l 1
542 868 m 1
 345 746 l 1
 256 746 l 1
 431 868 l 1
 542 868 l 1
EndSplineSet
Validated: 1
Position2: "'cpsp' Capital Spacing lookup 0 subtable" dx=7 dy=0 dh=14 dv=0
EndChar

StartChar: cacute
Encoding: 263 263 199
Width: 444
GlyphClass: 2
Flags: MW
HStem: -11 64<211.5 278.5 211.5 279> 397 64<204 283> 527 21G<174 235 174 174> 674 20G<307 385 385 385>
VStem: 36 78<174 262 174 281>
LayerCount: 2
Fore
SplineSet
415 40 m 1
 361 3 306 -11 252 -11 c 0
 127 -11 36 98 36 222 c 0
 36 340 117 461 256 461 c 0
 317 461 351 452 410 418 c 1
 398 353 l 1
 343 389 309 397 257 397 c 0
 151 397 114 301 114 223 c 0
 114 125 170 53 253 53 c 0
 304 53 358 67 409 107 c 1
 415 40 l 1
385 694 m 1
 235 527 l 1
 174 527 l 1
 307 694 l 1
 385 694 l 1
EndSplineSet
Validated: 1
Substitution2: "'smcp' Lowercase to Small Capitals lookup 16 subtable" Cacute.sc
EndChar

StartChar: Ccircumflex
Encoding: 264 264 200
Width: 639
GlyphClass: 2
Flags: MW
HStem: -11 64<355.5 405 355.5 405.5> 642 64<355.5 403> 736 21G<195 254 195 195 448 507 448 448> 850 20G<321 381 381 381>
VStem: 66 89<309.5 384.5 309.5 393.5>
LayerCount: 2
Fore
SplineSet
587 45 m 1
 557 27 526 9 492 0 c 0
 458 -10 423 -11 388 -11 c 0
 300 -11 219 29 160 94 c 0
 98 163 66 254 66 347 c 0
 66 440 98 531 160 601 c 0
 219 666 300 706 388 706 c 0
 420 706 452 704 483 698 c 0
 515 692 546 682 576 670 c 1
 562 588 l 1
 536 606 508 621 478 630 c 0
 449 639 418 642 388 642 c 0
 323 642 264 607 223 556 c 0
 177 497 155 422 155 347 c 0
 155 272 177 198 223 139 c 0
 264 88 323 53 388 53 c 0
 422 53 457 54 489 65 c 0
 523 75 552 94 581 114 c 1
 587 45 l 1
507 736 m 1
 448 736 l 1
 351 833 l 1
 254 736 l 1
 195 736 l 1
 321 870 l 1
 381 870 l 1
 507 736 l 1
EndSplineSet
Validated: 1
Position2: "'cpsp' Capital Spacing lookup 0 subtable" dx=7 dy=0 dh=14 dv=0
EndChar

StartChar: ccircumflex
Encoding: 265 265 201
Width: 444
GlyphClass: 2
Flags: MW
HStem: -11 64<211.5 278.5 211.5 279> 397 64<204 283> 525 21G<89 148 89 89 340 399 340 340> 677 20G<214 274 274 274>
VStem: 36 78<174 262 174 281>
LayerCount: 2
Fore
SplineSet
415 40 m 1
 361 3 306 -11 252 -11 c 0
 127 -11 36 98 36 222 c 0
 36 340 117 461 256 461 c 0
 317 461 351 452 410 418 c 1
 398 353 l 1
 343 389 309 397 257 397 c 0
 151 397 114 301 114 223 c 0
 114 125 170 53 253 53 c 0
 304 53 358 67 409 107 c 1
 415 40 l 1
399 525 m 1
 340 525 l 1
 244 648 l 1
 148 525 l 1
 89 525 l 1
 214 697 l 1
 274 697 l 1
 399 525 l 1
EndSplineSet
Validated: 1
EndChar

StartChar: Cdotaccent
Encoding: 266 266 202
Width: 639
GlyphClass: 2
Flags: MW
HStem: -11 64<355.5 405 355.5 405.5> 642 64<355.5 403> 736 89<306 395 306 395>
VStem: 66 89<309.5 384.5 309.5 393.5> 306 89<736 825>
LayerCount: 2
Fore
SplineSet
587 45 m 1
 557 27 526 9 492 0 c 0
 458 -10 423 -11 388 -11 c 0
 300 -11 219 29 160 94 c 0
 98 163 66 254 66 347 c 0
 66 440 98 531 160 601 c 0
 219 666 300 706 388 706 c 0
 420 706 452 704 483 698 c 0
 515 692 546 682 576 670 c 1
 562 588 l 1
 536 606 508 621 478 630 c 0
 449 639 418 642 388 642 c 0
 323 642 264 607 223 556 c 0
 177 497 155 422 155 347 c 0
 155 272 177 198 223 139 c 0
 264 88 323 53 388 53 c 0
 422 53 457 54 489 65 c 0
 523 75 552 94 581 114 c 1
 587 45 l 1
395 736 m 1
 306 736 l 1
 306 825 l 1
 395 825 l 1
 395 736 l 1
EndSplineSet
Validated: 1
Position2: "'cpsp' Capital Spacing lookup 0 subtable" dx=7 dy=0 dh=14 dv=0
EndChar

StartChar: cdotaccent
Encoding: 267 267 203
Width: 444
GlyphClass: 2
Flags: MW
HStem: -11 64<211.5 278.5 211.5 279> 397 64<204 283> 566 89<199 288 199 288>
VStem: 36 78<174 262 174 281> 199 89<566 655>
LayerCount: 2
Fore
SplineSet
415 40 m 1
 361 3 306 -11 252 -11 c 0
 127 -11 36 98 36 222 c 0
 36 340 117 461 256 461 c 0
 317 461 351 452 410 418 c 1
 398 353 l 1
 343 389 309 397 257 397 c 0
 151 397 114 301 114 223 c 0
 114 125 170 53 253 53 c 0
 304 53 358 67 409 107 c 1
 415 40 l 1
288 566 m 1
 199 566 l 1
 199 655 l 1
 288 655 l 1
 288 566 l 1
EndSplineSet
Validated: 1
EndChar

StartChar: Ccaron
Encoding: 268 268 204
Width: 639
GlyphClass: 2
Flags: MW
HStem: -11 64<355.5 405 355.5 405.5> 642 64<355.5 403> 736 21G<321 381 321 321> 850 20G<195 254 254 254 448 507 507 507>
VStem: 66 89<309.5 384.5 309.5 393.5>
LayerCount: 2
Fore
SplineSet
587 45 m 1
 557 27 526 9 492 0 c 0
 458 -10 423 -11 388 -11 c 0
 300 -11 219 29 160 94 c 0
 98 163 66 254 66 347 c 0
 66 440 98 531 160 601 c 0
 219 666 300 706 388 706 c 0
 420 706 452 704 483 698 c 0
 515 692 546 682 576 670 c 1
 562 588 l 1
 536 606 508 621 478 630 c 0
 449 639 418 642 388 642 c 0
 323 642 264 607 223 556 c 0
 177 497 155 422 155 347 c 0
 155 272 177 198 223 139 c 0
 264 88 323 53 388 53 c 0
 422 53 457 54 489 65 c 0
 523 75 552 94 581 114 c 1
 587 45 l 1
507 870 m 1
 381 736 l 1
 321 736 l 1
 195 870 l 1
 254 870 l 1
 351 773 l 1
 448 870 l 1
 507 870 l 1
EndSplineSet
Validated: 1
Position2: "'cpsp' Capital Spacing lookup 0 subtable" dx=7 dy=0 dh=14 dv=0
EndChar

StartChar: ccaron
Encoding: 269 269 205
Width: 444
GlyphClass: 2
Flags: MW
HStem: -11 64<211.5 278.5 211.5 279> 397 64<204 283> 525 21G<214 274 214 214> 677 20G<89 148 148 148 340 399 399 399>
VStem: 36 78<174 262 174 281>
LayerCount: 2
Fore
SplineSet
415 40 m 1
 361 3 306 -11 252 -11 c 0
 127 -11 36 98 36 222 c 0
 36 340 117 461 256 461 c 0
 317 461 351 452 410 418 c 1
 398 353 l 1
 343 389 309 397 257 397 c 0
 151 397 114 301 114 223 c 0
 114 125 170 53 253 53 c 0
 304 53 358 67 409 107 c 1
 415 40 l 1
399 697 m 1
 274 525 l 1
 214 525 l 1
 89 697 l 1
 148 697 l 1
 244 574 l 1
 340 697 l 1
 399 697 l 1
EndSplineSet
Validated: 1
Substitution2: "'smcp' Lowercase to Small Capitals lookup 16 subtable" Ccaron.sc
EndChar

StartChar: Dcaron
Encoding: 270 270 206
Width: 722
GlyphClass: 2
Flags: MW
HStem: 0 56<182 335 335 359> 638 56<182 335 182 182> 736 21G<229 289 229 229> 850 20G<103 162 162 162 356 415 415 415>
VStem: 96 86<56 638 56 694 56 694> 579 86<256 429>
LayerCount: 2
Fore
SplineSet
665 341 m 0
 665 152 529 0 359 0 c 2
 96 0 l 1
 96 694 l 1
 358 694 l 2
 530 694 665 535 665 341 c 0
579 341 m 0
 579 517 475 638 335 638 c 2
 182 638 l 1
 182 56 l 1
 335 56 l 2
 475 56 579 171 579 341 c 0
415 870 m 1
 289 736 l 1
 229 736 l 1
 103 870 l 1
 162 870 l 1
 259 773 l 1
 356 870 l 1
 415 870 l 1
EndSplineSet
Validated: 1
Position2: "'cpsp' Capital Spacing lookup 0 subtable" dx=7 dy=0 dh=14 dv=0
EndChar

StartChar: dcaron
Encoding: 271 271 207
Width: 517
GlyphClass: 2
Flags: MW
HStem: -11 61<218 224.5> 78 61 339 61<356 359> 394 61<229.5 231.5 163.5 281.5> 507 21G<471 508 471 471> 619 75<471 493 359 471>
VStem: 36 78<159 286.5> 356 78<0 52 52 52 139 339 339 339> 359 75<400 694>
LayerCount: 2
Fore
SplineSet
434 0 m 1x2480
 356 0 l 1
 356 52 l 1
 300 -2 241 -11 208 -11 c 0
 113 -11 36 91 36 222 c 0
 36 351 114 455 213 455 c 0xd3
 250 455 306 444 359 400 c 1
 359 694 l 1
 434 694 l 1
 434 0 l 1x2480
356 139 m 2
 356 339 l 1x6d
 334 371 304 394 259 394 c 0
 200 394 114 353 114 221 c 0
 114 97 187 50 249 50 c 0
 275 50 300 58 323 78 c 0
 355 107 356 125 356 139 c 2
545 620 m 1
 508 507 l 1
 471 507 l 1
 493 619 l 1
 471 619 l 1
 471 694 l 1
 545 694 l 1
 545 620 l 1
EndSplineSet
Validated: 1
Substitution2: "'smcp' Lowercase to Small Capitals lookup 16 subtable" Dcaron.sc
EndChar

StartChar: Dcroat
Encoding: 272 272 208
Width: 722
GlyphClass: 2
Flags: MW
HStem: 0 56<182 335 335 359> 315 64<18 96 18 96 182 283> 638 56<182 335 182 182>
VStem: 96 86<56 315 56 315 56 315 379 638> 579 86<256 429>
CounterMasks: 1 e0
LayerCount: 2
Fore
SplineSet
665 341 m 0
 665 152 529 0 359 0 c 2
 96 0 l 1
 96 315 l 1
 18 315 l 1
 18 379 l 1
 96 379 l 1
 96 694 l 1
 358 694 l 2
 530 694 665 535 665 341 c 0
579 341 m 0
 579 517 475 638 335 638 c 2
 182 638 l 1
 182 379 l 1
 283 379 l 1
 283 315 l 1
 182 315 l 1
 182 56 l 1
 335 56 l 2
 475 56 579 171 579 341 c 0
EndSplineSet
Validated: 1
Position2: "'cpsp' Capital Spacing lookup 0 subtable" dx=7 dy=0 dh=14 dv=0
EndChar

StartChar: dcroat
Encoding: 273 273 209
Width: 517
GlyphClass: 2
Flags: MW
HStem: -11 61<218 224.5> 78 61 339 61<356 359> 394 61<229.5 231.5 163.5 281.5> 537 64<207 359 207 359 434 512> 674 20G<359 434 434 434>
VStem: 36 78<159 286.5> 356 78<0 52 52 52 139 339 339 339> 359 75<400 537 0 537 601 694> 434 78<0 537 537 601 537 694>
LayerCount: 2
Fore
SplineSet
512 537 m 1x0c40
 434 537 l 1
 434 0 l 1
 356 0 l 1
 356 52 l 1
 300 -2 241 -11 208 -11 c 0
 113 -11 36 91 36 222 c 0
 36 351 114 455 213 455 c 0x9b
 250 455 306 444 359 400 c 1
 359 537 l 1
 207 537 l 1
 207 601 l 1
 359 601 l 1
 359 694 l 1x2c80
 434 694 l 1
 434 601 l 1
 512 601 l 1
 512 537 l 1x0c40
356 139 m 2xda40
 356 339 l 1x61
 334 371 304 394 259 394 c 0
 200 394 114 353 114 221 c 0
 114 97 187 50 249 50 c 0
 275 50 300 58 323 78 c 0
 355 107 356 125 356 139 c 2xda40
EndSplineSet
Validated: 1
Substitution2: "'smcp' Lowercase to Small Capitals lookup 16 subtable" Dcroat.sc
EndChar

StartChar: Emacron
Encoding: 274 274 210
Width: 597
GlyphClass: 2
Flags: MW
HStem: 0 70<183 392 392 398 183 554> 329 61<183 513 183 513> 626 65<351 357 357 540> 756 64<119 480 119 480>
VStem: 94 89<70 329 390 627>
LayerCount: 2
Fore
SplineSet
554 0 m 1
 94 0 l 1
 94 691 l 1
 540 691 l 1
 540 626 l 1
 357 626 l 2
 345 626 333 627 321 627 c 2
 183 627 l 1
 183 390 l 1
 513 390 l 1
 513 329 l 1
 183 329 l 1
 183 70 l 1
 392 70 l 2
 404 70 416 71 428 71 c 2
 554 71 l 1
 554 0 l 1
480 756 m 1
 119 756 l 1
 119 820 l 1
 480 820 l 1
 480 756 l 1
EndSplineSet
Validated: 1
Position2: "'cpsp' Capital Spacing lookup 0 subtable" dx=7 dy=0 dh=14 dv=0
EndChar

StartChar: emacron
Encoding: 275 275 211
Width: 444
GlyphClass: 2
Flags: MW
HStem: -11 61<212 263.5 212 282.5> 219 55<110 357 110 414 105 357> 400 61<207.5 254 180.5 262> 579 64<42 403 42 403>
VStem: 35 75<274 274 274 290.5> 357 57<219 274>
LayerCount: 2
Fore
SplineSet
414 219 m 1
 105 219 l 1
 108 121 172 50 252 50 c 0
 275 50 341 54 404 106 c 1
 410 41 l 1
 371 13 314 -11 251 -11 c 0
 131 -11 35 94 35 226 c 0
 35 355 125 461 236 461 c 0
 272 461 333 450 374 388 c 0
 413 328 414 253 414 219 c 1
357 274 m 1
 344 366 288 400 236 400 c 0
 179 400 126 350 110 274 c 1
 357 274 l 1
403 579 m 1
 42 579 l 1
 42 643 l 1
 403 643 l 1
 403 579 l 1
EndSplineSet
Validated: 1
EndChar

StartChar: Ebreve
Encoding: 276 276 212
Width: 597
GlyphClass: 2
Flags: MW
HStem: 0 70<183 392 392 398 183 554> 329 61<183 513 183 513> 626 65<351 357 357 540> 746 67<274.5 324 274.5 343.5> 904 20G<131 192 192 192 407 468 468 468>
VStem: 94 89<70 329 390 627>
LayerCount: 2
Fore
SplineSet
554 0 m 1
 94 0 l 1
 94 691 l 1
 540 691 l 1
 540 626 l 1
 357 626 l 2
 345 626 333 627 321 627 c 2
 183 627 l 1
 183 390 l 1
 513 390 l 1
 513 329 l 1
 183 329 l 1
 183 70 l 1
 392 70 l 2
 404 70 416 71 428 71 c 2
 554 71 l 1
 554 0 l 1
468 924 m 1
 466 819 388 746 299 746 c 0
 213 746 133 817 131 924 c 1
 192 924 l 1
 194 852 249 813 300 813 c 0
 348 813 405 850 407 924 c 1
 468 924 l 1
EndSplineSet
Validated: 1
Position2: "'cpsp' Capital Spacing lookup 0 subtable" dx=7 dy=0 dh=14 dv=0
EndChar

StartChar: ebreve
Encoding: 277 277 213
Width: 444
GlyphClass: 2
Flags: MW
HStem: -11 61<212 263.5 212 282.5> 219 55<110 357 110 414 105 357> 400 61<207.5 254 180.5 262> 522 67<197.5 247 197.5 266.5> 680 20G<54 115 115 115 330 391 391 391>
VStem: 35 75<274 274 274 290.5> 357 57<219 274>
LayerCount: 2
Fore
SplineSet
414 219 m 1
 105 219 l 1
 108 121 172 50 252 50 c 0
 275 50 341 54 404 106 c 1
 410 41 l 1
 371 13 314 -11 251 -11 c 0
 131 -11 35 94 35 226 c 0
 35 355 125 461 236 461 c 0
 272 461 333 450 374 388 c 0
 413 328 414 253 414 219 c 1
357 274 m 1
 344 366 288 400 236 400 c 0
 179 400 126 350 110 274 c 1
 357 274 l 1
391 700 m 1
 389 595 311 522 222 522 c 0
 136 522 56 593 54 700 c 1
 115 700 l 1
 117 628 172 589 223 589 c 0
 271 589 328 626 330 700 c 1
 391 700 l 1
EndSplineSet
Validated: 1
EndChar

StartChar: Edotaccent
Encoding: 278 278 214
Width: 597
GlyphClass: 2
Flags: MW
HStem: 0 70<183 392 392 398 183 554> 329 61<183 513 183 513> 626 65<351 357 357 540> 736 89<254 343 254 343>
VStem: 94 89<70 329 390 627> 254 89<736 825>
LayerCount: 2
Fore
SplineSet
554 0 m 1
 94 0 l 1
 94 691 l 1
 540 691 l 1
 540 626 l 1
 357 626 l 2
 345 626 333 627 321 627 c 2
 183 627 l 1
 183 390 l 1
 513 390 l 1
 513 329 l 1
 183 329 l 1
 183 70 l 1
 392 70 l 2
 404 70 416 71 428 71 c 2
 554 71 l 1
 554 0 l 1
343 736 m 1
 254 736 l 1
 254 825 l 1
 343 825 l 1
 343 736 l 1
EndSplineSet
Validated: 1
Position2: "'cpsp' Capital Spacing lookup 0 subtable" dx=7 dy=0 dh=14 dv=0
EndChar

StartChar: edotaccent
Encoding: 279 279 215
Width: 444
GlyphClass: 2
Flags: MW
HStem: -11 61<212 263.5 212 282.5> 219 55<110 357 110 414 105 357> 400 61<207.5 254 180.5 262> 566 89<177 266 177 266>
VStem: 35 75<274 274 274 290.5> 177 89<566 655> 357 57<219 274>
LayerCount: 2
Fore
SplineSet
414 219 m 1
 105 219 l 1
 108 121 172 50 252 50 c 0
 275 50 341 54 404 106 c 1
 410 41 l 1
 371 13 314 -11 251 -11 c 0
 131 -11 35 94 35 226 c 0
 35 355 125 461 236 461 c 0
 272 461 333 450 374 388 c 0
 413 328 414 253 414 219 c 1
357 274 m 1
 344 366 288 400 236 400 c 0
 179 400 126 350 110 274 c 1
 357 274 l 1
266 566 m 1
 177 566 l 1
 177 655 l 1
 266 655 l 1
 266 566 l 1
EndSplineSet
Validated: 1
EndChar

StartChar: Eogonek
Encoding: 280 280 216
Width: 597
GlyphClass: 2
Flags: MW
HStem: -212 70 0 70<183 392 392 398 183 444> 329 61<183 513 183 513> 626 65<351 357 357 540>
VStem: 94 89<70 329 390 627> 357 63 420 89
LayerCount: 2
Fore
SplineSet
554 -187 m 1x84
 514 -206 489 -212 456 -212 c 0
 389 -212 358 -170 357 -127 c 0
 354 -76 401 -29 444 0 c 1
 94 0 l 1
 94 691 l 1
 540 691 l 1
 540 626 l 1
 357 626 l 2xdc
 345 626 333 627 321 627 c 2
 183 627 l 1
 183 390 l 1
 513 390 l 1
 513 329 l 1
 183 329 l 1
 183 70 l 1
 392 70 l 2
 404 70 416 71 428 71 c 2
 554 71 l 1
 554 0 l 1
 509 0 l 1x6a
 463 -26 419 -60 420 -104 c 0
 421 -134 445 -140 473 -142 c 0
 495 -143 518 -137 540 -128 c 1
 554 -187 l 1x84
EndSplineSet
Validated: 33
Position2: "'cpsp' Capital Spacing lookup 0 subtable" dx=7 dy=0 dh=14 dv=0
EndChar

StartChar: eogonek
Encoding: 281 281 217
Width: 444
GlyphClass: 2
Flags: MW
HStem: -212 70 -11 61<212 251> 219 55<110 357 110 414 105 357> 400 61<207.5 254 180.5 262>
VStem: 35 70<219 219 219 290.5> 183 63 236 63
LayerCount: 2
Fore
SplineSet
414 219 m 1x5a
 105 219 l 1
 108 121 172 50 252 50 c 0
 275 50 341 54 404 106 c 1
 410 41 l 1
 389 26 364 13 335 3 c 1
 289 -23 245 -60 246 -104 c 0x6c
 247 -134 271 -140 299 -142 c 0x82
 321 -143 344 -137 366 -128 c 1
 380 -187 l 1
 340 -206 315 -212 282 -212 c 0
 215 -212 184 -170 183 -127 c 0x84
 180 -83 211 -39 251 -11 c 1
 131 -11 35 94 35 226 c 0
 35 355 125 461 236 461 c 0
 272 461 333 450 374 388 c 0
 413 328 414 253 414 219 c 1x5a
357 274 m 1
 344 366 288 400 236 400 c 0x32
 179 400 126 350 110 274 c 1
 357 274 l 1
EndSplineSet
Validated: 33
Substitution2: "'smcp' Lowercase to Small Capitals lookup 16 subtable" Eogonek.sc
EndChar

StartChar: Ecaron
Encoding: 282 282 218
Width: 597
GlyphClass: 2
Flags: MW
HStem: 0 70<183 392 392 398 183 554> 329 61<183 513 183 513> 626 65<351 357 357 540> 736 21G<269 329 269 269> 850 20G<143 202 202 202 396 455 455 455>
VStem: 94 89<70 329 390 627>
LayerCount: 2
Fore
SplineSet
554 0 m 1
 94 0 l 1
 94 691 l 1
 540 691 l 1
 540 626 l 1
 357 626 l 2
 345 626 333 627 321 627 c 2
 183 627 l 1
 183 390 l 1
 513 390 l 1
 513 329 l 1
 183 329 l 1
 183 70 l 1
 392 70 l 2
 404 70 416 71 428 71 c 2
 554 71 l 1
 554 0 l 1
455 870 m 1
 329 736 l 1
 269 736 l 1
 143 870 l 1
 202 870 l 1
 299 773 l 1
 396 870 l 1
 455 870 l 1
EndSplineSet
Validated: 1
Position2: "'cpsp' Capital Spacing lookup 0 subtable" dx=7 dy=0 dh=14 dv=0
EndChar

StartChar: ecaron
Encoding: 283 283 219
Width: 444
GlyphClass: 2
Flags: MW
HStem: -11 61<212 263.5 212 282.5> 219 55<110 357 110 414 105 357> 400 61<207.5 254 180.5 262> 525 21G<192 252 192 192> 677 20G<67 126 126 126 318 377 377 377>
VStem: 35 75<274 274 274 290.5> 357 57<219 274>
LayerCount: 2
Fore
SplineSet
414 219 m 1
 105 219 l 1
 108 121 172 50 252 50 c 0
 275 50 341 54 404 106 c 1
 410 41 l 1
 371 13 314 -11 251 -11 c 0
 131 -11 35 94 35 226 c 0
 35 355 125 461 236 461 c 0
 272 461 333 450 374 388 c 0
 413 328 414 253 414 219 c 1
357 274 m 1
 344 366 288 400 236 400 c 0
 179 400 126 350 110 274 c 1
 357 274 l 1
377 697 m 1
 252 525 l 1
 192 525 l 1
 67 697 l 1
 126 697 l 1
 222 574 l 1
 318 697 l 1
 377 697 l 1
EndSplineSet
Validated: 1
Substitution2: "'smcp' Lowercase to Small Capitals lookup 16 subtable" Ecaron.sc
EndChar

StartChar: Gcircumflex
Encoding: 284 284 220
Width: 667
GlyphClass: 2
Flags: MW
HStem: -11 64<355.5 410.5 355.5 424.5> 239 61<388 520 388 598> 642 64<355.5 405> 736 21G<177 236 177 177 430 489 430 430> 850 20G<303 363 363 363>
VStem: 66 89<309.5 384.5 309.5 393.5> 520 78<74 239 239 239>
LayerCount: 2
Fore
SplineSet
598 38 m 1
 533 6 461 -11 388 -11 c 0
 301 -11 219 29 160 94 c 0
 98 163 66 254 66 347 c 0
 66 440 98 531 160 601 c 0
 219 666 301 706 388 706 c 0
 423 706 458 703 492 695 c 0
 526 686 559 673 590 656 c 1
 575 574 l 1
 549 596 520 615 487 626 c 0
 455 638 422 642 388 642 c 0
 323 642 264 607 223 556 c 0
 177 497 155 422 155 347 c 0
 155 272 177 198 223 139 c 0
 264 88 323 53 388 53 c 0
 433 53 478 60 520 74 c 1
 520 239 l 1
 388 239 l 1
 388 300 l 1
 598 300 l 1
 598 38 l 1
489 736 m 1
 430 736 l 1
 333 833 l 1
 236 736 l 1
 177 736 l 1
 303 870 l 1
 363 870 l 1
 489 736 l 1
EndSplineSet
Validated: 1
Position2: "'cpsp' Capital Spacing lookup 0 subtable" dx=7 dy=0 dh=14 dv=0
EndChar

StartChar: gcircumflex
Encoding: 285 285 221
Width: 500
GlyphClass: 2
Flags: MW
HStem: -206 57<209.5 291 209.5 310.5> -3 72<137 265 177 265 265 266> 129 57<202.5 242.5 202.5 266> 398 57<202.5 241 178 242.5> 525 21G<60 119 60 60 311 370 311 311> 677 20G<185 245 245 245>
VStem: 28 70<-94.5 -69.5 -94.5 -58> 62 70<273.5 333.5 250.5 337.5> 311 70<253 316 247.5 331> 401 70<-94 -37.5>
LayerCount: 2
Fore
SplineSet
485 392 m 1x11
 485 392 444 395 426 395 c 0
 402 395 374 391 352 391 c 1
 348 392 l 1
 359 377 381 340 381 292 c 0
 381 203 311 129 221 129 c 0
 184 129 151 143 130 158 c 1
 123 149 119 133 119 122 c 0
 119 69 164 69 177 69 c 2
 265 69 l 2
 304 69 471 69 471 -70 c 0
 471 -147 372 -206 249 -206 c 0
 127 -206 28 -146 28 -71 c 0xe2c0
 28 -45 40 1 92 32 c 1
 75 53 66 82 66 108 c 0
 66 113 66 152 95 193 c 1
 75 219 62 255 62 292 c 0
 62 383 135 455 221 455 c 0
 261 455 295 440 316 423 c 1
 346 436 404 455 474 455 c 1
 485 392 l 1x11
311 292 m 0
 311 370 264 398 221 398 c 0
 184 398 132 375 132 292 c 0x9180
 132 209 184 186 221 186 c 0
 264 186 311 214 311 292 c 0
401 -72 m 0
 401 -3 288 -3 266 -3 c 2
 176 -3 l 2
 98 -3 98 -68 98 -71 c 0x4240
 98 -118 169 -149 250 -149 c 0
 332 -149 401 -116 401 -72 c 0
370 525 m 1x0c80
 311 525 l 1
 215 648 l 1
 119 525 l 1
 60 525 l 1
 185 697 l 1
 245 697 l 1
 370 525 l 1x0c80
EndSplineSet
Validated: 1
EndChar

StartChar: Gbreve
Encoding: 286 286 222
Width: 667
GlyphClass: 2
Flags: MW
HStem: -11 64<355.5 410.5 355.5 424.5> 239 61<388 520 388 598> 642 64<355.5 405> 746 67<308.5 358 308.5 377.5> 904 20G<165 226 226 226 441 502 502 502>
VStem: 66 89<309.5 384.5 309.5 393.5> 520 78<74 239 239 239>
LayerCount: 2
Fore
SplineSet
598 38 m 1
 533 6 461 -11 388 -11 c 0
 301 -11 219 29 160 94 c 0
 98 163 66 254 66 347 c 0
 66 440 98 531 160 601 c 0
 219 666 301 706 388 706 c 0
 423 706 458 703 492 695 c 0
 526 686 559 673 590 656 c 1
 575 574 l 1
 549 596 520 615 487 626 c 0
 455 638 422 642 388 642 c 0
 323 642 264 607 223 556 c 0
 177 497 155 422 155 347 c 0
 155 272 177 198 223 139 c 0
 264 88 323 53 388 53 c 0
 433 53 478 60 520 74 c 1
 520 239 l 1
 388 239 l 1
 388 300 l 1
 598 300 l 1
 598 38 l 1
502 924 m 1
 500 819 422 746 333 746 c 0
 247 746 167 817 165 924 c 1
 226 924 l 1
 228 852 283 813 334 813 c 0
 382 813 439 850 441 924 c 1
 502 924 l 1
EndSplineSet
Validated: 1
Position2: "'cpsp' Capital Spacing lookup 0 subtable" dx=7 dy=0 dh=14 dv=0
EndChar

StartChar: gbreve
Encoding: 287 287 223
Width: 500
GlyphClass: 2
Flags: MW
HStem: -206 57<209.5 291 209.5 310.5> -3 72<137 265 177 265 265 266> 129 57<202.5 242.5 202.5 266> 398 57<202.5 241 178 242.5> 522 67<190.5 240 190.5 259.5> 680 20G<47 108 108 108 323 384 384 384>
VStem: 28 70<-94.5 -69.5 -94.5 -58> 62 70<273.5 333.5 250.5 337.5> 311 70<253 316 247.5 331> 401 70<-94 -37.5>
LayerCount: 2
Fore
SplineSet
485 392 m 1x11
 485 392 444 395 426 395 c 0
 402 395 374 391 352 391 c 1
 348 392 l 1
 359 377 381 340 381 292 c 0
 381 203 311 129 221 129 c 0
 184 129 151 143 130 158 c 1
 123 149 119 133 119 122 c 0
 119 69 164 69 177 69 c 2
 265 69 l 2
 304 69 471 69 471 -70 c 0
 471 -147 372 -206 249 -206 c 0
 127 -206 28 -146 28 -71 c 0xe2c0
 28 -45 40 1 92 32 c 1
 75 53 66 82 66 108 c 0
 66 113 66 152 95 193 c 1
 75 219 62 255 62 292 c 0
 62 383 135 455 221 455 c 0
 261 455 295 440 316 423 c 1
 346 436 404 455 474 455 c 1
 485 392 l 1x11
311 292 m 0
 311 370 264 398 221 398 c 0
 184 398 132 375 132 292 c 0x9180
 132 209 184 186 221 186 c 0
 264 186 311 214 311 292 c 0
401 -72 m 0
 401 -3 288 -3 266 -3 c 2
 176 -3 l 2
 98 -3 98 -68 98 -71 c 0x4240
 98 -118 169 -149 250 -149 c 0
 332 -149 401 -116 401 -72 c 0
384 700 m 1x0c
 382 595 304 522 215 522 c 0
 129 522 49 593 47 700 c 1
 108 700 l 1
 110 628 165 589 216 589 c 0
 264 589 321 626 323 700 c 1
 384 700 l 1x0c
EndSplineSet
Validated: 1
Substitution2: "'smcp' Lowercase to Small Capitals lookup 16 subtable" Gbreve.sc
EndChar

StartChar: Gdotaccent
Encoding: 288 288 224
Width: 667
GlyphClass: 2
Flags: MW
HStem: -11 64<355.5 410.5 355.5 424.5> 239 61<388 520 388 598> 642 64<355.5 405> 736 89<288 377 288 377>
VStem: 66 89<309.5 384.5 309.5 393.5> 288 89<736 825> 520 78<74 239 239 239>
LayerCount: 2
Fore
SplineSet
598 38 m 1
 533 6 461 -11 388 -11 c 0
 301 -11 219 29 160 94 c 0
 98 163 66 254 66 347 c 0
 66 440 98 531 160 601 c 0
 219 666 301 706 388 706 c 0
 423 706 458 703 492 695 c 0
 526 686 559 673 590 656 c 1
 575 574 l 1
 549 596 520 615 487 626 c 0
 455 638 422 642 388 642 c 0
 323 642 264 607 223 556 c 0
 177 497 155 422 155 347 c 0
 155 272 177 198 223 139 c 0
 264 88 323 53 388 53 c 0
 433 53 478 60 520 74 c 1
 520 239 l 1
 388 239 l 1
 388 300 l 1
 598 300 l 1
 598 38 l 1
377 736 m 1
 288 736 l 1
 288 825 l 1
 377 825 l 1
 377 736 l 1
EndSplineSet
Validated: 1
Position2: "'cpsp' Capital Spacing lookup 0 subtable" dx=7 dy=0 dh=14 dv=0
EndChar

StartChar: gdotaccent
Encoding: 289 289 225
Width: 500
GlyphClass: 2
Flags: MW
HStem: -206 57<209.5 291 209.5 310.5> -3 72<137 265 177 265 265 266> 129 57<202.5 242.5 202.5 266> 398 57<202.5 241 178 242.5> 566 89<170 259 170 259>
VStem: 28 70<-94.5 -69.5 -94.5 -58> 62 70<273.5 333.5 250.5 337.5> 170 89<566 655> 311 70<253 316 247.5 331> 401 70<-94 -37.5>
LayerCount: 2
Fore
SplineSet
485 392 m 1x12
 485 392 444 395 426 395 c 0
 402 395 374 391 352 391 c 1
 348 392 l 1
 359 377 381 340 381 292 c 0
 381 203 311 129 221 129 c 0
 184 129 151 143 130 158 c 1
 123 149 119 133 119 122 c 0
 119 69 164 69 177 69 c 2
 265 69 l 2
 304 69 471 69 471 -70 c 0
 471 -147 372 -206 249 -206 c 0
 127 -206 28 -146 28 -71 c 0xe4c0
 28 -45 40 1 92 32 c 1
 75 53 66 82 66 108 c 0
 66 113 66 152 95 193 c 1
 75 219 62 255 62 292 c 0
 62 383 135 455 221 455 c 0
 261 455 295 440 316 423 c 1
 346 436 404 455 474 455 c 1
 485 392 l 1x12
311 292 m 0
 311 370 264 398 221 398 c 0
 184 398 132 375 132 292 c 0x9280
 132 209 184 186 221 186 c 0
 264 186 311 214 311 292 c 0
401 -72 m 0
 401 -3 288 -3 266 -3 c 2
 176 -3 l 2
 98 -3 98 -68 98 -71 c 0x4440
 98 -118 169 -149 250 -149 c 0
 332 -149 401 -116 401 -72 c 0
259 566 m 1x09
 170 566 l 1
 170 655 l 1
 259 655 l 1
 259 566 l 1x09
EndSplineSet
Validated: 1
EndChar

StartChar: Gcommaaccent
Encoding: 290 290 226
Width: 667
GlyphClass: 2
Flags: MW
HStem: -266 21G<296 333 296 296> -154 75<296 318 296 370> -11 64<355.5 410.5 355.5 424.5> 239 61<388 520 388 598> 642 64<355.5 405>
VStem: 66 89<309.5 384.5 309.5 393.5> 520 78<74 239 239 239>
LayerCount: 2
Fore
SplineSet
598 38 m 1
 533 6 461 -11 388 -11 c 0
 301 -11 219 29 160 94 c 0
 98 163 66 254 66 347 c 0
 66 440 98 531 160 601 c 0
 219 666 301 706 388 706 c 0
 423 706 458 703 492 695 c 0
 526 686 559 673 590 656 c 1
 575 574 l 1
 549 596 520 615 487 626 c 0
 455 638 422 642 388 642 c 0
 323 642 264 607 223 556 c 0
 177 497 155 422 155 347 c 0
 155 272 177 198 223 139 c 0
 264 88 323 53 388 53 c 0
 433 53 478 60 520 74 c 1
 520 239 l 1
 388 239 l 1
 388 300 l 1
 598 300 l 1
 598 38 l 1
370 -153 m 1
 333 -266 l 1
 296 -266 l 1
 318 -154 l 1
 296 -154 l 1
 296 -79 l 1
 370 -79 l 1
 370 -153 l 1
EndSplineSet
Validated: 1
Position2: "'cpsp' Capital Spacing lookup 0 subtable" dx=7 dy=0 dh=14 dv=0
EndChar

StartChar: gcommaaccent
Encoding: 291 291 227
Width: 500
GlyphClass: 2
Flags: MW
HStem: -206 57<209.5 291 209.5 310.5> -3 72<137 265 177 265 265 266> 129 57<202.5 242.5 202.5 266> 398 57<202.5 241 178 242.5> 540 75<230 252 230 252 178 252> 707 20G<215 252 252 252>
VStem: 28 70<-94.5 -69.5 -94.5 -58> 62 70<273.5 333.5 250.5 337.5> 311 70<253 316 247.5 331> 401 70<-94 -37.5>
LayerCount: 2
Fore
SplineSet
252 540 m 1x1d
 178 540 l 1
 178 614 l 1
 215 727 l 1
 252 727 l 1
 230 615 l 1
 252 615 l 1
 252 540 l 1x1d
485 392 m 1
 485 392 444 395 426 395 c 0
 402 395 374 391 352 391 c 1
 348 392 l 1
 359 377 381 340 381 292 c 0
 381 203 311 129 221 129 c 0
 184 129 151 143 130 158 c 1
 123 149 119 133 119 122 c 0
 119 69 164 69 177 69 c 2
 265 69 l 2
 304 69 471 69 471 -70 c 0
 471 -147 372 -206 249 -206 c 0
 127 -206 28 -146 28 -71 c 0xe2c0
 28 -45 40 1 92 32 c 1
 75 53 66 82 66 108 c 0
 66 113 66 152 95 193 c 1
 75 219 62 255 62 292 c 0
 62 383 135 455 221 455 c 0
 261 455 295 440 316 423 c 1
 346 436 404 455 474 455 c 1
 485 392 l 1
311 292 m 0
 311 370 264 398 221 398 c 0
 184 398 132 375 132 292 c 0x9180
 132 209 184 186 221 186 c 0
 264 186 311 214 311 292 c 0
401 -72 m 0
 401 -3 288 -3 266 -3 c 2
 176 -3 l 2
 98 -3 98 -68 98 -71 c 0x4240
 98 -118 169 -149 250 -149 c 0
 332 -149 401 -116 401 -72 c 0
EndSplineSet
Validated: 1
EndChar

StartChar: Hcircumflex
Encoding: 292 292 228
Width: 708
GlyphClass: 2
Flags: MW
HStem: 0 21G<94 183 94 94 524 613 524 524> 330 61<183 524 183 524> 674 20G<94 183 183 183 524 613 613 613> 736 21G<198 257 198 198 451 510 451 451> 850 20G<324 384 384 384>
VStem: 94 89<0 330 0 391 391 694> 524 89<0 330 330 330 391 694>
LayerCount: 2
Fore
SplineSet
613 0 m 1
 524 0 l 1
 524 330 l 1
 183 330 l 1
 183 0 l 1
 94 0 l 1
 94 694 l 1
 183 694 l 1
 183 391 l 1
 524 391 l 1
 524 694 l 1
 613 694 l 1
 613 0 l 1
510 736 m 1
 451 736 l 1
 354 833 l 1
 257 736 l 1
 198 736 l 1
 324 870 l 1
 384 870 l 1
 510 736 l 1
EndSplineSet
Validated: 1
Position2: "'cpsp' Capital Spacing lookup 0 subtable" dx=7 dy=0 dh=14 dv=0
EndChar

StartChar: hcircumflex
Encoding: 293 293 229
Width: 517
GlyphClass: 2
Flags: MW
HStem: 0 21G<81 159 81 81 357 435 357 357> 394 61<267 308> 674 20G<81 156 156 156> 736 21G<102 161 102 102 355 414 355 355> 850 20G<228 288 288 288>
VStem: 81 75<383 694 383 694 383 694> 81 78<0 245 0 694> 357 78<0 291 291 298>
LayerCount: 2
Fore
SplineSet
435 0 m 1xe5
 357 0 l 1
 357 291 l 2
 357 323 356 394 260 394 c 0
 184 394 159 311 159 245 c 2
 159 0 l 1xc3
 81 0 l 1
 81 694 l 1
 156 694 l 1
 156 383 l 1
 188 424 236 455 298 455 c 0
 420 455 435 364 435 298 c 2
 435 0 l 1xe5
414 736 m 1x18
 355 736 l 1
 258 833 l 1
 161 736 l 1
 102 736 l 1
 228 870 l 1
 288 870 l 1
 414 736 l 1x18
EndSplineSet
Validated: 1
EndChar

StartChar: Hbar
Encoding: 294 294 230
Width: 708
GlyphClass: 2
Flags: MW
HStem: 0 21G<94 183 94 94 524 613 524 524> 330 61<183 524 183 524> 489 64<42 94 42 94 183 524 613 665> 674 20G<94 183 183 183 524 613 613 613>
VStem: 94 89<0 330 0 391 391 489 553 694> 524 89<0 330 330 330 391 489 0 489 553 694>
LayerCount: 2
Fore
SplineSet
665 489 m 1
 613 489 l 1
 613 0 l 1
 524 0 l 1
 524 330 l 1
 183 330 l 1
 183 0 l 1
 94 0 l 1
 94 489 l 1
 42 489 l 1
 42 553 l 1
 94 553 l 1
 94 694 l 1
 183 694 l 1
 183 553 l 1
 524 553 l 1
 524 694 l 1
 613 694 l 1
 613 553 l 1
 665 553 l 1
 665 489 l 1
524 391 m 1
 524 489 l 1
 183 489 l 1
 183 391 l 1
 524 391 l 1
EndSplineSet
Validated: 1
Position2: "'cpsp' Capital Spacing lookup 0 subtable" dx=7 dy=0 dh=14 dv=0
EndChar

StartChar: hbar
Encoding: 295 295 231
Width: 517
GlyphClass: 2
Flags: MW
HStem: 0 21G<81 159 81 81 357 435 357 357> 394 61<267 308> 537 64<3 81 3 81 156 258> 674 20G<81 156 156 156>
VStem: 3 78<0 601 0 601> 81 75<383 537 383 537 383 537 601 694> 81 78<0 245 0 537> 357 78<0 291 291 298>
LayerCount: 2
Fore
SplineSet
435 0 m 1x75
 357 0 l 1
 357 291 l 2
 357 323 356 394 260 394 c 0
 184 394 159 311 159 245 c 2
 159 0 l 1xc3
 81 0 l 1
 81 537 l 1
 3 537 l 1
 3 601 l 1xa8
 81 601 l 1
 81 694 l 1
 156 694 l 1
 156 601 l 1
 258 601 l 1
 258 537 l 1
 156 537 l 1
 156 383 l 1
 188 424 236 455 298 455 c 0
 420 455 435 364 435 298 c 2
 435 0 l 1x75
EndSplineSet
Validated: 1
EndChar

StartChar: Itilde
Encoding: 296 296 232
Width: 278
GlyphClass: 2
Flags: MW
HStem: 0 21G<94 183 94 94> 674 20G<94 183 183 183> 736 61<195.5 219 194.5 231.5> 794 61<60 83.5 47.5 84.5>
VStem: 94 89<0 694>
LayerCount: 2
Fore
SplineSet
183 0 m 1xc8
 94 0 l 1
 94 694 l 1
 183 694 l 1
 183 0 l 1xc8
306 855 m 1x10
 304 777 255 736 208 736 c 0x20
 183 736 163 748 144 761 c 0
 117 780 96 794 73 794 c 0x10
 47 794 35 770 34 736 c 1
 -27 736 l 1x20
 -25 814 24 855 71 855 c 0x10
 96 855 116 843 135 830 c 0
 162 811 183 797 206 797 c 0x20
 232 797 244 821 245 855 c 1
 306 855 l 1x10
EndSplineSet
Validated: 1
Position2: "'cpsp' Capital Spacing lookup 0 subtable" dx=7 dy=0 dh=14 dv=0
EndChar

StartChar: itilde
Encoding: 297 297 233
Width: 239
GlyphClass: 2
Flags: MW
HStem: 0 21G<81 156 81 81> 424 20G<81 156 156 156> 551 61<175.5 199 174.5 211.5> 609 61<40 63.5 27.5 64.5>
VStem: 81 75<0 444>
LayerCount: 2
Fore
SplineSet
156 0 m 1xc8
 81 0 l 1
 81 444 l 1
 156 444 l 1
 156 0 l 1xc8
286 670 m 1x10
 284 592 235 551 188 551 c 0x20
 163 551 143 563 124 576 c 0
 97 595 76 609 53 609 c 0x10
 27 609 15 585 14 551 c 1
 -47 551 l 1x20
 -45 629 4 670 51 670 c 0x10
 76 670 96 658 115 645 c 0
 142 626 163 612 186 612 c 0x20
 212 612 224 636 225 670 c 1
 286 670 l 1x10
EndSplineSet
Validated: 1
EndChar

StartChar: Imacron
Encoding: 298 298 234
Width: 278
GlyphClass: 2
Flags: MW
HStem: 0 21G<94 183 94 94> 674 20G<94 183 183 183> 756 64<-41 320 -41 320>
VStem: 94 89<0 694>
LayerCount: 2
Fore
SplineSet
183 0 m 1
 94 0 l 1
 94 694 l 1
 183 694 l 1
 183 0 l 1
320 756 m 1
 -41 756 l 1
 -41 820 l 1
 320 820 l 1
 320 756 l 1
EndSplineSet
Validated: 1
Position2: "'cpsp' Capital Spacing lookup 0 subtable" dx=7 dy=0 dh=14 dv=0
EndChar

StartChar: imacron
Encoding: 299 299 235
Width: 239
GlyphClass: 2
Flags: MW
HStem: 0 21G<81 156 81 81> 424 20G<81 156 156 156> 579 64<-61 300 -61 300>
VStem: 81 75<0 444>
LayerCount: 2
Fore
SplineSet
156 0 m 1
 81 0 l 1
 81 444 l 1
 156 444 l 1
 156 0 l 1
300 579 m 1
 -61 579 l 1
 -61 643 l 1
 300 643 l 1
 300 579 l 1
EndSplineSet
Validated: 1
EndChar

StartChar: Ibreve
Encoding: 300 300 236
Width: 278
GlyphClass: 2
Flags: MW
HStem: 0 21G<94 183 94 94> 674 20G<94 183 183 183> 746 67<114.5 164 114.5 183.5> 904 20G<-29 32 32 32 247 308 308 308>
VStem: 94 89<0 694>
LayerCount: 2
Fore
SplineSet
183 0 m 1
 94 0 l 1
 94 694 l 1
 183 694 l 1
 183 0 l 1
308 924 m 1
 306 819 228 746 139 746 c 0
 53 746 -27 817 -29 924 c 1
 32 924 l 1
 34 852 89 813 140 813 c 0
 188 813 245 850 247 924 c 1
 308 924 l 1
EndSplineSet
Validated: 1
Position2: "'cpsp' Capital Spacing lookup 0 subtable" dx=7 dy=0 dh=14 dv=0
EndChar

StartChar: ibreve
Encoding: 301 301 237
Width: 239
GlyphClass: 2
Flags: MW
HStem: 0 21G<81 156 81 81> 424 20G<81 156 156 156> 522 67<94.5 144 94.5 163.5> 680 20G<-49 12 12 12 227 288 288 288>
VStem: 81 75<0 444>
LayerCount: 2
Fore
SplineSet
156 0 m 1
 81 0 l 1
 81 444 l 1
 156 444 l 1
 156 0 l 1
288 700 m 1
 286 595 208 522 119 522 c 0
 33 522 -47 593 -49 700 c 1
 12 700 l 1
 14 628 69 589 120 589 c 0
 168 589 225 626 227 700 c 1
 288 700 l 1
EndSplineSet
Validated: 1
EndChar

StartChar: Iogonek
Encoding: 302 302 238
Width: 278
GlyphClass: 2
Flags: MW
HStem: -212 70 0 21G<94 119 94 94 183 183> 674 20G<94 183 183 183>
VStem: 94 89<0 694 0 694>
LayerCount: 2
Fore
SplineSet
229 -187 m 1
 189 -206 164 -212 131 -212 c 0
 64 -212 33 -170 32 -127 c 0
 29 -76 69 -28 119 0 c 1
 94 0 l 1
 94 694 l 1
 183 694 l 1
 183 0 l 1
 137 -26 94 -60 95 -104 c 0
 96 -134 120 -140 148 -142 c 0
 170 -143 193 -137 215 -128 c 1
 229 -187 l 1
EndSplineSet
Validated: 33
Position2: "'cpsp' Capital Spacing lookup 0 subtable" dx=7 dy=0 dh=14 dv=0
EndChar

StartChar: iogonek
Encoding: 303 303 239
Width: 239
GlyphClass: 2
Flags: MW
HStem: -212 70 0 21G<81 92 81 81 156 156> 424 20G<81 156 156 156> 591 89<74 163 74 163>
VStem: 81 75<0 444 0 444>
LayerCount: 2
Fore
SplineSet
163 591 m 1
 74 591 l 1
 74 680 l 1
 163 680 l 1
 163 591 l 1
202 -187 m 1
 162 -206 137 -212 104 -212 c 0
 37 -212 6 -170 5 -127 c 0
 2 -76 42 -28 92 0 c 1
 81 0 l 1
 81 444 l 1
 156 444 l 1
 156 0 l 1
 110 -26 67 -60 68 -104 c 0
 69 -134 93 -140 121 -142 c 0
 143 -143 166 -137 188 -128 c 1
 202 -187 l 1
EndSplineSet
Validated: 33
EndChar

StartChar: Idotaccent
Encoding: 304 304 240
Width: 278
GlyphClass: 2
Flags: MW
HStem: 0 21G<94 183 94 94> 674 20G<94 183 183 183> 736 89<94 183 94 183>
VStem: 94 89<0 694 736 825>
LayerCount: 2
Fore
SplineSet
183 0 m 1
 94 0 l 1
 94 694 l 1
 183 694 l 1
 183 0 l 1
183 736 m 1
 94 736 l 1
 94 825 l 1
 183 825 l 1
 183 736 l 1
EndSplineSet
Validated: 1
EndChar

StartChar: dotlessi
Encoding: 305 305 241
Width: 239
GlyphClass: 2
Flags: MW
HStem: 0 21G<81 156 81 81> 424 20G<81 156 156 156>
VStem: 81 75<0 444>
LayerCount: 2
Fore
SplineSet
156 0 m 1
 81 0 l 1
 81 444 l 1
 156 444 l 1
 156 0 l 1
EndSplineSet
Validated: 1
Substitution2: "'smcp' Lowercase to Small Capitals lookup 16 subtable" I.sc
EndChar

StartChar: I_J
Encoding: 306 306 242
Width: 722
GlyphClass: 3
Flags: MW
HStem: -22 61<421 493 413 514.5> 0 20 674 20G<94 183 183 183 552 638 638 638>
VStem: 94 89<0 694> 463 89 552 86<152 694>
LayerCount: 2
Fore
SplineSet
183 0 m 1x74
 94 0 l 1
 94 694 l 1
 183 694 l 1
 183 0 l 1x74
638 149 m 2
 638 36 566 -22 463 -22 c 0x88
 379 -22 316 8 292 20 c 1x40
 306 95 l 1
 340 57 392 39 434 39 c 0x80
 552 39 552 135 552 152 c 2
 552 694 l 1
 638 694 l 1
 638 149 l 2
EndSplineSet
Validated: 1
Ligature2: "'liga' Standard Ligatures lookup 9 subtable" I J
Position2: "'cpsp' Capital Spacing lookup 0 subtable" dx=7 dy=0 dh=14 dv=0
EndChar

StartChar: i_j
Encoding: 307 307 243
Width: 482
GlyphClass: 3
Flags: MW
HStem: -205 64<231.5 305.5> 566 89<74 163 74 163 310 399>
VStem: 74 89<566 655> 81 75<0 444> 310 89<566 655> 324 75<-68 -59 -59 444>
LayerCount: 2
Fore
SplineSet
163 566 m 1x64
 74 566 l 1
 74 655 l 1
 163 655 l 1
 163 566 l 1x64
399 566 m 1
 310 566 l 1
 310 655 l 1x58
 399 655 l 1
 399 566 l 1
156 0 m 1
 81 0 l 1
 81 444 l 1
 156 444 l 1
 156 0 l 1
399 -59 m 2
 399 -153 337 -205 274 -205 c 0
 248 -205 202 -199 154 -171 c 1
 169 -110 l 1
 191 -130 217 -141 246 -141 c 0
 274 -141 324 -132 324 -68 c 2
 324 444 l 1x84
 399 444 l 1
 399 -59 l 2
EndSplineSet
Validated: 1
Ligature2: "'liga' Standard Ligatures lookup 9 subtable" i j
Substitution2: "'smcp' Lowercase to Small Capitals lookup 16 subtable" IJ.sc
EndChar

StartChar: Jcircumflex
Encoding: 308 308 244
Width: 472
GlyphClass: 2
Flags: MW
HStem: -22 61<171 243 163 264.5> 674 20G<302 388 388 388> 736 21G<189 248 189 189 442 501 442 442> 850 20G<315 375 375 375>
VStem: 302 86<152 694>
LayerCount: 2
Fore
SplineSet
388 149 m 2
 388 36 316 -22 213 -22 c 0
 129 -22 66 8 42 20 c 1
 56 95 l 1
 90 57 142 39 184 39 c 0
 302 39 302 135 302 152 c 2
 302 694 l 1
 388 694 l 1
 388 149 l 2
501 736 m 1
 442 736 l 1
 345 833 l 1
 248 736 l 1
 189 736 l 1
 315 870 l 1
 375 870 l 1
 501 736 l 1
EndSplineSet
Validated: 1
Position2: "'cpsp' Capital Spacing lookup 0 subtable" dx=7 dy=0 dh=14 dv=0
EndChar

StartChar: jcircumflex
Encoding: 309 309 245
Width: 267
GlyphClass: 2
Flags: MW
HStem: -205 64<20 90.5> 424 20G<109 184 184 184> 525 21G<-15 44 -15 -15 236 295 236 236> 677 20G<110 170 170 170>
VStem: 34 75 109 75<-69 -59 -59 444>
LayerCount: 2
Fore
SplineSet
184 -59 m 2x44
 184 -153 122 -205 59 -205 c 0
 33 -205 -13 -199 -61 -171 c 1
 -40 -110 l 1
 -18 -131 6 -141 34 -141 c 0x88
 52 -141 109 -136 109 -69 c 2
 109 444 l 1
 184 444 l 1
 184 -59 l 2x44
295 525 m 1x30
 236 525 l 1
 140 648 l 1
 44 525 l 1
 -15 525 l 1
 110 697 l 1
 170 697 l 1
 295 525 l 1x30
EndSplineSet
Validated: 1
EndChar

StartChar: Kcommaaccent
Encoding: 310 310 246
Width: 694
GlyphClass: 2
Flags: MW
HStem: -266 21G<310 347 310 310> -154 75<310 332 310 384> 0 21G<96 181 96 96 559 651 559 559> 674 20G<96 181 181 181 544 637 637 637>
VStem: 96 85<0 227 323 694>
LayerCount: 2
Fore
SplineSet
651 0 m 1
 559 0 l 1
 314 364 l 1
 181 227 l 1
 181 0 l 1
 96 0 l 1
 96 694 l 1
 181 694 l 1
 181 323 l 1
 544 694 l 1
 637 694 l 1
 369 420 l 1
 651 0 l 1
384 -153 m 1
 347 -266 l 1
 310 -266 l 1
 332 -154 l 1
 310 -154 l 1
 310 -79 l 1
 384 -79 l 1
 384 -153 l 1
EndSplineSet
Validated: 1
Position2: "'cpsp' Capital Spacing lookup 0 subtable" dx=7 dy=0 dh=14 dv=0
EndChar

StartChar: kcommaaccent
Encoding: 311 311 247
Width: 489
GlyphClass: 2
Flags: MW
HStem: -266 21G<207 244 207 207> -154 75<207 229 207 281> 0 21G<84 153 84 84 389 471 389 389> 674 20G<84 156 156 156>
VStem: 84 72<236 694 236 694 236 694>
LayerCount: 2
Fore
SplineSet
471 0 m 1
 389 0 l 1
 233 224 l 1
 153 141 l 1
 153 0 l 1
 84 0 l 1
 84 694 l 1
 156 694 l 1
 156 236 l 1
 359 444 l 1
 449 444 l 1
 281 272 l 1
 471 0 l 1
281 -153 m 1
 244 -266 l 1
 207 -266 l 1
 229 -154 l 1
 207 -154 l 1
 207 -79 l 1
 281 -79 l 1
 281 -153 l 1
EndSplineSet
Validated: 1
EndChar

StartChar: Lacute
Encoding: 313 313 248
Width: 542
GlyphClass: 2
Flags: MW
HStem: 0 64<183 232 183 499> 674 20G<94 183 183 183> 746 21G<94 183 94 94> 848 20G<269 380 380 380>
VStem: 94 89<64 694 64 694 64 694 64 746>
LayerCount: 2
Fore
SplineSet
499 0 m 1
 94 0 l 1
 94 694 l 1
 183 694 l 1
 183 64 l 1
 232 64 l 1
 499 66 l 1
 499 0 l 1
380 868 m 1
 183 746 l 1
 94 746 l 1
 269 868 l 1
 380 868 l 1
EndSplineSet
Validated: 1
Position2: "'cpsp' Capital Spacing lookup 0 subtable" dx=7 dy=0 dh=14 dv=0
EndChar

StartChar: lacute
Encoding: 314 314 249
Width: 239
GlyphClass: 2
Flags: MW
HStem: 0 21G<81 156 81 81> 674 20G<81 156 156 156> 746 21G<81 170 81 81> 848 20G<256 367 367 367>
VStem: 81 75<0 694>
LayerCount: 2
Fore
SplineSet
156 0 m 1
 81 0 l 1
 81 694 l 1
 156 694 l 1
 156 0 l 1
367 868 m 1
 170 746 l 1
 81 746 l 1
 256 868 l 1
 367 868 l 1
EndSplineSet
Validated: 1
Substitution2: "'smcp' Lowercase to Small Capitals lookup 16 subtable" Lacute.sc
EndChar

StartChar: Lcommaaccent
Encoding: 315 315 250
Width: 542
GlyphClass: 2
Flags: MW
HStem: -266 21G<234 271 234 234> -154 75<234 256 234 308> 0 64<183 232 183 499> 674 20G<94 183 183 183>
VStem: 94 89<64 694 64 694 64 694>
LayerCount: 2
Fore
SplineSet
499 0 m 1
 94 0 l 1
 94 694 l 1
 183 694 l 1
 183 64 l 1
 232 64 l 1
 499 66 l 1
 499 0 l 1
308 -153 m 1
 271 -266 l 1
 234 -266 l 1
 256 -154 l 1
 234 -154 l 1
 234 -79 l 1
 308 -79 l 1
 308 -153 l 1
EndSplineSet
Validated: 1
Position2: "'cpsp' Capital Spacing lookup 0 subtable" dx=7 dy=0 dh=14 dv=0
EndChar

StartChar: lcommaaccent
Encoding: 316 316 251
Width: 239
GlyphClass: 2
Flags: MW
HStem: -266 21G<82 119 82 82> -154 75<82 104 82 156> 0 21G<81 156 81 81> 674 20G<81 156 156 156>
VStem: 81 75<0 694>
LayerCount: 2
Fore
SplineSet
156 0 m 1
 81 0 l 1
 81 694 l 1
 156 694 l 1
 156 0 l 1
156 -153 m 1
 119 -266 l 1
 82 -266 l 1
 104 -154 l 1
 82 -154 l 1
 82 -79 l 1
 156 -79 l 1
 156 -153 l 1
EndSplineSet
Validated: 1
EndChar

StartChar: Lcaron
Encoding: 317 317 252
Width: 542
GlyphClass: 2
Flags: MW
HStem: 0 64<183 232 183 499> 507 21G<239 276 239 239> 619 75<239 261 94 239>
VStem: 94 89<64 694 64 694 64 694>
LayerCount: 2
Fore
SplineSet
499 0 m 1
 94 0 l 1
 94 694 l 1
 183 694 l 1
 183 64 l 1
 232 64 l 1
 499 66 l 1
 499 0 l 1
313 620 m 1
 276 507 l 1
 239 507 l 1
 261 619 l 1
 239 619 l 1
 239 694 l 1
 313 694 l 1
 313 620 l 1
EndSplineSet
Validated: 1
Position2: "'cpsp' Capital Spacing lookup 0 subtable" dx=7 dy=0 dh=14 dv=0
EndChar

StartChar: lcaron
Encoding: 318 318 253
Width: 239
GlyphClass: 2
Flags: MW
HStem: 0 21G<81 156 81 81> 507 21G<193 230 193 193> 619 75<193 215 81 193>
VStem: 81 75<0 694>
LayerCount: 2
Fore
SplineSet
156 0 m 1
 81 0 l 1
 81 694 l 1
 156 694 l 1
 156 0 l 1
267 620 m 1
 230 507 l 1
 193 507 l 1
 215 619 l 1
 193 619 l 1
 193 694 l 1
 267 694 l 1
 267 620 l 1
EndSplineSet
Validated: 1
Substitution2: "'smcp' Lowercase to Small Capitals lookup 16 subtable" Lcaron.sc
EndChar

StartChar: Ldot
Encoding: 319 319 254
Width: 542
GlyphClass: 2
Flags: MW
HStem: 0 64<183 232 183 499> 324 89<364 453 364 453> 674 20G<94 183 183 183>
VStem: 94 89<64 694 64 694 64 694> 364 89<324 413>
LayerCount: 2
Fore
SplineSet
499 0 m 1
 94 0 l 1
 94 694 l 1
 183 694 l 1
 183 64 l 1
 232 64 l 1
 499 66 l 1
 499 0 l 1
453 324 m 1
 364 324 l 1
 364 413 l 1
 453 413 l 1
 453 324 l 1
EndSplineSet
Validated: 1
Position2: "'cpsp' Capital Spacing lookup 0 subtable" dx=7 dy=0 dh=14 dv=0
EndChar

StartChar: ldot
Encoding: 320 320 255
Width: 288
GlyphClass: 2
Flags: MW
HStem: 0 21G<81 156 81 81> 324 89<217 306 217 306> 674 20G<81 156 156 156>
VStem: 81 75<0 694> 217 89<324 413>
LayerCount: 2
Fore
SplineSet
156 0 m 1
 81 0 l 1
 81 694 l 1
 156 694 l 1
 156 0 l 1
306 324 m 1
 217 324 l 1
 217 413 l 1
 306 413 l 1
 306 324 l 1
EndSplineSet
Validated: 1
EndChar

StartChar: Lslash
Encoding: 321 321 256
Width: 625
GlyphClass: 2
Flags: MW
HStem: 0 64<271 320 271 587> 674 20G<182 271 271 271>
VStem: 182 89<64 289 289 289 438 694>
LayerCount: 2
Fore
SplineSet
587 0 m 1
 182 0 l 1
 182 289 l 1
 118 235 l 1
 81 278 l 1
 182 363 l 1
 182 694 l 1
 271 694 l 1
 271 438 l 1
 401 548 l 1
 439 503 l 1
 271 363 l 1
 271 64 l 1
 320 64 l 1
 587 66 l 1
 587 0 l 1
EndSplineSet
Validated: 1
Position2: "'cpsp' Capital Spacing lookup 0 subtable" dx=7 dy=0 dh=14 dv=0
EndChar

StartChar: lslash
Encoding: 322 322 257
Width: 324
GlyphClass: 2
Flags: MW
HStem: 0 21G<137 212 137 137> 674 20G<137 212 212 212>
VStem: 137 75<0 289 289 289 432 694>
LayerCount: 2
Fore
SplineSet
320 448 m 1
 212 355 l 1
 212 0 l 1
 137 0 l 1
 137 289 l 1
 77 237 l 1
 39 282 l 1
 137 368 l 1
 137 694 l 1
 212 694 l 1
 212 432 l 1
 280 492 l 1
 320 448 l 1
EndSplineSet
Validated: 1
Substitution2: "'smcp' Lowercase to Small Capitals lookup 16 subtable" Lslash.sc
EndChar

StartChar: Nacute
Encoding: 323 323 258
Width: 708
GlyphClass: 2
Flags: MW
HStem: 0 21G<96 174 96 96 487 611 487 487> 674 20G<96 220 220 220 533 611 611 611> 746 21G<259 348 259 259> 848 20G<434 545 545 545>
VStem: 96 78<0 623 0 694 0 694> 533 78<71 694>
LayerCount: 2
Fore
SplineSet
611 0 m 1
 487 0 l 1
 242 486 l 1
 175 623 l 1
 174 623 l 1
 174 0 l 1
 96 0 l 1
 96 694 l 1
 220 694 l 1
 465 208 l 1
 532 71 l 1
 533 71 l 1
 533 694 l 1
 611 694 l 1
 611 0 l 1
545 868 m 1
 348 746 l 1
 259 746 l 1
 434 868 l 1
 545 868 l 1
EndSplineSet
Validated: 1
Position2: "'cpsp' Capital Spacing lookup 0 subtable" dx=7 dy=0 dh=14 dv=0
EndChar

StartChar: nacute
Encoding: 324 324 259
Width: 517
GlyphClass: 2
Flags: MW
HStem: 0 21G<81 159 81 81 357 435 357 357> 394 61<253 308> 527 21G<188 249 188 188> 674 20G<321 399 399 399>
VStem: 81 78<0 245 0 450> 357 78<0 291 291 298>
LayerCount: 2
Fore
SplineSet
435 0 m 1
 357 0 l 1
 357 291 l 2
 357 323 356 394 260 394 c 0
 184 394 159 311 159 245 c 2
 159 0 l 1
 81 0 l 1
 81 450 l 1
 153 450 l 1
 153 379 l 1
 159 387 208 455 298 455 c 0
 420 455 435 364 435 298 c 2
 435 0 l 1
399 694 m 1
 249 527 l 1
 188 527 l 1
 321 694 l 1
 399 694 l 1
EndSplineSet
Validated: 1
Substitution2: "'smcp' Lowercase to Small Capitals lookup 16 subtable" Nacute.sc
EndChar

StartChar: Ncommaaccent
Encoding: 325 325 260
Width: 708
GlyphClass: 2
Flags: MW
HStem: -266 21G<317 354 317 317> -154 75<317 339 317 391> 0 21G<96 174 96 96 487 611 487 487> 674 20G<96 220 220 220 533 611 611 611>
VStem: 96 78<0 623 0 694 0 694> 533 78<71 694>
LayerCount: 2
Fore
SplineSet
611 0 m 1
 487 0 l 1
 242 486 l 1
 175 623 l 1
 174 623 l 1
 174 0 l 1
 96 0 l 1
 96 694 l 1
 220 694 l 1
 465 208 l 1
 532 71 l 1
 533 71 l 1
 533 694 l 1
 611 694 l 1
 611 0 l 1
391 -153 m 1
 354 -266 l 1
 317 -266 l 1
 339 -154 l 1
 317 -154 l 1
 317 -79 l 1
 391 -79 l 1
 391 -153 l 1
EndSplineSet
Validated: 1
Position2: "'cpsp' Capital Spacing lookup 0 subtable" dx=7 dy=0 dh=14 dv=0
EndChar

StartChar: ncommaaccent
Encoding: 326 326 261
Width: 517
GlyphClass: 2
Flags: MW
HStem: -266 21G<221 258 221 221> -154 75<221 243 221 295> 0 21G<81 159 81 81 357 435 357 357> 394 61<253 308>
VStem: 81 78<0 245 0 450> 357 78<0 291 291 298>
LayerCount: 2
Fore
SplineSet
435 0 m 1
 357 0 l 1
 357 291 l 2
 357 323 356 394 260 394 c 0
 184 394 159 311 159 245 c 2
 159 0 l 1
 81 0 l 1
 81 450 l 1
 153 450 l 1
 153 379 l 1
 159 387 208 455 298 455 c 0
 420 455 435 364 435 298 c 2
 435 0 l 1
295 -153 m 1
 258 -266 l 1
 221 -266 l 1
 243 -154 l 1
 221 -154 l 1
 221 -79 l 1
 295 -79 l 1
 295 -153 l 1
EndSplineSet
Validated: 1
EndChar

StartChar: Ncaron
Encoding: 327 327 262
Width: 708
GlyphClass: 2
Flags: MW
HStem: 0 21G<96 174 96 96 487 611 487 487> 674 20G<96 220 220 220 533 611 611 611> 736 21G<324 384 324 324> 850 20G<198 257 257 257 451 510 510 510>
VStem: 96 78<0 623 0 694 0 694> 533 78<71 694>
LayerCount: 2
Fore
SplineSet
611 0 m 1
 487 0 l 1
 242 486 l 1
 175 623 l 1
 174 623 l 1
 174 0 l 1
 96 0 l 1
 96 694 l 1
 220 694 l 1
 465 208 l 1
 532 71 l 1
 533 71 l 1
 533 694 l 1
 611 694 l 1
 611 0 l 1
510 870 m 1
 384 736 l 1
 324 736 l 1
 198 870 l 1
 257 870 l 1
 354 773 l 1
 451 870 l 1
 510 870 l 1
EndSplineSet
Validated: 1
Position2: "'cpsp' Capital Spacing lookup 0 subtable" dx=7 dy=0 dh=14 dv=0
EndChar

StartChar: ncaron
Encoding: 328 328 263
Width: 517
GlyphClass: 2
Flags: MW
HStem: 0 21G<81 159 81 81 357 435 357 357> 394 61<253 308> 525 21G<228 288 228 228> 677 20G<103 162 162 162 354 413 413 413>
VStem: 81 78<0 245 0 450> 357 78<0 291 291 298>
LayerCount: 2
Fore
SplineSet
435 0 m 1
 357 0 l 1
 357 291 l 2
 357 323 356 394 260 394 c 0
 184 394 159 311 159 245 c 2
 159 0 l 1
 81 0 l 1
 81 450 l 1
 153 450 l 1
 153 379 l 1
 159 387 208 455 298 455 c 0
 420 455 435 364 435 298 c 2
 435 0 l 1
413 697 m 1
 288 525 l 1
 228 525 l 1
 103 697 l 1
 162 697 l 1
 258 574 l 1
 354 697 l 1
 413 697 l 1
EndSplineSet
Validated: 1
Substitution2: "'smcp' Lowercase to Small Capitals lookup 16 subtable" Ncaron.sc
EndChar

StartChar: Eng
Encoding: 330 330 264
Width: 708
GlyphClass: 2
Flags: MW
HStem: -22 78<390 449 390 469> 638 78<349 449>
VStem: 94 89<0 467 627 694> 525 88<278 416>
LayerCount: 2
Fore
SplineSet
613 347 m 0
 613 165 548 -22 390 -22 c 1
 390 56 l 1
 508 56 525 209 525 347 c 0
 525 485 508 638 390 638 c 0
 288 638 205 564 183 467 c 1
 183 0 l 1
 94 0 l 1
 94 694 l 1
 183 694 l 1
 183 627 l 1
 235 682 308 716 390 716 c 0
 548 716 613 529 613 347 c 0
EndSplineSet
Validated: 1
Position2: "'cpsp' Capital Spacing lookup 0 subtable" dx=7 dy=0 dh=14 dv=0
EndChar

StartChar: eng
Encoding: 331 331 265
Width: 517
GlyphClass: 2
Flags: MW
HStem: -209 64<284 314 284 332> 394 61<253 308>
VStem: 81 78<0 245 0 450> 357 78<0 291 291 298>
LayerCount: 2
Fore
SplineSet
435 0 m 2
 435 -106 380 -209 284 -209 c 1
 284 -145 l 1
 344 -145 357 -70 357 0 c 2
 357 291 l 2
 357 323 356 394 260 394 c 0
 184 394 159 311 159 245 c 2
 159 0 l 1
 81 0 l 1
 81 450 l 1
 153 450 l 1
 153 379 l 1
 159 387 208 455 298 455 c 0
 420 455 435 364 435 298 c 2
 435 0 l 2
EndSplineSet
Validated: 1
Substitution2: "'ss05' Style Set 5 lookup 23 IPA alts-1" eng.ipa
Substitution2: "'smcp' Lowercase to Small Capitals lookup 16 subtable" Eng.sc
EndChar

StartChar: Omacron
Encoding: 332 332 266
Width: 736
GlyphClass: 2
Flags: MW
HStem: -22 65<309 425 309 450.5> 652 64<311 425> 756 64<188 549 188 549>
VStem: 56 89<264 449> 590 89<262.5 449.5>
LayerCount: 2
Fore
SplineSet
679 345 m 0
 679 135 534 -22 367 -22 c 0
 204 -22 56 133 56 345 c 0
 56 553 198 716 368 716 c 0
 534 716 679 555 679 345 c 0
590 360 m 0
 590 539 483 652 367 652 c 0
 255 652 145 543 145 360 c 0
 145 168 250 43 368 43 c 0
 482 43 590 165 590 360 c 0
549 756 m 1
 188 756 l 1
 188 820 l 1
 549 820 l 1
 549 756 l 1
EndSplineSet
Validated: 1
Position2: "'cpsp' Capital Spacing lookup 0 subtable" dx=7 dy=0 dh=14 dv=0
EndChar

StartChar: omacron
Encoding: 333 333 267
Width: 500
GlyphClass: 2
Flags: MW
HStem: -11 64<214.5 286 214.5 309> 400 61<216.5 284> 579 64<70 431 70 431>
VStem: 30 78<169.5 285.5> 391 78<171 287 155 289>
LayerCount: 2
Fore
SplineSet
469 220 m 0
 469 90 369 -11 249 -11 c 0
 132 -11 30 88 30 220 c 0
 30 351 127 461 250 461 c 0
 369 461 469 354 469 220 c 0
391 230 m 0
 391 348 319 400 249 400 c 0
 184 400 108 351 108 230 c 0
 108 109 180 53 249 53 c 0
 323 53 391 112 391 230 c 0
431 579 m 1
 70 579 l 1
 70 643 l 1
 431 643 l 1
 431 579 l 1
EndSplineSet
Validated: 1
EndChar

StartChar: Obreve
Encoding: 334 334 268
Width: 736
GlyphClass: 2
Flags: MW
HStem: -22 65<309 425 309 450.5> 652 64<311 425> 746 67<343.5 393 343.5 412.5> 904 20G<200 261 261 261 476 537 537 537>
VStem: 56 89<264 449> 590 89<262.5 449.5>
LayerCount: 2
Fore
SplineSet
679 345 m 0
 679 135 534 -22 367 -22 c 0
 204 -22 56 133 56 345 c 0
 56 553 198 716 368 716 c 0
 534 716 679 555 679 345 c 0
590 360 m 0
 590 539 483 652 367 652 c 0
 255 652 145 543 145 360 c 0
 145 168 250 43 368 43 c 0
 482 43 590 165 590 360 c 0
537 924 m 1
 535 819 457 746 368 746 c 0
 282 746 202 817 200 924 c 1
 261 924 l 1
 263 852 318 813 369 813 c 0
 417 813 474 850 476 924 c 1
 537 924 l 1
EndSplineSet
Validated: 1
Position2: "'cpsp' Capital Spacing lookup 0 subtable" dx=7 dy=0 dh=14 dv=0
EndChar

StartChar: obreve
Encoding: 335 335 269
Width: 500
GlyphClass: 2
Flags: MW
HStem: -11 64<214.5 286 214.5 309> 400 61<216.5 284> 522 67<225.5 275 225.5 294.5> 680 20G<82 143 143 143 358 419 419 419>
VStem: 30 78<169.5 285.5> 391 78<171 287 155 289>
LayerCount: 2
Fore
SplineSet
469 220 m 0
 469 90 369 -11 249 -11 c 0
 132 -11 30 88 30 220 c 0
 30 351 127 461 250 461 c 0
 369 461 469 354 469 220 c 0
391 230 m 0
 391 348 319 400 249 400 c 0
 184 400 108 351 108 230 c 0
 108 109 180 53 249 53 c 0
 323 53 391 112 391 230 c 0
419 700 m 1
 417 595 339 522 250 522 c 0
 164 522 84 593 82 700 c 1
 143 700 l 1
 145 628 200 589 251 589 c 0
 299 589 356 626 358 700 c 1
 419 700 l 1
EndSplineSet
Validated: 1
EndChar

StartChar: Ohungarumlaut
Encoding: 336 336 270
Width: 736
GlyphClass: 2
Flags: MW
HStem: -22 65<309 425 309 450.5> 652 64<311 425> 746 21G<226 287 226 226 393 393 393 454> 893 20G<289 367 367 367 456 534 534 534>
VStem: 56 89<264 449> 590 89<262.5 449.5>
LayerCount: 2
Fore
SplineSet
679 345 m 0
 679 135 534 -22 367 -22 c 0
 204 -22 56 133 56 345 c 0
 56 553 198 716 368 716 c 0
 534 716 679 555 679 345 c 0
590 360 m 0
 590 539 483 652 367 652 c 0
 255 652 145 543 145 360 c 0
 145 168 250 43 368 43 c 0
 482 43 590 165 590 360 c 0
367 913 m 1
 287 746 l 1
 226 746 l 1
 289 913 l 1
 367 913 l 1
534 913 m 1
 454 746 l 1
 393 746 l 1
 456 913 l 1
 534 913 l 1
EndSplineSet
Validated: 1
Position2: "'cpsp' Capital Spacing lookup 0 subtable" dx=7 dy=0 dh=14 dv=0
EndChar

StartChar: ohungarumlaut
Encoding: 337 337 271
Width: 500
GlyphClass: 2
Flags: MW
HStem: -11 64<214.5 286 214.5 309> 400 61<216.5 284> 527 21G<108 169 108 108 275 275 275 336> 674 20G<171 249 249 249 338 416 416 416>
VStem: 30 78<169.5 285.5> 391 78<171 287 155 289>
LayerCount: 2
Fore
SplineSet
469 220 m 0
 469 90 369 -11 249 -11 c 0
 132 -11 30 88 30 220 c 0
 30 351 127 461 250 461 c 0
 369 461 469 354 469 220 c 0
391 230 m 0
 391 348 319 400 249 400 c 0
 184 400 108 351 108 230 c 0
 108 109 180 53 249 53 c 0
 323 53 391 112 391 230 c 0
249 694 m 1
 169 527 l 1
 108 527 l 1
 171 694 l 1
 249 694 l 1
416 694 m 1
 336 527 l 1
 275 527 l 1
 338 694 l 1
 416 694 l 1
EndSplineSet
Validated: 1
Substitution2: "'smcp' Lowercase to Small Capitals lookup 16 subtable" Ohungarumlaut.sc
EndChar

StartChar: OE
Encoding: 338 338 272
Width: 972
GlyphClass: 2
Flags: MW
HStem: -22 61<292.5 372> 0 70<505.5 768 559 768 768 774 559 929> 70 61 330 61<559 888 559 888> 560 70 629 65<727 733 733 915> 655 61<293 372 271.5 404.5>
VStem: 28 86<272 441.5 272 451> 468 91
LayerCount: 2
Fore
SplineSet
929 0 m 1x5880
 519 0 l 2x40
 492 0 476 -3 438 -11 c 0
 405 -18 386 -22 358 -22 c 0
 188 -22 28 131 28 345 c 0
 28 557 185 716 358 716 c 0x83
 386 716 406 712 439 705 c 0
 484 695 498 694 519 694 c 2
 915 694 l 1
 915 629 l 1
 733 629 l 2x04
 721 629 709 630 697 630 c 2
 559 630 l 1
 559 391 l 1
 888 391 l 1
 888 330 l 1
 559 330 l 1
 559 70 l 1
 768 70 l 2
 780 70 792 71 804 71 c 2
 929 71 l 1
 929 0 l 1x5880
472 347 m 0
 472 436 472 527 468 560 c 0
 460 621 446 655 363 655 c 0
 223 655 114 523 114 360 c 0
 114 184 222 39 363 39 c 0
 447 39 460 74 468 131 c 0xab80
 472 164 472 231 472 347 c 0
EndSplineSet
Validated: 1
Position2: "'cpsp' Capital Spacing lookup 0 subtable" dx=7 dy=0 dh=14 dv=0
EndChar

StartChar: oe
Encoding: 339 339 273
Width: 778
GlyphClass: 2
Flags: MW
HStem: -11 61<205.5 260.5 562.5 619> 219 55<460 690 460 749 455 690> 400 61<206 254 184 273.5 554.5 609>
VStem: 30 72<170 287.5 170 291> 377 78<219 219 219 290.5> 690 54
LayerCount: 2
Fore
SplineSet
749 219 m 1
 455 219 l 1
 460 115 525 50 600 50 c 0
 638 50 692 63 738 106 c 1
 744 41 l 1
 716 18 665 -11 598 -11 c 0
 521 -11 454 32 417 90 c 1
 355 0 280 -11 241 -11 c 0
 127 -11 30 92 30 225 c 0
 30 357 127 461 241 461 c 0
 267 461 351 457 415 362 c 1
 445 410 506 461 583 461 c 0
 727 461 749 306 749 219 c 1
690 274 m 1
 678 361 635 400 583 400 c 0
 526 400 475 346 460 274 c 1
 690 274 l 1
377 230 m 0
 377 351 306 400 241 400 c 0
 171 400 102 345 102 230 c 0
 102 110 170 50 241 50 c 0
 309 50 377 107 377 230 c 0
EndSplineSet
Validated: 1
Substitution2: "'smcp' Lowercase to Small Capitals lookup 16 subtable" OE.sc
EndChar

StartChar: Racute
Encoding: 340 340 274
Width: 646
GlyphClass: 2
Flags: MW
HStem: 0 21G<96 182 96 96 528 617 528 528> 317 61<182 326 326 340 182 326> 638 56<182 326 182 182> 746 21G<228 317 228 228> 848 20G<403 514 514 514>
VStem: 96 86<0 317 0 378 378 638> 508 81<472.5 543.5>
LayerCount: 2
Fore
SplineSet
617 0 m 1
 528 0 l 1
 340 317 l 1
 182 317 l 1
 182 0 l 1
 96 0 l 1
 96 694 l 1
 337 694 l 2
 480 694 589 607 589 508 c 0
 589 427 522 356 419 326 c 1
 617 0 l 1
508 508 m 0
 508 579 442 638 326 638 c 2
 182 638 l 1
 182 378 l 1
 326 378 l 2
 444 378 508 437 508 508 c 0
514 868 m 1
 317 746 l 1
 228 746 l 1
 403 868 l 1
 514 868 l 1
EndSplineSet
Validated: 1
Position2: "'cpsp' Capital Spacing lookup 0 subtable" dx=7 dy=0 dh=14 dv=0
EndChar

StartChar: racute
Encoding: 341 341 275
Width: 342
GlyphClass: 2
Flags: MW
HStem: 0 21G<82 157 82 82> 435 20G<327 327> 527 21G<82 143 82 82> 674 20G<215 293 293 293>
VStem: 82 75<0 214 0 450>
LayerCount: 2
Fore
SplineSet
327 388 m 1
 229 386 157 314 157 214 c 2
 157 0 l 1
 82 0 l 1
 82 450 l 1
 152 450 l 1
 152 359 l 1
 183 405 238 454 327 455 c 1
 327 388 l 1
293 694 m 1
 143 527 l 1
 82 527 l 1
 215 694 l 1
 293 694 l 1
EndSplineSet
Validated: 1
Substitution2: "'smcp' Lowercase to Small Capitals lookup 16 subtable" Racute.sc
EndChar

StartChar: Rcommaaccent
Encoding: 342 342 276
Width: 646
GlyphClass: 2
Flags: MW
HStem: -266 21G<286 323 286 286> -154 75<286 308 286 360> 0 21G<96 182 96 96 528 617 528 528> 317 61<182 326 326 340 182 326> 638 56<182 326 182 182>
VStem: 96 86<0 317 0 378 378 638> 508 81<472.5 543.5>
LayerCount: 2
Fore
SplineSet
617 0 m 1
 528 0 l 1
 340 317 l 1
 182 317 l 1
 182 0 l 1
 96 0 l 1
 96 694 l 1
 337 694 l 2
 480 694 589 607 589 508 c 0
 589 427 522 356 419 326 c 1
 617 0 l 1
508 508 m 0
 508 579 442 638 326 638 c 2
 182 638 l 1
 182 378 l 1
 326 378 l 2
 444 378 508 437 508 508 c 0
360 -153 m 1
 323 -266 l 1
 286 -266 l 1
 308 -154 l 1
 286 -154 l 1
 286 -79 l 1
 360 -79 l 1
 360 -153 l 1
EndSplineSet
Validated: 1
Position2: "'cpsp' Capital Spacing lookup 0 subtable" dx=7 dy=0 dh=14 dv=0
EndChar

StartChar: rcommaaccent
Encoding: 343 343 277
Width: 342
GlyphClass: 2
Flags: MW
HStem: -266 21G<83 120 83 83> -154 75<83 105 83 157> 0 21G<82 157 82 82> 435 20G<327 327>
VStem: 82 75<0 214>
LayerCount: 2
Fore
SplineSet
327 388 m 1
 229 386 157 314 157 214 c 2
 157 0 l 1
 82 0 l 1
 82 450 l 1
 152 450 l 1
 152 359 l 1
 183 405 238 454 327 455 c 1
 327 388 l 1
157 -153 m 1
 120 -266 l 1
 83 -266 l 1
 105 -154 l 1
 83 -154 l 1
 83 -79 l 1
 157 -79 l 1
 157 -153 l 1
EndSplineSet
Validated: 1
EndChar

StartChar: Rcaron
Encoding: 344 344 278
Width: 646
GlyphClass: 2
Flags: MW
HStem: 0 21G<96 182 96 96 528 617 528 528> 317 61<182 326 326 340 182 326> 638 56<182 326 182 182> 736 21G<293 353 293 293> 850 20G<167 226 226 226 420 479 479 479>
VStem: 96 86<0 317 0 378 378 638> 508 81<472.5 543.5>
LayerCount: 2
Fore
SplineSet
617 0 m 1
 528 0 l 1
 340 317 l 1
 182 317 l 1
 182 0 l 1
 96 0 l 1
 96 694 l 1
 337 694 l 2
 480 694 589 607 589 508 c 0
 589 427 522 356 419 326 c 1
 617 0 l 1
508 508 m 0
 508 579 442 638 326 638 c 2
 182 638 l 1
 182 378 l 1
 326 378 l 2
 444 378 508 437 508 508 c 0
479 870 m 1
 353 736 l 1
 293 736 l 1
 167 870 l 1
 226 870 l 1
 323 773 l 1
 420 870 l 1
 479 870 l 1
EndSplineSet
Validated: 1
Position2: "'cpsp' Capital Spacing lookup 0 subtable" dx=7 dy=0 dh=14 dv=0
EndChar

StartChar: rcaron
Encoding: 345 345 279
Width: 342
GlyphClass: 2
Flags: MW
HStem: 0 21G<82 157 82 82> 435 20G<327 327> 525 21G<141 201 141 141> 677 20G<16 75 75 75 267 326 326 326>
VStem: 82 75<0 214 0 450>
LayerCount: 2
Fore
SplineSet
327 388 m 1
 229 386 157 314 157 214 c 2
 157 0 l 1
 82 0 l 1
 82 450 l 1
 152 450 l 1
 152 359 l 1
 183 405 238 454 327 455 c 1
 327 388 l 1
326 697 m 1
 201 525 l 1
 141 525 l 1
 16 697 l 1
 75 697 l 1
 171 574 l 1
 267 697 l 1
 326 697 l 1
EndSplineSet
Validated: 1
Substitution2: "'smcp' Lowercase to Small Capitals lookup 16 subtable" Rcaron.sc
EndChar

StartChar: Sacute
Encoding: 346 346 280
Width: 556
GlyphClass: 2
Flags: MW
HStem: -22 69<253.5 319.5> 326 66 650 66<235 318.5 212.5 323> 746 21G<183 272 183 183> 848 20G<358 469 469 469>
VStem: 56 79<509 560.5 509 568.5> 420 79<146 200.5>
LayerCount: 2
Fore
SplineSet
499 189 m 0
 499 79 407 -22 275 -22 c 0
 212 -22 132 -8 44 47 c 1
 59 128 l 1
 143 57 233 47 274 47 c 0
 365 47 420 113 420 179 c 0
 420 222 398 255 378 272 c 0
 350 297 340 300 255 321 c 0
 196 335 152 347 110 392 c 0
 70 434 56 476 56 519 c 0
 56 618 143 716 282 716 c 0
 355 716 410 699 465 666 c 1
 450 586 l 1
 413 617 365 650 281 650 c 0
 189 650 135 590 135 531 c 0
 135 487 163 458 170 452 c 0
 200 426 216 422 274 408 c 0
 366 385 399 376 446 326 c 0
 468 302 499 254 499 189 c 0
469 868 m 1
 272 746 l 1
 183 746 l 1
 358 868 l 1
 469 868 l 1
EndSplineSet
Validated: 1
Position2: "'cpsp' Capital Spacing lookup 0 subtable" dx=7 dy=0 dh=14 dv=0
EndChar

StartChar: sacute
Encoding: 347 347 281
Width: 383
GlyphClass: 2
Flags: MW
HStem: -11 63<155.5 202.5 154.5 205> 402 59<186.5 205> 527 21G<122 183 122 122> 674 20G<255 333 333 333>
VStem: 33 71<315.5 371 315.5 395.5> 289 71<106.5 147.5>
LayerCount: 2
Fore
SplineSet
360 128 m 0
 360 85 343 45 312 21 c 0
 269 -11 214 -11 196 -11 c 0
 115 -11 60 17 28 33 c 1
 40 101 l 1
 58 89 114 52 195 52 c 0
 210 52 289 52 289 121 c 0
 289 174 231 186 195 193 c 0
 140 204 118 208 87 230 c 0
 62 249 33 281 33 330 c 0
 33 461 174 461 199 461 c 0
 250 461 291 453 343 429 c 1
 331 364 l 1
 274 398 221 402 189 402 c 0
 176 402 104 402 104 340 c 0
 104 291 150 281 205 270 c 0
 255 261 282 255 321 220 c 0
 323 217 360 183 360 128 c 0
333 694 m 1
 183 527 l 1
 122 527 l 1
 255 694 l 1
 333 694 l 1
EndSplineSet
Validated: 1
Substitution2: "'smcp' Lowercase to Small Capitals lookup 16 subtable" Sacute.sc
EndChar

StartChar: Scircumflex
Encoding: 348 348 282
Width: 556
GlyphClass: 2
Flags: MW
HStem: -22 69<253.5 319.5> 326 66 650 66<235 318.5 212.5 323> 736 21G<122 181 122 122 375 434 375 375> 850 20G<248 308 308 308>
VStem: 56 79<509 560.5 509 568.5> 420 79<146 200.5>
LayerCount: 2
Fore
SplineSet
499 189 m 0
 499 79 407 -22 275 -22 c 0
 212 -22 132 -8 44 47 c 1
 59 128 l 1
 143 57 233 47 274 47 c 0
 365 47 420 113 420 179 c 0
 420 222 398 255 378 272 c 0
 350 297 340 300 255 321 c 0
 196 335 152 347 110 392 c 0
 70 434 56 476 56 519 c 0
 56 618 143 716 282 716 c 0
 355 716 410 699 465 666 c 1
 450 586 l 1
 413 617 365 650 281 650 c 0
 189 650 135 590 135 531 c 0
 135 487 163 458 170 452 c 0
 200 426 216 422 274 408 c 0
 366 385 399 376 446 326 c 0
 468 302 499 254 499 189 c 0
434 736 m 1
 375 736 l 1
 278 833 l 1
 181 736 l 1
 122 736 l 1
 248 870 l 1
 308 870 l 1
 434 736 l 1
EndSplineSet
Validated: 1
Position2: "'cpsp' Capital Spacing lookup 0 subtable" dx=7 dy=0 dh=14 dv=0
EndChar

StartChar: scircumflex
Encoding: 349 349 283
Width: 383
GlyphClass: 2
Flags: MW
HStem: -11 63<155.5 202.5 154.5 205> 402 59<186.5 205> 525 21G<37 96 37 37 288 347 288 288> 677 20G<162 222 222 222>
VStem: 33 71<315.5 371 315.5 395.5> 289 71<106.5 147.5>
LayerCount: 2
Fore
SplineSet
360 128 m 0
 360 85 343 45 312 21 c 0
 269 -11 214 -11 196 -11 c 0
 115 -11 60 17 28 33 c 1
 40 101 l 1
 58 89 114 52 195 52 c 0
 210 52 289 52 289 121 c 0
 289 174 231 186 195 193 c 0
 140 204 118 208 87 230 c 0
 62 249 33 281 33 330 c 0
 33 461 174 461 199 461 c 0
 250 461 291 453 343 429 c 1
 331 364 l 1
 274 398 221 402 189 402 c 0
 176 402 104 402 104 340 c 0
 104 291 150 281 205 270 c 0
 255 261 282 255 321 220 c 0
 323 217 360 183 360 128 c 0
347 525 m 1
 288 525 l 1
 192 648 l 1
 96 525 l 1
 37 525 l 1
 162 697 l 1
 222 697 l 1
 347 525 l 1
EndSplineSet
Validated: 1
EndChar

StartChar: Scedilla
Encoding: 350 350 284
Width: 556
GlyphClass: 2
Flags: MW
HStem: -22 69<253.5 319.5> 326 66 650 66<235 318.5 212.5 323>
VStem: 56 79<509 560.5 509 568.5> 110 79 420 79<146 200.5>
LayerCount: 2
Fore
SplineSet
499 189 m 0x70
 499 79 407 -22 275 -22 c 0
 212 -22 132 -8 44 47 c 1
 59 128 l 1
 143 57 233 47 274 47 c 0
 365 47 420 113 420 179 c 0
 420 222 398 255 378 272 c 0
 350 297 340 300 255 321 c 0
 196 335 152 347 110 392 c 0xcc
 70 434 56 476 56 519 c 0
 56 618 143 716 282 716 c 0
 355 716 410 699 465 666 c 1
 450 586 l 1
 413 617 365 650 281 650 c 0
 189 650 135 590 135 531 c 0
 135 487 163 458 170 452 c 0
 200 426 216 422 274 408 c 0
 366 385 399 376 446 326 c 0
 468 302 499 254 499 189 c 0x70
324 -46 m 1
 258 -214 l 1
 189 -214 l 1
 263 -46 l 1
 324 -46 l 1
EndSplineSet
Validated: 1
Substitution2: "'locl' Localized Forms in Latin lookup 2 subtable" uni0218
Substitution2: "'aalt' Access All Alternates lookup 0 subtable" uni0218
Position2: "'cpsp' Capital Spacing lookup 0 subtable" dx=7 dy=0 dh=14 dv=0
EndChar

StartChar: scedilla
Encoding: 351 351 285
Width: 383
GlyphClass: 2
Flags: MW
HStem: -11 63<155.5 202.5 154.5 205> 402 59<186.5 205>
VStem: 33 71<315.5 371 315.5 395.5> 289 71<106.5 147.5>
LayerCount: 2
Fore
SplineSet
360 128 m 0
 360 85 343 45 312 21 c 0
 269 -11 214 -11 196 -11 c 0
 115 -11 60 17 28 33 c 1
 40 101 l 1
 58 89 114 52 195 52 c 0
 210 52 289 52 289 121 c 0
 289 174 231 186 195 193 c 0
 140 204 118 208 87 230 c 0
 62 249 33 281 33 330 c 0
 33 461 174 461 199 461 c 0
 250 461 291 453 343 429 c 1
 331 364 l 1
 274 398 221 402 189 402 c 0
 176 402 104 402 104 340 c 0
 104 291 150 281 205 270 c 0
 255 261 282 255 321 220 c 0
 323 217 360 183 360 128 c 0
238 -46 m 1
 172 -214 l 1
 103 -214 l 1
 177 -46 l 1
 238 -46 l 1
EndSplineSet
Validated: 1
Substitution2: "'smcp' Lowercase to Small Capitals lookup 16 subtable" Scedilla.sc
Substitution2: "'locl' Localized Forms in Latin lookup 2 subtable" uni0219
Substitution2: "'aalt' Access All Alternates lookup 0 subtable" uni0219
EndChar

StartChar: Scaron
Encoding: 352 352 286
Width: 556
GlyphClass: 2
Flags: MW
HStem: -22 69<253.5 319.5> 326 66 650 66<235 318.5 212.5 323> 736 21G<248 308 248 248> 850 20G<122 181 181 181 375 434 434 434>
VStem: 56 79<509 560.5 509 568.5> 420 79<146 200.5>
LayerCount: 2
Fore
SplineSet
499 189 m 0
 499 79 407 -22 275 -22 c 0
 212 -22 132 -8 44 47 c 1
 59 128 l 1
 143 57 233 47 274 47 c 0
 365 47 420 113 420 179 c 0
 420 222 398 255 378 272 c 0
 350 297 340 300 255 321 c 0
 196 335 152 347 110 392 c 0
 70 434 56 476 56 519 c 0
 56 618 143 716 282 716 c 0
 355 716 410 699 465 666 c 1
 450 586 l 1
 413 617 365 650 281 650 c 0
 189 650 135 590 135 531 c 0
 135 487 163 458 170 452 c 0
 200 426 216 422 274 408 c 0
 366 385 399 376 446 326 c 0
 468 302 499 254 499 189 c 0
434 870 m 1
 308 736 l 1
 248 736 l 1
 122 870 l 1
 181 870 l 1
 278 773 l 1
 375 870 l 1
 434 870 l 1
EndSplineSet
Validated: 1
Position2: "'cpsp' Capital Spacing lookup 0 subtable" dx=7 dy=0 dh=14 dv=0
EndChar

StartChar: scaron
Encoding: 353 353 287
Width: 383
GlyphClass: 2
Flags: MW
HStem: -11 63<155.5 202.5 154.5 205> 402 59<186.5 205> 525 21G<162 222 162 162> 677 20G<37 96 96 96 288 347 347 347>
VStem: 33 71<315.5 371 315.5 395.5> 289 71<106.5 147.5>
LayerCount: 2
Fore
SplineSet
360 128 m 0
 360 85 343 45 312 21 c 0
 269 -11 214 -11 196 -11 c 0
 115 -11 60 17 28 33 c 1
 40 101 l 1
 58 89 114 52 195 52 c 0
 210 52 289 52 289 121 c 0
 289 174 231 186 195 193 c 0
 140 204 118 208 87 230 c 0
 62 249 33 281 33 330 c 0
 33 461 174 461 199 461 c 0
 250 461 291 453 343 429 c 1
 331 364 l 1
 274 398 221 402 189 402 c 0
 176 402 104 402 104 340 c 0
 104 291 150 281 205 270 c 0
 255 261 282 255 321 220 c 0
 323 217 360 183 360 128 c 0
347 697 m 1
 222 525 l 1
 162 525 l 1
 37 697 l 1
 96 697 l 1
 192 574 l 1
 288 697 l 1
 347 697 l 1
EndSplineSet
Validated: 1
Substitution2: "'smcp' Lowercase to Small Capitals lookup 16 subtable" Scaron.sc
EndChar

StartChar: Tcedilla
Encoding: 354 354 288
Width: 681
GlyphClass: 2
Flags: MW
HStem: -192 21G<236 305 236 236> -44 20G<310 371 371 371> 0 21G<296 385 296 296> 623 65<36 170 36 644 504 510 510 644>
VStem: 236 135 296 89<0 624 0 624> 385 89<0 624>
LayerCount: 2
Fore
SplineSet
644 623 m 1x34
 510 623 l 2
 498 623 486 624 474 624 c 2xda
 385 624 l 1
 385 0 l 1
 296 0 l 1
 296 624 l 1
 206 624 l 2
 194 624 182 623 170 623 c 2
 36 623 l 1
 36 688 l 1
 644 688 l 1
 644 623 l 1x34
371 -24 m 1
 305 -192 l 1
 236 -192 l 1
 310 -24 l 1
 371 -24 l 1
EndSplineSet
Validated: 1
Substitution2: "'locl' Localized Forms in Latin lookup 2 subtable" uni021A
Substitution2: "'aalt' Access All Alternates lookup 0 subtable" uni021A
Position2: "'cpsp' Capital Spacing lookup 0 subtable" dx=7 dy=0 dh=14 dv=0
EndChar

StartChar: tcedilla
Encoding: 355 355 289
Width: 361
GlyphClass: 2
Flags: MW
HStem: -192 21G<108 177 108 108> -44 20G<182 243 243 243> -11 64<207.5 221> 386 58<19 103 19 106 175 316> 551 20G<106 175 175 175>
VStem: 103 72<119 136 136 386> 108 135
LayerCount: 2
Fore
SplineSet
332 27 m 1x7c
 307 14 256 -11 186 -11 c 0
 117 -11 103 59 103 119 c 2
 103 386 l 1
 19 386 l 1
 19 444 l 1
 106 444 l 1
 106 571 l 1
 175 571 l 1
 175 444 l 1
 316 444 l 1
 316 386 l 1
 175 386 l 1
 175 136 l 2
 175 83 189 53 226 53 c 0
 258 53 290 65 316 86 c 1
 332 27 l 1x7c
243 -24 m 1
 177 -192 l 1
 108 -192 l 1xc2
 182 -24 l 1
 243 -24 l 1
EndSplineSet
Validated: 1
Substitution2: "'smcp' Lowercase to Small Capitals lookup 16 subtable" Tcedilla.sc
Substitution2: "'locl' Localized Forms in Latin lookup 2 subtable" uni021B
Substitution2: "'aalt' Access All Alternates lookup 0 subtable" uni021B
EndChar

StartChar: Tcaron
Encoding: 356 356 290
Width: 681
GlyphClass: 2
Flags: MW
HStem: 0 21G<296 385 296 296> 623 65<36 170 36 644 504 510 510 644> 736 21G<310 370 310 310> 850 20G<184 243 243 243 437 496 496 496>
VStem: 296 89<0 624 0 624> 385 89<0 624>
LayerCount: 2
Fore
SplineSet
644 623 m 1xc8
 510 623 l 2
 498 623 486 624 474 624 c 2x44
 385 624 l 1
 385 0 l 1
 296 0 l 1
 296 624 l 1
 206 624 l 2
 194 624 182 623 170 623 c 2
 36 623 l 1
 36 688 l 1
 644 688 l 1
 644 623 l 1xc8
496 870 m 1x30
 370 736 l 1
 310 736 l 1
 184 870 l 1
 243 870 l 1
 340 773 l 1
 437 870 l 1
 496 870 l 1x30
EndSplineSet
Validated: 1
Position2: "'cpsp' Capital Spacing lookup 0 subtable" dx=7 dy=0 dh=14 dv=0
EndChar

StartChar: tcaron
Encoding: 357 357 291
Width: 361
GlyphClass: 2
Flags: MW
HStem: -11 64<207.5 221> 386 58<19 103 19 106 175 316> 481 21G<212 249 212 212> 551 20G<106 175 175 175> 593 75<212 234 212 286>
VStem: 103 72<119 136 136 386>
LayerCount: 2
Fore
SplineSet
332 27 m 1
 307 14 256 -11 186 -11 c 0
 117 -11 103 59 103 119 c 2
 103 386 l 1
 19 386 l 1
 19 444 l 1
 106 444 l 1
 106 571 l 1
 175 571 l 1
 175 444 l 1
 316 444 l 1
 316 386 l 1
 175 386 l 1
 175 136 l 2
 175 83 189 53 226 53 c 0
 258 53 290 65 316 86 c 1
 332 27 l 1
286 594 m 1
 249 481 l 1
 212 481 l 1
 234 593 l 1
 212 593 l 1
 212 668 l 1
 286 668 l 1
 286 594 l 1
EndSplineSet
Validated: 1
Substitution2: "'smcp' Lowercase to Small Capitals lookup 16 subtable" Tcaron.sc
EndChar

